SplineFontDB: 3.0
FontName: AbhayaLibre-ExtraBold
FullName: AbhayaLibre
FamilyName: AbhayaLibre
Weight: ExtraBold
Copyright: Copyright (c) 1997 Pushpananda Ekanayake (http://isiwara.lk)  Copyright (c) 2015 Sol Matas (http://sonnenshine.com.ar/) Copyright (c) 2015 mooniak (http://mooniak.com)
UComments: "2015-2-15: Created with FontForge (http://fontforge.org) The  Free Font Editor"
Version: 1.0
ItalicAngle: 0
UnderlinePosition: -99
UnderlineWidth: 49
Ascent: 800
Descent: 200
InvalidEm: 0
UFOAscent: 799.805
UFODescent: -200.195
LayerCount: 2
Layer: 0 0 "Back" 1
Layer: 1 0 "Fore" 0
PreferredKerning: 4
StyleMap: 0x0040
FSType: 0
OS2Version: 0
OS2_WeightWidthSlopeOnly: 0
OS2_UseTypoMetrics: 0
CreationTime: 1440051463
ModificationTime: 1487243171
PfmFamily: 16
TTFWeight: 400
TTFWidth: 5
LineGap: 92
VLineGap: 0
OS2TypoAscent: 800
OS2TypoAOffset: 0
OS2TypoDescent: -200
OS2TypoDOffset: 0
OS2TypoLinegap: 92
OS2WinAscent: 896
OS2WinAOffset: 0
OS2WinDescent: 200
OS2WinDOffset: 0
HheadAscent: 896
HheadAOffset: 0
HheadDescent: -200
HheadDOffset: 0
OS2Vendor: 'PfEd'
OS2UnicodeRanges: 00000002.00000000.00000000.00000000
Lookup: 1 0 0 "Abhaya Libre Latin-Regular-'sups' Superscript lookup 0" { "Abhaya Libre Latin-Regular-'sups' Superscript lookup 0 subtable"  } ['sups' ('DFLT' <'dflt' > ) ]
Lookup: 4 0 0 "Abhaya Libre Latin-Regular-'frac' Diagonal Fractions lookup 1" { "Abhaya Libre Latin-Regular-'frac' Diagonal Fractions lookup 1 subtable"  } ['frac' ('DFLT' <'dflt' > ) ]
Lookup: 6 0 0 "Abhaya Libre Latin-Regular-'ordn' Ordinals lookup 2" { "Abhaya Libre Latin-Regular-'ordn' Ordinals lookup 2 contextual 0"  "Abhaya Libre Latin-Regular-'ordn' Ordinals lookup 2 contextual 1"  } ['ordn' ('DFLT' <'dflt' > ) ]
Lookup: 1 0 0 "Abhaya Libre Latin-Regular-Single Substitution lookup 3" { "Abhaya Libre Latin-Regular-Single Substitution lookup 3 subtable"  } []

StartChar: .notdef
Encoding: 579 -1 0
GlifName: _notdef
Width: 631
VWidth: 0
Flags: HW
LayerCount: 2
Fore
SplineSet
50 -92.6602 m 257
 50 754.34 l 257
 581 754.34 l 257
 581 -92.6602 l 257
 50 -92.6602 l 257
260.653 154.374 m 256
 260.653 176.734 277.787 194.836 299.593 194.836 c 256
 321.4 194.836 339.053 176.734 339.053 154.374 c 256
 339.053 132.013 321.4 114.443 299.593 114.443 c 256
 277.787 114.443 260.653 132.013 260.653 154.374 c 256
157.38 633.34 m 257
 157.38 17.4502 l 257
 473.62 17.4502 l 257
 473.62 633.34 l 257
 157.38 633.34 l 257
212.887 451.452 m 257
 228.464 471.685 254.424 500.434 310.496 500.434 c 256
 376.954 500.434 418.49 456.244 420.567 387.564 c 256
 420.567 283.047 333.86 273.1 333.86 273.1 c 257
 333.86 214.534 l 257
 266.884 214.534 l 257
 266.884 331.662 l 257
 327.631 332.728 354.109 339.116 354.109 388.629 c 256
 354.109 416.314 330.745 432.286 306.344 432.286 c 256
 284.018 432.286 266.365 421.105 255.462 406.199 c 257
 212.887 451.452 l 257
EndSplineSet
Validated: 1
EndChar

StartChar: si_JnyAe
Encoding: 188 -1 1
GlifName: N_ameM_e.560
Width: 819
VWidth: 0
GlyphClass: 2
Flags: HW
LayerCount: 2
Fore
SplineSet
411 165 m 260
 411 268 483 310 599 310 c 258
 713 310 l 257
 704 355 675 381 643 381 c 256
 624 381 610 370 602 353 c 256
 592 332 574 325 555 325 c 256
 531 325 514 341 514 362 c 256
 514 397 553 423 607 423 c 256
 691 423 734 379 751 284 c 257
 691 284 l 258
 605 284 561 251 561 169 c 256
 561 87 612 43 660 43 c 256
 690 43 714 47 753 92 c 257
 778 73 l 257
 763 46 757 5 757 -59 c 256
 757 -125 780 -195 803 -195 c 257
 803 -223 l 257
 800 -224 796 -224 792 -224 c 256
 737 -224 682 -175 682 -103 c 256
 682 -49 702 -10 717 21 c 257
 690 5 651 -52 651 -105 c 256
 651 -153 662 -189 688 -196 c 257
 688 -223 l 257
 684 -224 675 -225 670 -225 c 256
 609 -225 562 -193 562 -129 c 256
 562 -77 600 -40 646 1 c 257
 638 -1 636 -1 609 -1 c 256
 481 -1 411 67 411 165 c 260
658 416 m 257
 540 399 l 257
 535 399 533 399 527 399 c 256
 432 399 363 339 342 235 c 257
 350 239 354 240 361 240 c 256
 408 240 441 197 441 133 c 256
 441 55 386 -2 301 -2 c 256
 193 -2 131 94 131 202 c 256
 131 322 204 421 312 421 c 256
 316 421 321 421 325 421 c 257
 325 396 l 257
 322 396 317 396 314 396 c 256
 230 396 183 320 183 252 c 256
 183 198 222 137 301 137 c 256
 359 137 385 157 385 186 c 256
 385 197 379 215 358 215 c 256
 351 215 343 212 338 208 c 257
 337 202 335 192 335 189 c 257
 307 189 l 257
 320 346 397 428 547 428 c 256
 577 428 626 426 658 416 c 257
318 421 m 257
 297 410 248 404 233 396 c 257
 133 396 58 339 58 213 c 256
 58 134 84 76 132 33 c 257
 132 0 l 257
 67 32 26 117 26 216 c 256
 26 345 97 423 233 423 c 256
 242 423 292 422 318 421 c 257
EndSplineSet
Validated: 5
EndChar

StartChar: si_JnyAee
Encoding: 189 -1 2
GlifName: N_ameM_e.561
Width: 819
VWidth: 0
GlyphClass: 2
Flags: HW
LayerCount: 2
Fore
SplineSet
411 165 m 260
 411 268 482 310 598 310 c 258
 713 310 l 257
 704 355 674 381 642 381 c 256
 623 381 609 370 601 353 c 256
 591 332 574 325 555 325 c 256
 531 325 513 341 513 362 c 256
 513 397 553 423 607 423 c 256
 691 423 734 379 751 284 c 257
 690 284 l 258
 604 284 561 251 561 169 c 256
 561 87 611 43 659 43 c 256
 689 43 713 47 752 92 c 257
 778 73 l 257
 778 66 729 30 729 30 c 257
 797 30 l 257
 797 5 l 257
 736 -35 l 257
 795 -35 l 257
 795 -60 l 257
 783 -73 765 -90 765 -133 c 256
 765 -172 786 -195 802 -195 c 257
 802 -223 l 257
 799 -224 796 -224 792 -224 c 256
 737 -224 682 -185 682 -141 c 256
 682 -103 710 -73 740 -60 c 257
 685 -60 l 257
 685 -39 l 257
 708 -25 729 -9 753 4 c 257
 751 4 699 4 699 4 c 257
 682 -10 651 -52 651 -105 c 256
 651 -153 670 -189 688 -196 c 257
 688 -223 l 257
 684 -224 675 -225 670 -225 c 256
 609 -225 562 -193 562 -129 c 256
 562 -77 600 -40 646 1 c 257
 638 -1 636 -1 609 -1 c 256
 481 -1 411 67 411 165 c 260
658 416 m 257
 540 399 l 257
 535 399 533 399 527 399 c 256
 432 399 363 339 342 235 c 257
 350 239 354 240 361 240 c 256
 408 240 441 197 441 133 c 256
 441 55 386 -2 301 -2 c 256
 193 -2 131 94 131 202 c 256
 131 322 204 421 312 421 c 256
 316 421 321 421 325 421 c 257
 325 396 l 257
 322 396 317 396 314 396 c 256
 230 396 183 320 183 252 c 256
 183 198 222 137 301 137 c 256
 359 137 385 157 385 186 c 256
 385 197 379 215 358 215 c 256
 351 215 343 212 338 208 c 257
 337 202 335 192 335 189 c 257
 307 189 l 257
 320 346 397 428 547 428 c 256
 577 428 626 426 658 416 c 257
318 421 m 257
 297 410 248 404 233 396 c 257
 133 396 58 339 58 213 c 256
 58 134 84 76 132 33 c 257
 132 0 l 257
 67 32 26 117 26 216 c 256
 26 345 97 423 233 423 c 256
 242 423 292 422 318 421 c 257
EndSplineSet
Validated: 5
EndChar

StartChar: si_NyAe
Encoding: 175 -1 3
GlifName: N_ameM_e.564
Width: 994
VWidth: 0
GlyphClass: 2
Flags: HW
LayerCount: 2
Fore
SplineSet
589 165 m 260
 589 268 660 310 776 310 c 258
 891 310 l 257
 882 355 830 381 798 381 c 256
 779 381 765 370 757 353 c 256
 747 332 730 325 711 325 c 256
 687 325 669 341 669 362 c 256
 669 397 709 423 763 423 c 256
 847 423 911 379 928 284 c 257
 868 284 l 258
 782 284 738 251 738 169 c 256
 738 87 789 43 837 43 c 256
 867 43 891 47 930 92 c 257
 956 73 l 257
 941 46 934 5 934 -59 c 256
 934 -125 957 -195 980 -195 c 257
 980 -223 l 257
 977 -224 973 -224 969 -224 c 256
 914 -224 860 -175 860 -103 c 256
 860 -49 879 -10 894 21 c 257
 867 5 829 -52 829 -105 c 256
 829 -153 840 -189 866 -196 c 257
 866 -223 l 257
 862 -224 852 -225 847 -225 c 256
 786 -225 740 -193 740 -129 c 256
 740 -77 778 -40 824 1 c 257
 816 -1 814 -1 787 -1 c 256
 659 -1 589 67 589 165 c 260
298 262 m 257
 281 248 265 229 250 207 c 256
 224 168 221 160 211 140 c 257
 223 150 234 156 248 156 c 256
 279 156 290 137 329 137 c 256
 374 137 396 153 396 209 c 256
 396 211 396 209 396 211 c 257
 423 211 l 257
 423 210 423 211 423 210 c 256
 423 150 446 137 490 137 c 256
 530 137 555 165 555 199 c 256
 555 240 515 280 416 280 c 256
 361 280 322 274 298 262 c 257
143 21 m 257
 151 89 195 180 229 227 c 256
 254 262 267 274 289 297 c 257
 298 307 309 323 309 344 c 256
 309 363 299 377 276 377 c 256
 262 377 247 369 243 354 c 256
 237 333 241 334 232 315 c 256
 224 298 207 290 192 290 c 256
 156 290 150 320 150 332 c 256
 150 385 200 423 255 423 c 256
 306 423 337 390 337 350 c 256
 337 344 337 341 336 333 c 257
 371 360 417 387 480 407 c 256
 545 428 618 432 660 432 c 256
 743 432 787 423 808 417 c 257
 801 416 717 401 705 400 c 257
 690 401 670 402 658 402 c 256
 601 402 552 394 524 388 c 256
 439 369 378 329 337 299 c 257
 365 305 393 307 420 307 c 256
 537 307 625 244 625 123 c 256
 625 66 593 -1 510 -1 c 256
 465 -1 432 20 411 62 c 257
 394 22 362 -1 321 -1 c 256
 236 -1 239 71 207 71 c 256
 185 71 173 50 170 11 c 257
 143 21 l 257
26 216 m 256
 26 345 97 424 233 424 c 256
 242 424 265 424 286 418 c 257
 265 407 191 395 174 389 c 257
 104 372 58 312 58 213 c 256
 58 134 84 76 132 33 c 257
 132 0 l 257
 67 32 26 117 26 216 c 256
EndSplineSet
Validated: 5
EndChar

StartChar: si_NyAee
Encoding: 176 -1 4
GlifName: N_ameM_e.565
Width: 994
VWidth: 0
GlyphClass: 2
Flags: HW
LayerCount: 2
Fore
SplineSet
589 165 m 256
 589 268 660 310 776 310 c 258
 891 310 l 257
 882 355 831 381 799 381 c 256
 780 381 766 370 758 353 c 256
 748 332 730 325 711 325 c 256
 687 325 670 341 670 362 c 256
 670 397 709 423 763 423 c 256
 847 423 911 379 928 284 c 257
 868 284 l 258
 782 284 738 251 738 169 c 256
 738 87 789 43 837 43 c 256
 867 43 891 47 930 92 c 257
 956 73 l 257
 956 66 907 30 907 30 c 257
 974 30 l 257
 974 5 l 257
 914 -35 l 257
 972 -35 l 257
 972 -60 l 257
 960 -73 943 -90 943 -133 c 256
 943 -172 964 -195 980 -195 c 257
 980 -223 l 257
 977 -224 973 -224 969 -224 c 256
 914 -224 860 -185 860 -141 c 256
 860 -103 888 -73 918 -60 c 257
 863 -60 l 257
 863 -39 l 257
 886 -25 907 -9 931 4 c 257
 929 4 877 4 877 4 c 257
 860 -10 829 -52 829 -105 c 256
 829 -153 848 -189 866 -196 c 257
 866 -223 l 257
 862 -224 852 -225 847 -225 c 256
 786 -225 740 -193 740 -129 c 256
 740 -77 778 -40 824 1 c 257
 816 -1 814 -1 787 -1 c 256
 659 -1 589 67 589 165 c 256
298 262 m 257
 281 248 265 229 250 207 c 256
 224 168 221 160 211 140 c 257
 223 150 234 156 248 156 c 256
 279 156 290 137 329 137 c 256
 374 137 396 153 396 209 c 256
 396 211 396 209 396 211 c 257
 423 211 l 257
 423 210 423 211 423 210 c 256
 423 150 446 137 490 137 c 256
 530 137 555 165 555 199 c 256
 555 240 515 280 416 280 c 256
 361 280 322 274 298 262 c 257
143 21 m 257
 151 89 195 180 229 227 c 256
 254 262 267 274 289 297 c 257
 298 307 309 323 309 344 c 256
 309 363 299 377 276 377 c 256
 262 377 247 369 243 354 c 256
 237 333 241 334 232 315 c 256
 224 298 207 290 192 290 c 256
 156 290 150 320 150 332 c 256
 150 385 200 423 255 423 c 256
 306 423 337 390 337 350 c 256
 337 344 337 341 336 333 c 257
 371 360 417 387 480 407 c 256
 545 428 618 432 660 432 c 256
 743 432 787 423 808 417 c 257
 801 416 717 401 705 400 c 257
 690 401 670 402 658 402 c 256
 601 402 552 394 524 388 c 256
 439 369 378 329 337 299 c 257
 365 305 393 307 420 307 c 256
 537 307 625 244 625 123 c 256
 625 66 593 -1 510 -1 c 256
 465 -1 432 20 411 62 c 257
 394 22 362 -1 321 -1 c 256
 236 -1 239 71 207 71 c 256
 185 71 173 50 170 11 c 257
 143 21 l 257
26 216 m 260
 26 345 97 424 233 424 c 256
 242 424 265 424 286 418 c 257
 265 407 191 395 174 389 c 257
 104 372 58 312 58 213 c 256
 58 134 84 76 132 33 c 257
 132 0 l 257
 67 32 26 117 26 216 c 260
EndSplineSet
Validated: 5
EndChar

StartChar: zwj
Encoding: 82 8205 5
GlifName: zwj
Width: 0
VWidth: 0
GlyphClass: 2
Flags: HW
LayerCount: 2
Fore
SplineSet
54 640 m 257
 176 520 l 257
 121 466 l 257
 39 548 l 257
 39 -10 l 257
 -39 -10 l 257
 -39 548 l 257
 -121 466 l 257
 -176 520 l 257
 -54 640 l 257
 -176 758 l 257
 -121 812 l 257
 0 691 l 257
 121 812 l 257
 176 758 l 257
 54 640 l 257
EndSplineSet
Validated: 1
EndChar

StartChar: zwnj
Encoding: 81 8204 6
GlifName: zwnj
Width: 0
VWidth: 0
GlyphClass: 2
Flags: HW
LayerCount: 2
Fore
SplineSet
-39 -10 m 257
 -39 762 l 257
 39 762 l 257
 39 -10 l 257
 -39 -10 l 257
EndSplineSet
Validated: 1
EndChar

StartChar: si_B.halant
Encoding: 326 -1 7
GlifName: si_B_.halant
Width: 604
VWidth: 0
GlyphClass: 2
Flags: HW
LayerCount: 2
Fore
SplineSet
99 74 m 256
 99 49 121 26 146 26 c 256
 171 26 194 49 194 74 c 256
 194 99 171 122 146 122 c 256
 121 122 99 99 99 74 c 256
139 525 m 256
 139 515 157 512 157 503 c 256
 157 501 156 498 154 496 c 257
 186 502 226 507 271 507 c 256
 376 507 466 474 513 412 c 257
 482 514 395 561 287 561 c 256
 213 561 139 547 139 525 c 256
32 183 m 256
 32 307 117 387 241 387 c 256
 321 387 394 343 394 266 c 256
 394 145 285 178 285 122 c 256
 285 108 299 102 327 102 c 256
 427 102 486 223 486 321 c 256
 486 429 401 480 263 480 c 256
 228 480 193 477 158 470 c 256
 119 462 81 449 39 430 c 257
 39 462 l 257
 70 474 119 487 119 496 c 256
 119 507 91 511 91 532 c 256
 91 569 156 614 270 614 c 256
 473 614 542 479 554 348 c 256
 557 335 562 293 562 261 c 256
 561 135 505 -2 372 -2 c 256
 306 -2 253 37 253 110 c 256
 253 182 322 166 322 227 c 256
 322 258 274 270 231 270 c 256
 145 270 68 222 68 128 c 256
 68 114 71 97 75 89 c 257
 79 123 106 149 146 149 c 256
 188 149 224 116 224 75 c 256
 224 28 185 -1 146 -1 c 256
 66 -1 32 89 32 183 c 256
EndSplineSet
Validated: 1
EndChar

StartChar: si_BI
Encoding: 327 -1 8
GlifName: si_B_I_
Width: 604
VWidth: 0
GlyphClass: 2
Flags: HW
LayerCount: 2
Fore
SplineSet
65 549 m 256
 65 637 192 654 290 654 c 256
 423 654 531 624 531 541 c 256
 531 490 478 469 445 463 c 257
 396 479 l 257
 431 480 457 493 457 515 c 256
 457 551 395 567 290 567 c 256
 216 567 122 559 122 525 c 256
 122 499 169 496 269 492 c 256
 332 490 424 487 478 448 c 256
 526 413 562 349 562 275 c 257
 489 318 l 257
 489 348 484 389 457 416 c 256
 416 457 369 459 270 465 c 256
 183 470 65 465 65 549 c 256
100 74 m 256
 100 49 121 28 146 28 c 256
 171 28 193 49 193 74 c 256
 193 99 171 121 146 121 c 256
 121 121 100 99 100 74 c 256
32 183 m 256
 32 307 121 387 233 387 c 256
 323 387 395 346 395 260 c 256
 395 156 285 171 285 124 c 256
 285 105 309 102 325 102 c 256
 421 102 489 221 489 323 c 257
 506 308 535 316 562 277 c 257
 562 138 506 -2 372 -2 c 256
 295 -2 253 48 253 106 c 256
 253 185 323 168 323 225 c 256
 323 246 301 269 231 269 c 256
 142 269 68 217 68 135 c 256
 68 127 70 102 75 89 c 257
 79 123 106 149 146 149 c 256
 188 149 224 116 224 75 c 256
 224 28 185 -1 146 -1 c 256
 66 -1 32 89 32 183 c 256
EndSplineSet
Validated: 5
EndChar

StartChar: si_BIi
Encoding: 328 -1 9
GlifName: si_B_I_i
Width: 604
VWidth: 0
GlyphClass: 2
Flags: HW
LayerCount: 2
Fore
SplineSet
383 526 m 256
 383 497 409 474 441 474 c 256
 473 474 499 497 499 526 c 256
 499 555 473 578 441 578 c 256
 409 578 383 555 383 526 c 256
65 549 m 256
 65 637 193 654 291 654 c 256
 424 654 531 625 531 529 c 256
 531 477 484 447 441 447 c 256
 398 447 351 477 351 529 c 256
 351 552 361 565 365 570 c 257
 357 572 325 575 289 575 c 256
 215 575 119 566 119 527 c 256
 119 499 169 496 269 492 c 256
 332 490 424 487 478 448 c 256
 526 413 562 346 562 267 c 257
 489 316 l 257
 489 342 486 379 459 410 c 256
 416 459 369 459 270 465 c 256
 183 470 65 465 65 549 c 256
100 74 m 256
 100 49 121 28 146 28 c 256
 171 28 193 49 193 74 c 256
 193 99 171 121 146 121 c 256
 121 121 100 99 100 74 c 256
32 183 m 256
 32 307 121 387 233 387 c 256
 323 387 395 346 395 260 c 256
 395 156 285 171 285 124 c 256
 285 105 309 102 325 102 c 256
 421 102 489 221 489 323 c 257
 506 308 535 310 562 271 c 257
 562 138 506 -2 372 -2 c 256
 295 -2 253 48 253 106 c 256
 253 185 323 168 323 225 c 256
 323 246 301 269 231 269 c 256
 142 269 68 217 68 135 c 256
 68 127 70 102 75 89 c 257
 79 123 106 149 146 149 c 256
 188 149 224 116 224 75 c 256
 224 28 185 -1 146 -1 c 256
 66 -1 32 89 32 183 c 256
EndSplineSet
Validated: 5
EndChar

StartChar: si_BRI
Encoding: 334 -1 10
GlifName: si_B_R_I_
Width: 604
VWidth: 0
GlyphClass: 2
Flags: HW
LayerCount: 2
Fore
SplineSet
57 -43 m 257
 86 -43 l 257
 123 -85 175 -112 278 -112 c 256
 418 -112 523 -30 523 62 c 256
 523 77 521 89 516 100 c 257
 529 130 l 257
 547 104 555 73 555 37 c 256
 555 -121 434 -214 293 -214 c 256
 171 -214 93 -150 57 -43 c 257
EndSplineSet
Refer: 8 -1 N 1 0 0 1 0 0 2
Validated: 5
EndChar

StartChar: si_BRIi
Encoding: 335 -1 11
GlifName: si_B_R_I_i
Width: 604
VWidth: 0
GlyphClass: 2
Flags: HW
LayerCount: 2
Fore
SplineSet
57 -43 m 257
 86 -43 l 257
 123 -85 175 -112 278 -112 c 256
 418 -112 523 -30 523 62 c 256
 523 77 521 89 516 100 c 257
 529 130 l 257
 547 104 555 73 555 37 c 256
 555 -121 434 -214 293 -214 c 256
 171 -214 93 -150 57 -43 c 257
EndSplineSet
Refer: 9 -1 N 1 0 0 1 0 0 2
Validated: 5
EndChar

StartChar: si_BRa
Encoding: 333 -1 12
GlifName: si_B_R_a
Width: 604
VWidth: 0
GlyphClass: 2
Flags: HW
LayerCount: 2
Fore
SplineSet
57 -43 m 261
 86 -43 l 261
 123 -85 175 -112 278 -112 c 260
 418 -112 523 -30 523 62 c 260
 523 77 521 89 516 100 c 261
 529 130 l 261
 547 104 555 73 555 37 c 260
 555 -121 434 -214 293 -214 c 260
 171 -214 93 -150 57 -43 c 261
EndSplineSet
Refer: 464 3510 N 1 0 0 1 0 0 2
Validated: 5
EndChar

StartChar: si_BU
Encoding: 329 -1 13
GlifName: si_B_U_
Width: 604
VWidth: 0
GlyphClass: 2
Flags: HW
LayerCount: 2
Fore
SplineSet
48 -139 m 256
 48 -88 93 -49 147 -49 c 256
 188 -49 225 -72 239 -107 c 257
 207 -119 l 257
 200 -102 179 -80 147 -80 c 256
 111 -80 83 -107 83 -139 c 256
 83 -167 104 -188 172 -188 c 258
 518 -188 l 257
 518 125 l 257
 552 214 l 257
 552 -229 l 257
 151 -229 l 258
 73 -229 48 -182 48 -139 c 256
EndSplineSet
Refer: 464 3510 N 1 0 0 1 0 0 2
Validated: 5
EndChar

StartChar: si_BUu
Encoding: 330 -1 14
GlifName: si_B_U_u
Width: 604
VWidth: 0
GlyphClass: 2
Flags: HW
LayerCount: 2
Fore
SplineSet
48 -135 m 256
 48 -78 96 -39 148 -39 c 256
 189 -39 220 -54 242 -89 c 257
 210 -100 l 257
 199 -83 181 -68 153 -68 c 256
 115 -68 90 -93 90 -117 c 256
 90 -148 119 -163 152 -163 c 256
 226 -163 292 -112 397 -112 c 256
 447 -112 492 -131 518 -162 c 257
 518 148 l 257
 552 207 l 257
 552 -226 l 257
 527 -226 l 257
 512 -191 467 -143 406 -143 c 256
 317 -143 252 -231 156 -231 c 256
 102 -231 48 -201 48 -135 c 256
EndSplineSet
Refer: 464 3510 N 1 0 0 1 0 0 2
Validated: 5
EndChar

StartChar: si_Bh.halant
Encoding: 336 -1 16
GlifName: si_B_h.halant
Width: 654
VWidth: 0
GlyphClass: 2
Flags: HW
LayerCount: 2
Fore
SplineSet
456 388 m 257
 456 665 l 257
 509 624 604 619 604 529 c 256
 604 486 569 457 527 457 c 256
 513 457 498 460 483 467 c 257
 483 375 l 257
 456 388 l 257
484 492 m 257
 492 488 502 486 515 486 c 256
 546 486 560 510 560 533 c 256
 560 573 529 592 484 622 c 257
 484 492 l 257
EndSplineSet
Refer: 465 3511 N 1 0 0 1 0 0 2
Validated: 5
EndChar

StartChar: si_BhI
Encoding: 337 -1 17
GlifName: si_B_hI_
Width: 654
VWidth: 0
GlyphClass: 2
Flags: HW
LayerCount: 2
Fore
SplineSet
174 524 m 256
 174 613 270 651 370 651 c 256
 473 651 573 604 573 511 c 256
 573 450 535 403 456 397 c 257
 439 421 l 257
 442 421 444 421 447 421 c 256
 504 421 532 455 532 486 c 256
 532 539 455 553 377 553 c 256
 297 553 243 525 243 491 c 256
 243 443 345 421 429 421 c 256
 430 421 430 421 431 421 c 257
 415 398 l 257
 259 401 174 451 174 524 c 256
EndSplineSet
Refer: 465 3511 N 1 0 0 1 0 0 2
Validated: 5
EndChar

StartChar: si_BhIi
Encoding: 338 -1 18
GlifName: si_B_hI_i
Width: 654
VWidth: 0
GlyphClass: 2
Flags: HW
LayerCount: 2
Fore
SplineSet
412 508 m 256
 412 476 441 449 477 449 c 256
 513 449 542 476 542 508 c 256
 542 540 513 566 477 566 c 256
 441 566 412 540 412 508 c 256
174 524 m 256
 174 613 270 651 370 651 c 256
 473 651 573 604 573 513 c 256
 573 446 518 421 477 421 c 256
 432 421 380 453 380 508 c 256
 380 527 387 542 394 553 c 257
 388 553 383 553 377 553 c 256
 297 553 243 525 243 491 c 256
 243 443 345 421 429 421 c 256
 430 421 430 421 431 421 c 257
 415 396 l 257
 259 399 174 451 174 524 c 256
EndSplineSet
Refer: 465 3511 N 1 0 0 1 0 0 2
Validated: 5
EndChar

StartChar: si_BhRI
Encoding: 344 -1 19
GlifName: si_B_hR_I_
Width: 654
VWidth: 0
GlyphClass: 2
Flags: HW
LayerCount: 2
Fore
SplineSet
74 -43 m 257
 103 -43 l 257
 136 -91 190 -111 301 -111 c 256
 449 -111 558 -30 558 62 c 256
 558 77 556 89 549 100 c 257
 561 130 l 257
 579 104 588 73 588 37 c 256
 588 -121 471 -214 323 -214 c 256
 186 -214 110 -150 74 -43 c 257
EndSplineSet
Refer: 17 -1 N 1 0 0 1 0 0 2
Validated: 5
EndChar

StartChar: si_BhRIi
Encoding: 345 -1 20
GlifName: si_B_hR_I_i
Width: 654
VWidth: 0
GlyphClass: 2
Flags: HW
LayerCount: 2
Fore
SplineSet
412 508 m 256
 412 476 441 449 477 449 c 256
 513 449 542 476 542 508 c 256
 542 540 513 566 477 566 c 256
 441 566 412 540 412 508 c 256
174 524 m 256
 174 613 270 651 370 651 c 256
 473 651 573 604 573 513 c 256
 573 446 518 421 477 421 c 256
 432 421 380 453 380 508 c 256
 380 527 387 542 394 553 c 257
 388 553 383 553 377 553 c 256
 297 553 243 525 243 491 c 256
 243 443 345 421 429 421 c 256
 430 421 430 421 431 421 c 257
 415 396 l 257
 259 399 174 451 174 524 c 256
74 -43 m 257
 103 -43 l 257
 136 -91 190 -111 301 -111 c 256
 449 -111 558 -30 558 62 c 256
 558 77 556 89 549 100 c 257
 561 130 l 257
 579 104 588 73 588 37 c 256
 588 -121 471 -214 323 -214 c 256
 186 -214 110 -150 74 -43 c 257
EndSplineSet
Refer: 465 3511 N 1 0 0 1 0 0 2
Validated: 5
EndChar

StartChar: si_BhRa
Encoding: 343 -1 21
GlifName: si_B_hR_a
Width: 654
VWidth: 0
GlyphClass: 2
Flags: HW
LayerCount: 2
Fore
SplineSet
74 -43 m 261
 103 -43 l 261
 136 -91 190 -111 301 -111 c 260
 449 -111 558 -30 558 62 c 260
 558 77 556 89 549 100 c 261
 561 130 l 261
 579 104 588 73 588 37 c 260
 588 -121 471 -214 323 -214 c 260
 186 -214 110 -150 74 -43 c 261
EndSplineSet
Refer: 465 3511 N 1 0 0 1 0 0 2
Validated: 5
EndChar

StartChar: si_BhU
Encoding: 339 -1 22
GlifName: si_B_hU_
Width: 654
VWidth: 0
GlyphClass: 2
Flags: HW
LayerCount: 2
Fore
SplineSet
6 265 m 257
 6 296 l 257
 207 296 l 257
 167 271 l 257
 137 271 l 258
 68 270 22 268 6 265 c 257
48 355 m 256
 48 385 76 422 131 422 c 256
 208 422 249 352 249 270 c 257
 238 271 227 272 216 272 c 256
 146 272 107 239 107 204 c 256
 107 152 169 136 222 136 c 256
 259 136 326 149 326 186 c 256
 326 204 316 210 305 210 c 256
 291 210 280 203 273 182 c 257
 249 190 l 257
 258 312 337 422 436 422 c 256
 545 422 606 321 606 206 c 256
 606 90 526 -1 441 -1 c 256
 421 -1 410 -4 402 -7 c 257
 391 22 l 257
 405 28 418 29 429 31 c 256
 485 43 501 109 501 162 c 256
 501 224 469 307 381 307 c 256
 308 307 291 257 282 229 c 257
 292 234 300 236 309 236 c 256
 349 236 373 195 373 142 c 256
 373 52 304 -1 212 -1 c 256
 117 -1 48 59 48 151 c 256
 48 240 134 296 208 296 c 256
 211 296 212 296 215 296 c 257
 215 334 191 369 164 369 c 256
 149 369 136 365 127 344 c 256
 119 325 104 315 88 315 c 256
 67 315 48 328 48 355 c 256
331 -70 m 256
 331 -22 356 8 394 23 c 257
 406 -5 l 257
 391 -11 377 -25 377 -47 c 256
 377 -83 419 -103 469 -103 c 256
 529 -103 574 -81 574 -44 c 256
 574 -41 574 -38 574 -35 c 257
 603 -35 l 257
 605 -44 605 -59 605 -68 c 256
 605 -119 562 -187 464 -187 c 256
 398 -187 331 -155 331 -70 c 256
EndSplineSet
Validated: 5
EndChar

StartChar: si_BhUu
Encoding: 340 -1 23
GlifName: si_B_hU_u
Width: 654
VWidth: 0
GlyphClass: 2
Flags: HW
LayerCount: 2
Fore
SplineSet
364 -126 m 256
 364 -91 393 -70 427 -65 c 257
 373 -38 l 257
 456 -14 l 257
 361 2 l 257
 420 15 l 257
 541 -6 l 257
 434 -42 l 257
 493 -74 l 257
 466 -81 413 -81 413 -102 c 256
 413 -118 444 -126 485 -126 c 256
 538 -126 581 -110 581 -80 c 256
 581 -75 580 -66 575 -58 c 257
 609 -58 l 257
 613 -70 614 -81 614 -92 c 256
 614 -157 563 -200 483 -200 c 256
 426 -200 364 -183 364 -126 c 256
EndSplineSet
Refer: 465 3511 N 1 0 0 1 0 0 2
Validated: 5
EndChar

StartChar: si_Bha.reph
Encoding: 341 -1 24
GlifName: si_B_ha.reph
Width: 654
VWidth: 0
GlyphClass: 2
Flags: HW
LayerCount: 2
Fore
SplineSet
290 499 m 256
 290 479 308 463 329 463 c 256
 350 463 368 479 368 499 c 256
 368 519 350 535 329 535 c 256
 308 535 290 519 290 499 c 256
189 518 m 256
 189 580 246 616 326 616 c 256
 401 616 464 574 464 505 c 256
 464 482 455 460 439 441 c 257
 405 441 l 257
 418 453 433 477 433 504 c 256
 433 557 385 588 325 588 c 256
 273 588 221 567 221 518 c 256
 221 480 264 462 281 460 c 257
 273 466 263 479 263 500 c 256
 263 534 293 559 328 559 c 256
 368 559 396 532 396 498 c 256
 396 460 362 435 305 435 c 256
 247 435 189 463 189 518 c 256
EndSplineSet
Refer: 465 3511 N 1 0 0 1 0 0 2
Validated: 5
EndChar

StartChar: si_C.halant
Encoding: 136 -1 25
GlifName: si_C_.halant
Width: 606
VWidth: 0
GlyphClass: 2
Flags: HW
LayerCount: 2
Fore
SplineSet
141 525 m 256
 141 513 159 514 159 503 c 256
 159 501 158 498 156 496 c 257
 188 502 227 507 272 507 c 256
 377 507 458 477 512 415 c 257
 480 523 390 561 277 561 c 256
 207 561 141 544 141 525 c 256
41 430 m 257
 41 462 l 257
 72 474 121 487 121 496 c 256
 121 508 93 508 93 533 c 256
 93 569 159 614 271 614 c 256
 474 614 544 479 556 348 c 257
 563 319 564 283 564 267 c 257
 505 308 l 257
 505 316 505 312 505 316 c 256
 505 395 435 480 270 480 c 256
 196 480 120 467 41 430 c 257
62 161 m 256
 62 191 72 222 95 242 c 256
 111 256 129 266 154 271 c 257
 187 283 228 295 264 295 c 258
 277 295 l 257
 277 297 277 299 277 301 c 256
 277 350 246 380 215 380 c 256
 182 380 169 363 164 347 c 256
 158 328 146 312 118 312 c 256
 98 312 81 326 81 351 c 256
 81 397 130 421 184 421 c 256
 270 421 312 367 312 283 c 256
 312 280 312 271 312 268 c 257
 265 268 l 258
 211 268 179 260 157 248 c 256
 129 234 125 215 125 202 c 256
 125 154 203 137 291 137 c 256
 440 137 505 212 505 312 c 257
 519 292 539 298 564 270 c 257
 564 111 467 0 288 0 c 256
 170 0 62 45 62 161 c 256
13 261 m 257
 13 295 l 257
 275 295 l 257
 308 268 l 257
 145 268 l 258
 76 267 29 264 13 261 c 257
EndSplineSet
Validated: 5
EndChar

StartChar: si_CI
Encoding: 137 -1 26
GlifName: si_C_I_
Width: 606
VWidth: 0
GlyphClass: 2
Flags: HW
LayerCount: 2
Fore
SplineSet
71 549 m 256
 71 637 195 654 293 654 c 256
 426 654 533 624 533 541 c 256
 533 490 481 469 448 463 c 257
 399 479 l 257
 434 480 460 493 460 515 c 256
 460 551 398 567 293 567 c 256
 219 567 129 559 129 525 c 256
 129 499 172 496 272 492 c 256
 335 490 427 487 481 448 c 256
 529 413 564 348 564 268 c 257
 505 318 l 257
 505 328 504 376 478 407 c 256
 435 459 372 459 273 465 c 256
 186 470 71 465 71 549 c 256
62 161 m 256
 62 191 72 222 95 242 c 256
 111 256 129 266 154 271 c 257
 187 283 228 295 264 295 c 258
 277 295 l 257
 277 297 277 299 277 301 c 256
 277 350 246 380 215 380 c 256
 182 380 169 363 164 347 c 256
 158 328 146 312 118 312 c 256
 98 312 81 326 81 351 c 256
 81 397 130 421 184 421 c 256
 270 421 312 367 312 283 c 256
 312 280 312 271 312 268 c 257
 265 268 l 258
 211 268 179 260 157 248 c 256
 129 234 125 215 125 202 c 256
 125 154 203 137 291 137 c 256
 440 137 505 213 505 321 c 257
 519 301 539 298 564 270 c 257
 564 111 467 0 288 0 c 256
 170 0 62 45 62 161 c 256
13 261 m 257
 13 295 l 257
 275 295 l 257
 308 268 l 257
 145 268 l 258
 76 267 29 264 13 261 c 257
EndSplineSet
Validated: 5
EndChar

StartChar: si_CIi
Encoding: 138 -1 27
GlifName: si_C_I_i
Width: 606
VWidth: 0
GlyphClass: 2
Flags: HW
LayerCount: 2
Fore
SplineSet
385 526 m 256
 385 497 411 474 443 474 c 256
 475 474 501 497 501 526 c 256
 501 555 475 578 443 578 c 256
 411 578 385 555 385 526 c 256
72 549 m 256
 72 637 194 654 292 654 c 256
 425 654 533 625 533 529 c 256
 533 477 486 447 443 447 c 256
 400 447 353 477 353 529 c 256
 353 552 363 565 367 570 c 257
 359 572 327 575 291 575 c 256
 217 575 125 566 125 527 c 256
 125 499 171 496 271 492 c 256
 334 490 426 487 480 448 c 256
 528 413 564 348 564 268 c 257
 505 314 l 257
 505 340 504 375 477 407 c 256
 434 459 371 459 272 465 c 256
 185 470 72 465 72 549 c 256
62 161 m 256
 62 191 72 222 95 242 c 256
 111 256 129 266 154 271 c 257
 187 283 228 295 264 295 c 258
 277 295 l 257
 277 297 277 299 277 301 c 256
 277 350 246 380 215 380 c 256
 182 380 169 363 164 347 c 256
 158 328 146 312 118 312 c 256
 98 312 81 326 81 351 c 256
 81 397 130 421 184 421 c 256
 270 421 312 367 312 283 c 256
 312 280 312 271 312 268 c 257
 265 268 l 258
 211 268 179 260 157 248 c 256
 129 234 125 215 125 202 c 256
 125 154 203 137 291 137 c 256
 440 137 505 213 505 321 c 257
 519 301 539 298 564 270 c 257
 564 111 467 0 288 0 c 256
 170 0 62 45 62 161 c 256
13 261 m 257
 13 295 l 257
 275 295 l 257
 308 268 l 257
 145 268 l 258
 76 267 29 264 13 261 c 257
EndSplineSet
Validated: 5
EndChar

StartChar: si_CRI
Encoding: 144 -1 28
GlifName: si_C_R_I_
Width: 583
VWidth: 0
GlyphClass: 2
Flags: HW
LayerCount: 2
Fore
SplineSet
45 -43 m 257
 74 -43 l 257
 111 -85 162 -112 265 -112 c 256
 405 -112 505 -30 505 62 c 256
 505 77 500 97 490 107 c 257
 506 137 l 257
 527 113 538 73 538 37 c 256
 538 -121 421 -214 280 -214 c 256
 157 -214 81 -150 45 -43 c 257
EndSplineSet
Refer: 26 -1 N 1 0 0 1 0 0 2
Validated: 5
EndChar

StartChar: si_CRIi
Encoding: 145 -1 29
GlifName: si_C_R_I_i
Width: 583
VWidth: 0
GlyphClass: 2
Flags: HW
LayerCount: 2
Fore
SplineSet
45 -43 m 257
 74 -43 l 257
 111 -85 162 -112 265 -112 c 256
 405 -112 505 -30 505 62 c 256
 505 77 500 97 490 107 c 257
 506 137 l 257
 527 113 538 73 538 37 c 256
 538 -121 421 -214 280 -214 c 256
 157 -214 81 -150 45 -43 c 257
EndSplineSet
Refer: 27 -1 N 1 0 0 1 0 0 2
Validated: 5
EndChar

StartChar: si_CRa
Encoding: 143 -1 30
GlifName: si_C_R_a
Width: 583
VWidth: 0
GlyphClass: 2
Flags: HW
LayerCount: 2
Fore
SplineSet
45 -43 m 261
 74 -43 l 261
 111 -85 162 -112 265 -112 c 260
 405 -112 505 -30 505 62 c 260
 505 77 500 97 490 107 c 261
 506 137 l 261
 527 113 538 73 538 37 c 260
 538 -121 421 -214 280 -214 c 260
 157 -214 81 -150 45 -43 c 261
EndSplineSet
Refer: 443 3488 N 1 0 0 1 0 0 2
Validated: 5
EndChar

StartChar: si_CU
Encoding: 139 -1 31
GlifName: si_C_U_
Width: 583
VWidth: 0
GlyphClass: 2
Flags: HW
LayerCount: 2
Fore
SplineSet
69 -139 m 256
 69 -88 114 -49 168 -49 c 256
 209 -49 246 -72 260 -107 c 257
 228 -119 l 257
 221 -102 200 -80 168 -80 c 256
 132 -80 104 -107 104 -139 c 256
 104 -167 125 -188 193 -188 c 258
 516 -188 l 257
 516 125 l 257
 551 214 l 257
 551 -229 l 257
 172 -229 l 258
 94 -229 69 -182 69 -139 c 256
EndSplineSet
Refer: 443 3488 N 1 0 0 1 0 0 2
Validated: 5
EndChar

StartChar: si_CUu
Encoding: 140 -1 32
GlifName: si_C_U_u
Width: 583
VWidth: 0
GlyphClass: 2
Flags: HW
LayerCount: 2
Fore
SplineSet
69 -135 m 256
 69 -78 116 -39 168 -39 c 256
 209 -39 241 -54 263 -89 c 257
 231 -100 l 257
 220 -83 201 -68 173 -68 c 256
 135 -68 111 -93 111 -117 c 256
 111 -148 139 -163 172 -163 c 256
 246 -163 312 -112 404 -112 c 256
 454 -112 493 -131 519 -162 c 257
 519 148 l 257
 553 207 l 257
 553 -226 l 257
 528 -226 l 257
 513 -191 474 -143 413 -143 c 256
 329 -143 273 -231 177 -231 c 256
 123 -231 69 -201 69 -135 c 256
EndSplineSet
Refer: 443 3488 N 1 0 0 1 0 0 2
Validated: 5
EndChar

StartChar: si_Ca.reph
Encoding: 141 -1 33
GlifName: si_C_a.reph
Width: 583
VWidth: 0
GlyphClass: 2
Flags: HW
LayerCount: 2
Fore
SplineSet
268 604 m 256
 268 584 286 569 307 569 c 256
 328 569 346 584 346 604 c 256
 346 624 328 640 307 640 c 256
 286 640 268 624 268 604 c 256
167 623 m 256
 167 685 224 722 304 722 c 256
 379 722 442 679 442 610 c 256
 442 587 433 566 417 547 c 257
 383 547 l 257
 396 559 411 582 411 609 c 256
 411 662 363 694 303 694 c 256
 251 694 199 672 199 623 c 256
 199 585 242 568 259 566 c 257
 251 572 241 584 241 605 c 256
 241 639 271 664 306 664 c 256
 346 664 374 638 374 604 c 256
 374 566 340 540 283 540 c 256
 225 540 167 568 167 623 c 256
EndSplineSet
Refer: 443 3488 N 1 0 0 1 0 0 2
Validated: 5
EndChar

StartChar: si_Ch.halant
Encoding: 146 -1 34
GlifName: si_C_h.halant
Width: 583
VWidth: 0
GlyphClass: 2
Flags: HW
LayerCount: 2
Fore
SplineSet
279 328 m 257
 279 739 l 257
 332 698 427 693 427 603 c 256
 427 560 393 531 351 531 c 256
 337 531 322 534 307 541 c 257
 307 391 l 257
 279 328 l 257
307 566 m 257
 315 562 326 559 339 559 c 256
 370 559 383 583 383 606 c 256
 383 646 352 665 307 695 c 257
 307 566 l 257
EndSplineSet
Refer: 444 3489 N 1 0 0 1 0 0 2
Validated: 5
EndChar

StartChar: si_ChI
Encoding: 147 -1 35
GlifName: si_C_hI_
Width: 583
VWidth: 0
GlyphClass: 2
Flags: HW
LayerCount: 2
Fore
SplineSet
228 478 m 256
 228 563 296 642 373 642 c 256
 419 642 450 611 450 569 c 256
 450 565 449 563 449 559 c 257
 420 531 l 257
 422 536 425 551 425 562 c 256
 425 585 413 595 396 595 c 256
 340 595 288 534 288 471 c 256
 288 440 302 421 332 421 c 256
 341 421 349 421 365 426 c 257
 361 415 l 257
 348 407 321 398 319 397 c 257
 318 397 316 397 315 397 c 256
 254 397 228 429 228 478 c 256
EndSplineSet
Refer: 444 3489 N 1 0 0 1 0 0 2
Validated: 5
EndChar

StartChar: si_ChIi
Encoding: 148 -1 36
GlifName: si_C_hI_i
Width: 583
VWidth: 0
GlyphClass: 2
Flags: HW
LayerCount: 2
Fore
SplineSet
331 565 m 256
 331 539 351 519 377 519 c 256
 403 519 424 539 424 565 c 256
 424 591 403 612 377 612 c 256
 351 612 331 591 331 565 c 256
228 478 m 256
 228 563 296 641 378 641 c 256
 422 641 453 605 453 565 c 256
 453 527 424 490 378 490 c 256
 331 490 307 530 307 545 c 256
 307 545 307 546 307 547 c 257
 296 528 288 504 288 477 c 256
 288 442 310 419 335 419 c 256
 344 419 356 421 364 426 c 257
 361 415 l 257
 348 407 321 398 319 397 c 257
 318 397 316 397 315 397 c 256
 254 397 228 429 228 478 c 256
EndSplineSet
Refer: 444 3489 N 1 0 0 1 0 0 2
Validated: 5
EndChar

StartChar: si_ChU
Encoding: 149 -1 37
GlifName: si_C_hU_
Width: 583
VWidth: 0
GlyphClass: 2
Flags: HW
LayerCount: 2
Back
SplineSet
38 -139 m 260
 38 -88 83 -49 137 -49 c 260
 178 -49 215 -72 229 -107 c 261
 197 -119 l 261
 190 -102 169 -80 137 -80 c 260
 101 -80 73 -107 73 -139 c 260
 73 -167 94 -188 162 -188 c 262
 493 -188 l 261
 493 125 l 261
 528 202 l 261
 528 -229 l 261
 141 -229 l 262
 63 -229 38 -182 38 -139 c 260
EndSplineSet
Refer: 444 3489 S 1 0 0 1 0 0 2
Fore
SplineSet
38 -139 m 260
 38 -88 83 -49 137 -49 c 260
 178 -49 215 -72 229 -107 c 261
 197 -119 l 261
 190 -102 169 -80 137 -80 c 260
 101 -80 73 -107 73 -139 c 260
 73 -167 94 -188 162 -188 c 262
 493 -188 l 261
 493 125 l 261
 528 202 l 261
 528 -229 l 261
 141 -229 l 262
 63 -229 38 -182 38 -139 c 260
EndSplineSet
Refer: 444 3489 S 1 0 0 1 0 0 2
Validated: 5
EndChar

StartChar: si_ChUu
Encoding: 150 -1 38
GlifName: si_C_hU_u
Width: 583
VWidth: 0
GlyphClass: 2
Flags: HW
LayerCount: 2
Fore
SplineSet
38 -135 m 256
 38 -78 86 -39 138 -39 c 256
 179 -39 210 -54 232 -89 c 257
 200 -100 l 257
 189 -83 171 -68 143 -68 c 256
 105 -68 80 -93 80 -117 c 256
 80 -148 109 -163 142 -163 c 256
 216 -163 270 -112 375 -112 c 256
 425 -112 468 -131 494 -162 c 257
 494 148 l 257
 528 207 l 257
 528 -226 l 257
 503 -226 l 257
 488 -191 446 -143 385 -143 c 256
 296 -143 242 -231 146 -231 c 256
 92 -231 38 -201 38 -135 c 256
EndSplineSet
Refer: 444 3489 N 1 0 0 1 0 0 2
Validated: 5
EndChar

StartChar: si_D.halant
Encoding: 263 -1 39
GlifName: si_D_.halant
Width: 445
VWidth: 0
GlyphClass: 2
Flags: HW
LayerCount: 2
Fore
SplineSet
257 403 m 261
 257 665 l 261
 310 624 405 619 405 529 c 260
 405 486 370 457 328 457 c 260
 314 457 299 460 284 467 c 261
 284 387 l 261
 257 403 l 261
285 492 m 261
 293 488 303 486 316 486 c 260
 347 486 361 510 361 533 c 260
 361 573 330 592 285 622 c 261
 285 492 l 261
EndSplineSet
Refer: 458 3503 N 1 0 0 1 0 0 2
Validated: 5
EndChar

StartChar: si_DAa
Encoding: 264 -1 40
GlifName: si_D_A_a
Width: 445
VWidth: 0
GlyphClass: 2
Flags: HW
LayerCount: 2
Fore
SplineSet
30 165 m 256
 30 268 102 310 218 310 c 258
 332 310 l 257
 323 355 294 381 262 381 c 256
 243 381 229 370 221 353 c 256
 211 332 194 325 175 325 c 256
 151 325 133 341 133 362 c 256
 133 397 173 423 227 423 c 256
 311 423 353 379 370 284 c 257
 310 284 l 258
 224 284 180 251 180 169 c 256
 180 87 231 43 279 43 c 256
 309 43 333 47 372 92 c 257
 403 73 l 257
 383 57 367 40 352 32 c 257
 355 33 354 33 358 33 c 256
 405 33 437 -17 437 -85 c 256
 437 -171 400 -208 334 -208 c 256
 286 -208 269 -183 269 -162 c 257
 302 -162 l 257
 302 -169 308 -172 316 -172 c 256
 340 -172 352 -148 352 -88 c 256
 352 -44 338 -17 320 -17 c 256
 303 -17 297 -29 297 -44 c 257
 265 -44 l 257
 265 -29 272 -8 283 2 c 257
 272 1 256 -1 229 -1 c 256
 101 -1 30 67 30 165 c 256
EndSplineSet
Validated: 1
EndChar

StartChar: si_DAa.halant
Encoding: 273 -1 41
GlifName: si_D_A_a.halant
Width: 641
VWidth: 0
GlyphClass: 2
Flags: HW
LayerCount: 2
Fore
SplineSet
113 165 m 256
 113 268 184 310 300 310 c 258
 415 310 l 257
 406 355 376 381 344 381 c 256
 325 381 311 370 303 353 c 256
 293 332 276 325 257 325 c 256
 233 325 215 341 215 362 c 256
 215 397 255 423 309 423 c 256
 393 423 435 379 452 284 c 257
 392 284 l 258
 306 284 262 251 262 169 c 256
 262 87 313 43 361 43 c 256
 391 43 415 47 454 92 c 257
 485 73 l 257
 465 57 450 40 435 32 c 257
 438 33 436 33 440 33 c 256
 487 33 519 -17 519 -85 c 256
 519 -171 482 -208 416 -208 c 256
 368 -208 351 -183 351 -162 c 257
 385 -162 l 257
 385 -169 391 -172 399 -172 c 256
 423 -172 434 -148 434 -88 c 256
 434 -44 421 -17 403 -17 c 256
 386 -17 379 -29 379 -44 c 257
 347 -44 l 257
 347 -29 354 -8 365 2 c 257
 354 1 338 -1 311 -1 c 256
 183 -1 113 67 113 165 c 256
490 -65 m 261
 490 665 l 261
 543 624 638 619 638 529 c 260
 638 486 604 457 562 457 c 260
 548 457 533 460 518 467 c 261
 518 -71 l 261
 490 -65 l 261
518 492 m 261
 526 488 537 486 550 486 c 260
 581 486 594 510 594 533 c 260
 594 573 563 592 518 622 c 261
 518 492 l 261
EndSplineSet
Validated: 5
EndChar

StartChar: si_DAae
Encoding: 266 -1 42
GlifName: si_D_A_ae
Width: 450
VWidth: 0
GlyphClass: 2
Flags: HW
LayerCount: 2
Fore
SplineSet
30 165 m 256
 30 268 102 310 218 310 c 258
 332 310 l 257
 323 355 294 381 262 381 c 256
 243 381 229 370 221 353 c 256
 211 332 194 325 175 325 c 256
 151 325 133 341 133 362 c 256
 133 397 173 423 227 423 c 256
 311 423 353 379 370 284 c 257
 310 284 l 258
 224 284 180 251 180 169 c 256
 180 87 231 43 279 43 c 256
 309 43 333 47 372 92 c 257
 397 73 l 257
 397 66 349 30 349 30 c 257
 416 30 l 257
 416 5 l 257
 355 -35 l 257
 414 -35 l 257
 414 -60 l 257
 402 -73 384 -90 384 -133 c 256
 384 -172 406 -195 422 -195 c 257
 422 -223 l 257
 419 -224 415 -224 411 -224 c 256
 356 -224 302 -185 302 -141 c 256
 302 -103 329 -73 359 -60 c 257
 305 -60 l 257
 305 -39 l 257
 328 -25 349 -9 373 4 c 257
 371 4 318 4 318 4 c 257
 301 -10 271 -52 271 -105 c 256
 271 -153 290 -189 308 -196 c 257
 308 -223 l 257
 304 -224 294 -225 289 -225 c 256
 228 -225 182 -193 182 -129 c 256
 182 -77 220 -40 266 1 c 257
 258 -1 256 -1 229 -1 c 256
 101 -1 30 67 30 165 c 256
EndSplineSet
Validated: 1
EndChar

StartChar: si_DAe
Encoding: 265 -1 43
GlifName: si_D_A_e
Width: 445
VWidth: 0
GlyphClass: 2
Flags: HW
LayerCount: 2
Fore
SplineSet
30 165 m 256
 30 268 102 310 218 310 c 258
 332 310 l 257
 323 355 294 381 262 381 c 256
 243 381 229 370 221 353 c 256
 211 332 194 325 175 325 c 256
 151 325 133 341 133 362 c 256
 133 397 173 423 227 423 c 256
 311 423 353 379 370 284 c 257
 310 284 l 258
 224 284 180 251 180 169 c 256
 180 87 231 43 279 43 c 256
 309 43 333 47 372 92 c 257
 397 73 l 257
 382 46 376 5 376 -59 c 256
 376 -125 399 -195 422 -195 c 257
 422 -223 l 257
 419 -224 415 -224 411 -224 c 256
 356 -224 301 -175 301 -103 c 256
 301 -49 321 -10 336 21 c 257
 309 5 271 -52 271 -105 c 256
 271 -153 282 -189 308 -196 c 257
 308 -223 l 257
 304 -224 294 -225 289 -225 c 256
 228 -225 182 -193 182 -129 c 256
 182 -77 220 -40 266 1 c 257
 258 -1 256 -1 229 -1 c 256
 101 -1 30 67 30 165 c 256
EndSplineSet
Validated: 1
EndChar

StartChar: si_DDdh.halant
Encoding: 510 -1 44
GlifName: si_D_D_dh.halant
Width: 711
VWidth: 0
GlyphClass: 2
Flags: HW
LayerCount: 2
Fore
SplineSet
230 523 m 256
 230 514 249 514 249 503 c 256
 249 501 248 498 246 496 c 257
 278 502 317 507 362 507 c 256
 466 507 548 480 605 414 c 257
 571 525 480 561 367 561 c 256
 302 561 230 546 230 523 c 256
122 190 m 256
 122 281 174 355 238 378 c 256
 258 385 281 389 306 389 c 257
 306 362 l 258
 303 362 299 363 296 363 c 256
 219 363 176 305 176 229 c 256
 176 193 201 137 273 137 c 256
 325 137 371 156 371 218 c 258
 371 243 l 257
 401 243 l 257
 401 218 l 258
 401 156 447 138 493 138 c 256
 574 138 603 213 603 289 c 256
 603 403 522 480 365 480 c 256
 291 480 210 469 131 438 c 257
 131 470 l 257
 162 479 211 489 211 496 c 256
 211 508 183 509 183 532 c 256
 183 569 249 614 361 614 c 256
 564 614 636 479 648 348 c 257
 657 324 665 282 665 241 c 256
 665 138 625 0 502 0 c 256
 454 0 415 20 386 58 c 257
 356 20 319 0 275 0 c 256
 175 0 122 93 122 190 c 256
26 207 m 256
 26 336 99 423 215 423 c 256
 240 423 282 417 306 389 c 257
 293 387 269 384 265 384 c 257
 260 390 243 395 219 395 c 256
 95 395 57 291 57 204 c 256
 57 129 84 74 132 33 c 257
 132 0 l 257
 67 32 26 108 26 207 c 256
EndSplineSet
Validated: 5
EndChar

StartChar: si_DDhI
Encoding: 511 -1 45
GlifName: si_D_D_hI_
Width: 711
VWidth: 0
GlyphClass: 2
Flags: HW
LayerCount: 2
Fore
SplineSet
26 207 m 256
 26 336 99 423 215 423 c 256
 240 423 282 417 306 389 c 257
 293 387 269 384 265 384 c 257
 260 390 243 395 219 395 c 256
 95 395 57 291 57 204 c 256
 57 129 84 74 132 33 c 257
 132 0 l 257
 67 32 26 108 26 207 c 256
EndSplineSet
Refer: 84 -1 N 1 0 0 1 90 0 2
Validated: 5
EndChar

StartChar: si_DDhIi
Encoding: 512 -1 46
GlifName: si_D_D_hI_i
Width: 711
VWidth: 0
GlyphClass: 2
Flags: HW
LayerCount: 2
Fore
SplineSet
26 207 m 256
 26 336 99 423 215 423 c 256
 240 423 282 417 306 389 c 257
 293 387 269 384 265 384 c 257
 260 390 243 395 219 395 c 256
 95 395 57 291 57 204 c 256
 57 129 84 74 132 33 c 257
 132 0 l 257
 67 32 26 108 26 207 c 256
EndSplineSet
Refer: 85 -1 N 1 0 0 1 90 0 2
Validated: 5
EndChar

StartChar: si_DDhU
Encoding: 513 -1 47
GlifName: si_D_D_hU_
Width: 711
VWidth: 0
GlyphClass: 2
Flags: HW
LayerCount: 2
Fore
SplineSet
140 -139 m 256
 140 -88 186 -49 240 -49 c 256
 281 -49 317 -72 331 -107 c 257
 299 -119 l 257
 292 -102 272 -80 240 -80 c 256
 204 -80 175 -107 175 -139 c 256
 175 -167 196 -188 264 -188 c 258
 617 -188 l 257
 617 125 l 257
 652 214 l 257
 652 -229 l 257
 243 -229 l 258
 165 -229 140 -182 140 -139 c 256
EndSplineSet
Refer: 49 -1 N 1 0 0 1 0 0 2
Validated: 5
EndChar

StartChar: si_DDhUu
Encoding: 514 -1 48
GlifName: si_D_D_hU_u
Width: 711
VWidth: 0
GlyphClass: 2
Flags: HW
LayerCount: 2
Fore
SplineSet
140 -135 m 256
 140 -78 188 -39 240 -39 c 256
 281 -39 312 -54 334 -89 c 257
 302 -100 l 257
 291 -83 272 -68 244 -68 c 256
 206 -68 182 -93 182 -117 c 256
 182 -148 210 -163 243 -163 c 256
 317 -163 391 -112 496 -112 c 256
 546 -112 591 -131 617 -162 c 257
 617 148 l 257
 652 207 l 257
 652 -226 l 257
 627 -226 l 257
 612 -191 567 -143 506 -143 c 256
 417 -143 344 -231 248 -231 c 256
 194 -231 140 -201 140 -135 c 256
EndSplineSet
Refer: 49 -1 N 1 0 0 1 0 0 2
Validated: 5
EndChar

StartChar: si_DDha
Encoding: 460 -1 49
GlifName: si_D_D_ha
Width: 711
VWidth: 0
GlyphClass: 2
Flags: HW
LayerCount: 2
Fore
SplineSet
26 207 m 256
 26 336 99 423 215 423 c 256
 240 423 282 417 306 389 c 257
 293 387 269 384 265 384 c 257
 260 390 243 395 219 395 c 256
 95 395 57 291 57 204 c 256
 57 129 84 74 132 33 c 257
 132 0 l 257
 67 32 26 108 26 207 c 256
EndSplineSet
Refer: 459 3504 N 1 0 0 1 91 0 2
Validated: 5
EndChar

StartChar: si_DI
Encoding: 267 -1 50
GlifName: si_D_I_
Width: 445
VWidth: 0
GlyphClass: 2
Flags: HW
LayerCount: 2
Fore
SplineSet
34 506 m 256
 34 604 124 655 218 655 c 256
 312 655 401 603 401 506 c 256
 401 433 339 397 288 396 c 257
 271 417 l 257
 326 417 346 448 346 477 c 256
 346 523 288 541 218 541 c 256
 148 541 88 525 88 477 c 256
 88 455 106 416 189 416 c 257
 147 396 l 257
 83 405 34 441 34 506 c 256
EndSplineSet
Refer: 458 3503 N 1 0 0 1 0 0 2
Validated: 5
EndChar

StartChar: si_DIi
Encoding: 268 -1 51
GlifName: si_D_I_i
Width: 445
VWidth: 0
GlyphClass: 2
Flags: HW
LayerCount: 2
Fore
SplineSet
244 481 m 256
 244 452 271 428 305 428 c 256
 339 428 367 452 367 481 c 256
 367 510 339 533 305 533 c 256
 271 533 244 510 244 481 c 256
34 506 m 256
 34 604 124 655 218 655 c 256
 312 655 402 605 402 499 c 256
 402 430 355 398 305 398 c 256
 247 398 210 438 210 482 c 256
 210 523 241 543 248 547 c 257
 241 548 234 548 219 548 c 256
 162 548 86 535 86 480 c 256
 86 453 106 417 189 417 c 257
 147 396 l 257
 83 405 34 441 34 506 c 256
EndSplineSet
Refer: 458 3503 N 1 0 0 1 0 0 2
Validated: 5
EndChar

StartChar: si_DRI
Encoding: 277 -1 52
GlifName: si_D_R_I_
Width: 445
VWidth: 0
GlyphClass: 2
Flags: HW
LayerCount: 2
Fore
SplineSet
34 506 m 256
 34 604 124 655 218 655 c 256
 312 655 401 603 401 506 c 256
 401 433 339 397 288 396 c 257
 271 417 l 257
 326 417 346 448 346 477 c 256
 346 523 288 541 218 541 c 256
 148 541 88 525 88 477 c 256
 88 455 106 416 189 416 c 257
 147 396 l 257
 83 405 34 441 34 506 c 256
33 -42 m 257
 59 -42 l 257
 86 -82 124 -101 199 -101 c 256
 287 -101 371 -37 371 50 c 256
 371 71 370 64 369 72 c 257
 397 77 l 257
 397 57 398 74 398 38 c 256
 398 -106 313 -199 210 -199 c 256
 107 -199 52 -141 33 -42 c 257
30 165 m 256
 30 268 102 310 218 310 c 258
 332 310 l 257
 323 355 294 381 262 381 c 256
 243 381 229 370 221 353 c 256
 211 332 194 325 175 325 c 256
 151 325 133 341 133 362 c 256
 133 397 173 423 227 423 c 256
 311 423 353 379 370 284 c 257
 310 284 l 258
 224 284 180 251 180 169 c 256
 180 87 231 43 279 43 c 256
 309 43 333 47 372 92 c 257
 397 77 l 257
 357 29 316 -1 229 -1 c 256
 101 -1 30 67 30 165 c 256
EndSplineSet
Validated: 5
EndChar

StartChar: si_DRIi
Encoding: 278 -1 53
GlifName: si_D_R_I_i
Width: 445
VWidth: 0
GlyphClass: 2
Flags: HW
LayerCount: 2
Fore
SplineSet
244 481 m 256
 244 452 271 428 305 428 c 256
 339 428 367 452 367 481 c 256
 367 510 339 533 305 533 c 256
 271 533 244 510 244 481 c 256
34 506 m 256
 34 604 124 655 218 655 c 256
 312 655 402 605 402 499 c 256
 402 430 355 398 305 398 c 256
 247 398 210 438 210 482 c 256
 210 523 241 543 248 547 c 257
 241 548 234 548 219 548 c 256
 162 548 86 535 86 480 c 256
 86 453 106 417 189 417 c 257
 147 396 l 257
 83 405 34 441 34 506 c 256
33 -42 m 257
 59 -42 l 257
 86 -82 124 -101 199 -101 c 256
 287 -101 371 -37 371 50 c 256
 371 71 370 64 369 72 c 257
 397 77 l 257
 397 57 398 74 398 38 c 256
 398 -106 313 -199 210 -199 c 256
 107 -199 52 -141 33 -42 c 257
30 165 m 256
 30 268 102 310 218 310 c 258
 332 310 l 257
 323 355 294 381 262 381 c 256
 243 381 229 370 221 353 c 256
 211 332 194 325 175 325 c 256
 151 325 133 341 133 362 c 256
 133 397 173 423 227 423 c 256
 311 423 353 379 370 284 c 257
 310 284 l 258
 224 284 180 251 180 169 c 256
 180 87 231 43 279 43 c 256
 309 43 333 47 372 92 c 257
 397 77 l 257
 357 29 316 -1 229 -1 c 256
 101 -1 30 67 30 165 c 256
EndSplineSet
Validated: 5
EndChar

StartChar: si_DRa
Encoding: 276 -1 54
GlifName: si_D_R_a
Width: 445
VWidth: 0
GlyphClass: 2
Flags: HW
LayerCount: 2
Fore
SplineSet
33 -42 m 257
 59 -42 l 257
 86 -82 124 -101 199 -101 c 256
 287 -101 371 -37 371 50 c 256
 371 71 370 64 369 72 c 257
 397 77 l 257
 397 57 398 74 398 38 c 256
 398 -106 313 -199 210 -199 c 256
 107 -199 52 -141 33 -42 c 257
30 165 m 256
 30 268 102 310 218 310 c 258
 332 310 l 257
 323 355 294 381 262 381 c 256
 243 381 229 370 221 353 c 256
 211 332 194 325 175 325 c 256
 151 325 133 341 133 362 c 256
 133 397 173 423 227 423 c 256
 311 423 353 379 370 284 c 257
 310 284 l 258
 224 284 180 251 180 169 c 256
 180 87 231 43 279 43 c 256
 309 43 333 47 372 92 c 257
 397 77 l 257
 357 29 316 -1 229 -1 c 256
 101 -1 30 67 30 165 c 256
EndSplineSet
Validated: 5
EndChar

StartChar: si_DU
Encoding: 269 -1 55
GlifName: si_D_U_
Width: 445
VWidth: 0
GlyphClass: 2
Flags: HW
LayerCount: 2
Fore
SplineSet
32 -139 m 256
 32 -88 77 -49 131 -49 c 256
 172 -49 209 -72 223 -107 c 257
 191 -119 l 257
 184 -102 163 -80 131 -80 c 256
 95 -80 67 -107 67 -139 c 256
 67 -167 88 -188 156 -188 c 258
 363 -188 l 257
 363 69 l 257
 397 77 l 257
 397 -229 l 257
 135 -229 l 258
 57 -229 32 -182 32 -139 c 256
30 165 m 256
 30 268 102 310 218 310 c 258
 332 310 l 257
 323 355 294 381 262 381 c 256
 243 381 229 370 221 353 c 256
 211 332 194 325 175 325 c 256
 151 325 133 341 133 362 c 256
 133 397 173 423 227 423 c 256
 311 423 353 379 370 284 c 257
 310 284 l 258
 224 284 180 251 180 169 c 256
 180 87 231 43 279 43 c 256
 309 43 333 47 372 92 c 257
 397 77 l 257
 361 31 316 -1 229 -1 c 256
 101 -1 30 67 30 165 c 256
EndSplineSet
Validated: 5
EndChar

StartChar: si_DUu
Encoding: 270 -1 56
GlifName: si_D_U_u
Width: 445
VWidth: 0
GlyphClass: 2
Flags: HW
LayerCount: 2
Fore
SplineSet
32 -135 m 256
 32 -78 80 -39 132 -39 c 256
 173 -39 205 -54 227 -89 c 257
 194 -100 l 257
 183 -83 165 -68 137 -68 c 256
 99 -68 74 -93 74 -117 c 256
 74 -148 103 -163 136 -163 c 256
 201 -163 222 -125 289 -125 c 256
 316 -125 343 -136 363 -154 c 257
 363 67 l 257
 397 77 l 257
 397 -228 l 257
 373 -226 l 257
 358 -191 332 -156 289 -156 c 256
 236 -156 217 -231 132 -231 c 256
 78 -231 32 -201 32 -135 c 256
30 165 m 256
 30 268 102 310 218 310 c 258
 332 310 l 257
 323 355 294 381 262 381 c 256
 243 381 229 370 221 353 c 256
 211 332 194 325 175 325 c 256
 151 325 133 341 133 362 c 256
 133 397 173 423 227 423 c 256
 311 423 353 379 370 284 c 257
 310 284 l 258
 224 284 180 251 180 169 c 256
 180 87 231 43 279 43 c 256
 309 43 333 47 372 92 c 257
 397 77 l 257
 357 29 316 -1 229 -1 c 256
 101 -1 30 67 30 165 c 256
EndSplineSet
Validated: 5
EndChar

StartChar: si_DV.halant
Encoding: 515 -1 57
GlifName: si_D_V_.halant
Width: 671
VWidth: 0
GlyphClass: 2
Flags: HW
LayerCount: 2
Fore
SplineSet
121 161 m 256
 121 244 184 297 283 297 c 258
 339 297 l 258
 339 299 339 299 339 301 c 256
 339 350 307 378 275 378 c 256
 242 378 231 363 226 347 c 256
 220 328 208 312 183 312 c 256
 161 312 144 326 144 351 c 256
 144 397 192 421 246 421 c 256
 332 421 374 367 374 283 c 256
 374 280 374 274 374 271 c 258
 295 271 l 258
 223 271 188 244 188 208 c 256
 188 147 281 137 353 137 c 256
 501 137 563 206 562 308 c 256
 561 417 486 480 342 480 c 256
 268 480 206 467 127 430 c 257
 127 462 l 257
 158 474 207 487 207 496 c 256
 207 508 179 508 179 533 c 256
 179 569 244 614 348 614 c 256
 546 614 604 479 616 348 c 256
 622 321 624 299 624 268 c 256
 624 112 528 0 350 0 c 256
 232 0 121 45 121 161 c 256
227 525 m 256
 227 513 245 514 245 503 c 256
 245 501 244 498 242 496 c 257
 273 503 300 507 345 507 c 256
 450 507 519 477 573 415 c 257
 541 523 463 561 350 561 c 256
 280 561 227 544 227 525 c 256
26 216 m 256
 26 345 97 423 233 423 c 256
 242 423 265 423 286 417 c 257
 265 406 191 395 174 389 c 257
 104 372 58 312 58 213 c 256
 58 134 84 76 132 33 c 257
 132 0 l 257
 67 32 26 117 26 216 c 256
EndSplineSet
Validated: 37
EndChar

StartChar: si_DVI
Encoding: 516 -1 58
GlifName: si_D_V_I_
Width: 671
VWidth: 0
GlyphClass: 2
Flags: HW
LayerCount: 2
Fore
SplineSet
135 549 m 256
 135 637 257 654 355 654 c 256
 488 654 594 624 594 541 c 256
 594 490 542 469 509 463 c 257
 460 479 l 257
 495 480 521 493 521 515 c 256
 521 551 460 567 355 567 c 256
 281 567 194 559 194 525 c 256
 194 499 234 496 334 492 c 256
 397 490 488 487 542 448 c 256
 590 413 625 348 625 262 c 257
 562 312 l 257
 562 326 562 372 536 406 c 256
 495 460 434 459 335 465 c 256
 248 470 135 465 135 549 c 256
122 161 m 256
 122 244 185 297 284 297 c 258
 340 297 l 257
 340 299 340 299 340 301 c 256
 340 350 308 378 276 378 c 256
 243 378 232 363 227 347 c 256
 221 328 209 312 184 312 c 256
 162 312 145 326 145 351 c 256
 145 397 193 421 247 421 c 256
 333 421 375 367 375 283 c 256
 375 280 375 274 375 271 c 257
 296 271 l 258
 224 271 188 244 188 208 c 256
 188 147 282 137 354 137 c 256
 503 137 562 209 562 318 c 257
 580 303 604 285 625 268 c 257
 625 112 530 0 351 0 c 256
 233 0 122 45 122 161 c 256
26 216 m 256
 26 345 97 423 233 423 c 256
 242 423 265 423 286 417 c 257
 265 406 191 395 174 389 c 257
 104 372 58 312 58 213 c 256
 58 134 84 76 132 33 c 257
 132 0 l 257
 67 32 26 117 26 216 c 256
EndSplineSet
Validated: 5
EndChar

StartChar: si_DVIi
Encoding: 517 -1 59
GlifName: si_D_V_I_i
Width: 671
VWidth: 0
GlyphClass: 2
Flags: HW
LayerCount: 2
Fore
SplineSet
447 526 m 256
 447 497 473 474 505 474 c 256
 537 474 563 497 563 526 c 256
 563 555 537 578 505 578 c 256
 473 578 447 555 447 526 c 256
136 549 m 256
 136 637 256 654 354 654 c 256
 487 654 595 625 595 529 c 256
 595 477 548 447 505 447 c 256
 462 447 415 477 415 529 c 256
 415 552 425 565 429 570 c 257
 421 572 389 575 353 575 c 256
 279 575 189 566 189 527 c 256
 189 499 233 496 333 492 c 256
 396 490 488 487 542 448 c 256
 590 413 625 351 625 263 c 257
 562 314 l 257
 562 338 559 376 534 406 c 256
 491 458 433 459 334 465 c 256
 247 470 136 465 136 549 c 256
122 161 m 256
 122 244 185 297 284 297 c 258
 340 297 l 257
 340 299 340 299 340 301 c 256
 340 350 308 378 276 378 c 256
 243 378 232 363 227 347 c 256
 221 328 209 312 184 312 c 256
 162 312 145 326 145 351 c 256
 145 397 193 421 247 421 c 256
 333 421 375 367 375 283 c 256
 375 280 375 274 375 271 c 257
 296 271 l 258
 224 271 188 244 188 208 c 256
 188 147 282 137 354 137 c 256
 503 137 562 209 562 318 c 257
 580 303 604 285 625 268 c 257
 625 112 530 0 351 0 c 256
 233 0 122 45 122 161 c 256
26 216 m 256
 26 345 97 423 233 423 c 256
 242 423 265 423 286 417 c 257
 265 406 191 395 174 389 c 257
 104 372 58 312 58 213 c 256
 58 134 84 76 132 33 c 257
 132 0 l 257
 67 32 26 117 26 216 c 256
EndSplineSet
Validated: 5
EndChar

StartChar: si_DVU
Encoding: 518 -1 60
GlifName: si_D_V_U_
Width: 671
VWidth: 0
GlyphClass: 2
Flags: HW
LayerCount: 2
Fore
SplineSet
133 -139 m 256
 133 -88 178 -49 232 -49 c 256
 273 -49 310 -72 324 -107 c 257
 292 -119 l 257
 285 -102 264 -80 232 -80 c 256
 196 -80 167 -107 167 -139 c 256
 167 -167 189 -188 257 -188 c 258
 581 -188 l 257
 581 125 l 257
 615 214 l 257
 615 -229 l 257
 236 -229 l 258
 158 -229 133 -182 133 -139 c 256
122 161 m 256
 122 244 185 297 284 297 c 258
 340 297 l 257
 340 299 340 299 340 301 c 256
 340 350 308 378 276 378 c 256
 243 378 232 363 227 347 c 256
 221 328 209 312 184 312 c 256
 162 312 145 326 145 351 c 256
 145 397 193 421 247 421 c 256
 333 421 375 367 375 283 c 256
 375 280 375 274 375 271 c 257
 296 271 l 258
 224 271 188 244 188 208 c 256
 188 147 282 137 354 137 c 256
 503 137 569 206 569 310 c 256
 569 426 490 538 359 538 c 256
 282 538 223 510 180 459 c 257
 146 459 l 257
 194 527 263 563 359 563 c 256
 515 563 625 433 625 268 c 256
 625 112 530 0 351 0 c 256
 233 0 122 45 122 161 c 256
26 216 m 256
 26 345 97 423 233 423 c 256
 242 423 265 423 286 417 c 257
 265 406 191 395 174 389 c 257
 104 372 58 312 58 213 c 256
 58 134 84 76 132 33 c 257
 132 0 l 257
 67 32 26 117 26 216 c 256
EndSplineSet
Validated: 5
EndChar

StartChar: si_DVUu
Encoding: 519 -1 61
GlifName: si_D_V_U_u
Width: 671
VWidth: 0
GlyphClass: 2
Flags: HW
LayerCount: 2
Fore
SplineSet
135 -135 m 256
 135 -78 182 -39 234 -39 c 256
 275 -39 307 -54 329 -89 c 257
 297 -100 l 257
 286 -83 267 -68 239 -68 c 256
 201 -68 177 -93 177 -117 c 256
 177 -148 205 -163 238 -163 c 256
 312 -163 367 -112 465 -112 c 256
 510 -112 555 -131 581 -162 c 257
 581 148 l 257
 615 207 l 257
 615 -226 l 257
 590 -226 l 257
 575 -191 536 -143 475 -143 c 256
 386 -143 339 -231 243 -231 c 256
 189 -231 135 -201 135 -135 c 256
122 161 m 256
 122 244 185 297 284 297 c 258
 340 297 l 257
 340 299 340 299 340 301 c 256
 340 350 308 378 276 378 c 256
 243 378 232 363 227 347 c 256
 221 328 209 312 184 312 c 256
 162 312 145 326 145 351 c 256
 145 397 193 421 247 421 c 256
 333 421 375 367 375 283 c 256
 375 280 375 274 375 271 c 257
 296 271 l 258
 224 271 188 244 188 208 c 256
 188 147 282 137 354 137 c 256
 503 137 569 206 569 310 c 256
 569 426 490 538 359 538 c 256
 282 538 223 510 180 459 c 257
 146 459 l 257
 194 527 263 563 359 563 c 256
 515 563 625 433 625 268 c 256
 625 112 530 0 351 0 c 256
 233 0 122 45 122 161 c 256
26 216 m 256
 26 345 97 423 233 423 c 256
 242 423 265 423 286 417 c 257
 265 406 191 395 174 389 c 257
 104 372 58 312 58 213 c 256
 58 134 84 76 132 33 c 257
 132 0 l 257
 67 32 26 117 26 216 c 256
EndSplineSet
Validated: 5
EndChar

StartChar: si_DVa
Encoding: 461 -1 62
GlifName: si_D_V_a
Width: 671
VWidth: 0
GlyphClass: 2
Flags: HW
LayerCount: 2
Fore
SplineSet
122 161 m 256
 122 244 185 297 284 297 c 258
 340 297 l 257
 340 299 340 299 340 301 c 256
 340 350 308 378 276 378 c 256
 243 378 232 363 227 347 c 256
 221 328 209 312 184 312 c 256
 162 312 145 326 145 351 c 256
 145 397 193 421 247 421 c 256
 333 421 375 367 375 283 c 256
 375 280 375 274 375 271 c 257
 296 271 l 258
 224 271 188 244 188 208 c 256
 188 147 282 137 354 137 c 256
 503 137 569 206 569 310 c 256
 569 426 490 538 359 538 c 256
 282 538 223 510 180 459 c 257
 146 459 l 257
 194 527 263 563 359 563 c 256
 515 563 625 433 625 268 c 256
 625 112 530 0 351 0 c 256
 233 0 122 45 122 161 c 256
26 216 m 256
 26 345 97 423 233 423 c 256
 242 423 265 423 286 417 c 257
 265 406 191 395 174 389 c 257
 104 372 58 312 58 213 c 256
 58 134 84 76 132 33 c 257
 132 0 l 257
 67 32 26 117 26 216 c 256
EndSplineSet
Validated: 5
EndChar

StartChar: si_DYAa.post
Encoding: 280 -1 63
GlifName: si_D_Y_A_a.post
Width: 768
VWidth: 0
GlyphClass: 2
Flags: HW
LayerCount: 2
Fore
SplineSet
578 -30 m 257
 607 -30 l 257
 607 -6 619 9 634 9 c 256
 655 9 663 -28 663 -72 c 256
 663 -132 656 -162 630 -162 c 256
 617 -162 611 -153 611 -143 c 257
 583 -143 l 257
 583 -164 593 -194 647 -194 c 256
 705 -194 744 -157 744 -71 c 256
 744 -3 712 46 659 46 c 256
 601 46 578 7 578 -30 c 257
332 45 m 257
 341 47 345 49 355 49 c 256
 380 49 414 10 414 -41 c 256
 414 -76 408 -92 403 -104 c 257
 423 -112 437 -113 458 -113 c 256
 494 -113 509 -93 509 -78 c 256
 509 -51 485 -46 467 -43 c 256
 454 -41 430 -28 430 -1 c 256
 430 37 460 53 496 53 c 256
 531 53 558 34 558 -1 c 256
 558 -5 558 -8 557 -12 c 257
 528 -12 l 257
 529 -8 529 -6 529 -2 c 256
 529 12 521 27 496 27 c 256
 482 27 459 22 459 0 c 256
 459 -19 473 -21 496 -21 c 256
 531 -21 579 -44 579 -104 c 256
 579 -161 527 -201 476 -201 c 256
 431 -201 402 -188 374 -152 c 257
 356 -173 330 -192 305 -200 c 257
 288 -176 l 257
 336 -159 385 -115 385 -43 c 256
 385 -9 363 25 342 25 c 256
 333 25 327 24 320 23 c 257
 332 45 l 257
229 -1 m 256
 101 -1 30 67 30 165 c 256
 30 268 102 310 218 310 c 258
 332 310 l 257
 323 355 294 381 262 381 c 256
 243 381 229 370 221 353 c 256
 211 332 194 325 175 325 c 256
 151 325 133 341 133 362 c 256
 133 397 173 423 227 423 c 256
 311 423 353 379 370 284 c 257
 310 284 l 258
 224 284 180 251 180 169 c 256
 180 87 231 43 279 43 c 256
 309 43 333 47 372 92 c 257
 403 73 l 257
 357 28 319 -1 229 -1 c 256
EndSplineSet
Validated: 5
EndChar

StartChar: si_DYOo.post
Encoding: 283 -1 64
GlifName: si_D_Y_O_o.post
Width: 874
VWidth: 0
GlyphClass: 2
Flags: HW
LayerCount: 2
Fore
SplineSet
712 -65 m 257
 712 665 l 257
 765 624 860 619 860 529 c 256
 860 486 826 457 784 457 c 256
 770 457 755 460 740 467 c 257
 740 -71 l 257
 712 -65 l 257
740 622 m 257
 740 492 l 257
 748 488 759 486 772 486 c 256
 803 486 816 510 816 533 c 256
 816 573 785 592 740 622 c 257
578 -30 m 257
 578 7 601 46 659 46 c 256
 712 46 744 -3 744 -71 c 256
 744 -157 705 -194 647 -194 c 256
 593 -194 583 -164 583 -143 c 257
 611 -143 l 257
 611 -153 617 -162 630 -162 c 256
 656 -162 663 -132 663 -72 c 256
 663 -28 655 9 634 9 c 256
 619 9 607 -6 607 -30 c 257
 578 -30 l 257
332 45 m 257
 341 47 345 49 355 49 c 256
 380 49 414 10 414 -41 c 256
 414 -76 408 -92 403 -104 c 257
 423 -112 437 -113 458 -113 c 256
 494 -113 509 -93 509 -78 c 256
 509 -51 485 -46 467 -43 c 256
 454 -41 430 -28 430 -1 c 256
 430 37 460 53 496 53 c 256
 531 53 558 34 558 -1 c 256
 558 -5 558 -8 557 -12 c 257
 528 -12 l 257
 529 -8 529 -6 529 -2 c 256
 529 12 521 27 496 27 c 256
 482 27 459 22 459 0 c 256
 459 -19 473 -21 496 -21 c 256
 531 -21 579 -44 579 -104 c 256
 579 -161 527 -201 476 -201 c 256
 431 -201 402 -188 374 -152 c 257
 356 -173 330 -192 305 -200 c 257
 288 -176 l 257
 336 -159 385 -115 385 -43 c 256
 385 -9 363 25 342 25 c 256
 333 25 327 24 320 23 c 257
 332 45 l 257
229 -1 m 256
 101 -1 30 67 30 165 c 256
 30 268 102 310 218 310 c 258
 332 310 l 257
 323 355 294 381 262 381 c 256
 243 381 229 370 221 353 c 256
 211 332 194 325 175 325 c 256
 151 325 133 341 133 362 c 256
 133 397 173 423 227 423 c 256
 311 423 353 379 370 284 c 257
 310 284 l 258
 224 284 180 251 180 169 c 256
 180 87 231 43 279 43 c 256
 309 43 333 47 372 92 c 257
 403 73 l 257
 357 28 319 -1 229 -1 c 256
EndSplineSet
Validated: 5
EndChar

StartChar: si_DYUu.post
Encoding: 282 -1 65
GlifName: si_D_Y_U_u.post
Width: 599
VWidth: 0
GlyphClass: 2
Flags: HW
LayerCount: 2
Fore
SplineSet
332 45 m 257
 341 47 345 49 355 49 c 256
 380 49 414 10 414 -41 c 256
 414 -76 408 -92 403 -104 c 257
 423 -112 437 -113 458 -113 c 256
 494 -113 509 -93 509 -78 c 256
 509 -51 485 -46 467 -43 c 256
 454 -41 430 -28 430 -1 c 256
 430 37 460 53 496 53 c 256
 531 53 558 34 558 -1 c 256
 558 -5 558 -8 557 -12 c 257
 528 -12 l 257
 529 -8 529 -6 529 -2 c 256
 529 12 521 27 496 27 c 256
 482 27 459 22 459 0 c 256
 459 -19 473 -21 496 -21 c 256
 531 -21 579 -44 579 -104 c 256
 579 -161 527 -201 476 -201 c 256
 431 -201 402 -188 374 -152 c 257
 356 -173 330 -192 305 -200 c 257
 288 -176 l 257
 336 -159 385 -115 385 -43 c 256
 385 -9 363 25 342 25 c 256
 333 25 327 24 320 23 c 257
 332 45 l 257
229 -1 m 256
 101 -1 30 67 30 165 c 256
 30 268 102 310 218 310 c 258
 332 310 l 257
 323 355 294 381 262 381 c 256
 243 381 229 370 221 353 c 256
 211 332 194 325 175 325 c 256
 151 325 133 341 133 362 c 256
 133 397 173 423 227 423 c 256
 311 423 353 379 370 284 c 257
 310 284 l 258
 224 284 180 251 180 169 c 256
 180 87 231 43 279 43 c 256
 309 43 333 47 372 92 c 257
 403 73 l 257
 357 28 319 -1 229 -1 c 256
572 -136 m 257
 572 -335 l 257
 572 -335 557 -336 549 -335 c 257
 541 -319 520 -307 488 -307 c 256
 442 -307 422 -340 368 -340 c 256
 330 -340 300 -315 300 -275 c 256
 300 -238 326 -215 364 -215 c 256
 395 -215 411 -230 421 -251 c 257
 396 -264 l 257
 389 -249 378 -240 362 -240 c 256
 341 -240 330 -255 330 -266 c 256
 330 -287 353 -293 378 -293 c 256
 427 -293 443 -279 492 -279 c 256
 529 -279 543 -295 543 -295 c 257
 543 -171 l 257
 572 -136 l 257
EndSplineSet
Validated: 5
EndChar

StartChar: si_DYa.post
Encoding: 279 -1 66
GlifName: si_D_Y_a.post
Width: 599
VWidth: 0
GlyphClass: 2
Flags: HW
LayerCount: 2
Fore
SplineSet
332 45 m 257
 341 47 345 49 355 49 c 256
 380 49 414 10 414 -41 c 256
 414 -76 408 -92 403 -104 c 257
 423 -112 437 -113 458 -113 c 256
 494 -113 509 -93 509 -78 c 256
 509 -51 485 -46 467 -43 c 256
 454 -41 430 -28 430 -1 c 256
 430 37 460 53 496 53 c 256
 531 53 558 34 558 -1 c 256
 558 -5 558 -8 557 -12 c 257
 528 -12 l 257
 529 -8 529 -6 529 -2 c 256
 529 12 521 27 496 27 c 256
 482 27 459 22 459 0 c 256
 459 -19 473 -21 496 -21 c 256
 531 -21 579 -44 579 -104 c 256
 579 -161 527 -201 476 -201 c 256
 431 -201 402 -188 374 -152 c 257
 356 -173 330 -192 305 -200 c 257
 288 -176 l 257
 336 -159 385 -115 385 -43 c 256
 385 -9 363 25 342 25 c 256
 333 25 327 24 320 23 c 257
 332 45 l 257
229 -1 m 256
 101 -1 30 67 30 165 c 256
 30 268 102 310 218 310 c 258
 332 310 l 257
 323 355 294 381 262 381 c 256
 243 381 229 370 221 353 c 256
 211 332 194 325 175 325 c 256
 151 325 133 341 133 362 c 256
 133 397 173 423 227 423 c 256
 311 423 353 379 370 284 c 257
 310 284 l 258
 224 284 180 251 180 169 c 256
 180 87 231 43 279 43 c 256
 309 43 333 47 372 92 c 257
 403 73 l 257
 357 28 319 -1 229 -1 c 256
EndSplineSet
Validated: 5
EndChar

StartChar: si_DYu.post
Encoding: 281 -1 67
GlifName: si_D_Y_u.post
Width: 599
VWidth: 0
GlyphClass: 2
Flags: HW
LayerCount: 2
Fore
SplineSet
332 45 m 257
 341 47 345 49 355 49 c 256
 380 49 414 10 414 -41 c 256
 414 -76 408 -92 403 -104 c 257
 423 -112 437 -113 458 -113 c 256
 494 -113 509 -93 509 -78 c 256
 509 -51 485 -46 467 -43 c 256
 454 -41 430 -28 430 -1 c 256
 430 37 460 53 496 53 c 256
 531 53 558 34 558 -1 c 256
 558 -5 558 -8 557 -12 c 257
 528 -12 l 257
 529 -8 529 -6 529 -2 c 256
 529 12 521 27 496 27 c 256
 482 27 459 22 459 0 c 256
 459 -19 473 -21 496 -21 c 256
 531 -21 579 -44 579 -104 c 256
 579 -161 527 -201 476 -201 c 256
 431 -201 402 -188 374 -152 c 257
 356 -173 330 -192 305 -200 c 257
 288 -176 l 257
 336 -159 385 -115 385 -43 c 256
 385 -9 363 25 342 25 c 256
 333 25 327 24 320 23 c 257
 332 45 l 257
229 -1 m 256
 101 -1 30 67 30 165 c 256
 30 268 102 310 218 310 c 258
 332 310 l 257
 323 355 294 381 262 381 c 256
 243 381 229 370 221 353 c 256
 211 332 194 325 175 325 c 256
 151 325 133 341 133 362 c 256
 133 397 173 423 227 423 c 256
 311 423 353 379 370 284 c 257
 310 284 l 258
 224 284 180 251 180 169 c 256
 180 87 231 43 279 43 c 256
 309 43 333 47 372 92 c 257
 403 73 l 257
 357 28 319 -1 229 -1 c 256
572 -136 m 257
 572 -340 l 257
 380 -340 l 258
 326 -340 300 -310 300 -273 c 256
 300 -239 326 -215 364 -215 c 256
 395 -215 411 -230 421 -251 c 257
 396 -262 l 257
 388 -248 379 -240 363 -240 c 256
 342 -240 331 -254 331 -267 c 256
 331 -288 346 -299 392 -299 c 258
 542 -299 l 257
 542 -171 l 257
 572 -136 l 257
EndSplineSet
Validated: 5
EndChar

StartChar: si_Da.reph
Encoding: 274 -1 68
GlifName: si_D_a.reph
Width: 445
VWidth: 0
GlyphClass: 2
Flags: HW
LayerCount: 2
Fore
SplineSet
195 499 m 260
 195 479 213 463 234 463 c 260
 255 463 273 479 273 499 c 260
 273 519 255 535 234 535 c 260
 213 535 195 519 195 499 c 260
94 518 m 260
 94 580 151 616 231 616 c 260
 306 616 369 574 369 505 c 260
 369 482 360 460 344 441 c 261
 309 441 l 261
 322 453 337 477 337 504 c 260
 337 557 290 588 230 588 c 260
 178 588 126 567 126 518 c 260
 126 480 169 462 186 460 c 261
 178 466 167 479 167 500 c 260
 167 534 198 559 233 559 c 260
 273 559 300 532 300 498 c 260
 300 460 266 435 209 435 c 260
 151 435 94 463 94 518 c 260
EndSplineSet
Refer: 458 3503 S 1 0 0 1 0 0 2
Validated: 1
EndChar

StartChar: si_Dd.halant
Encoding: 221 -1 69
GlifName: si_D_d.halant
Width: 631
VWidth: 0
GlyphClass: 2
Flags: HW
LayerCount: 2
Fore
SplineSet
148 525 m 256
 148 513 167 514 167 503 c 256
 167 501 166 498 164 496 c 257
 196 502 235 507 280 507 c 256
 385 507 469 477 523 415 c 257
 491 523 398 561 285 561 c 256
 215 561 148 544 148 525 c 256
49 430 m 257
 49 462 l 257
 80 474 128 487 128 496 c 256
 128 508 101 508 101 533 c 256
 101 569 167 614 279 614 c 256
 482 614 554 479 566 348 c 257
 578 324 584 281 584 250 c 257
 527 284 l 257
 527 292 526 288 526 292 c 256
 526 399 442 480 277 480 c 256
 203 480 128 467 49 430 c 257
15 278 m 257
 15 308 l 257
 252 308 l 257
 250 342 225 379 192 379 c 256
 183 379 165 379 150 352 c 256
 140 334 126 327 110 327 c 256
 87 327 71 342 71 364 c 256
 71 403 118 422 159 422 c 256
 236 422 288 375 288 278 c 257
 219 278 l 258
 128 278 107 228 107 205 c 256
 107 160 146 137 198 137 c 256
 260 137 290 157 290 195 c 258
 290 216 l 257
 320 216 l 257
 320 195 l 258
 320 160 344 137 404 137 c 256
 477 137 527 195 527 286 c 257
 545 277 562 260 584 252 c 257
 584 107 535 0 418 -0 c 256
 355 0 327 28 306 58 c 257
 277 22 244 0 194 0 c 256
 95 0 45 79 45 158 c 256
 45 207 69 255 122 278 c 257
 15 278 l 257
EndSplineSet
Validated: 5
EndChar

StartChar: si_DdI
Encoding: 222 -1 70
GlifName: si_D_dI_
Width: 631
VWidth: 0
GlyphClass: 2
Flags: HW
LayerCount: 2
Fore
SplineSet
77 549 m 256
 77 637 210 654 308 654 c 256
 441 654 552 624 552 541 c 256
 552 490 500 469 467 463 c 257
 418 479 l 257
 453 480 479 493 479 515 c 256
 479 551 413 567 308 567 c 256
 234 567 135 559 135 525 c 256
 135 499 186 496 286 492 c 256
 349 490 446 487 500 448 c 256
 548 413 584 336 584 250 c 257
 528 287 l 257
 528 328 522 369 496 404 c 256
 455 458 386 459 287 465 c 256
 200 470 77 465 77 549 c 256
15 278 m 257
 15 308 l 257
 252 308 l 257
 250 342 225 379 192 379 c 256
 183 379 165 379 150 352 c 256
 140 334 126 327 110 327 c 256
 87 327 71 342 71 364 c 256
 71 403 118 422 159 422 c 256
 236 422 288 375 288 278 c 257
 219 278 l 258
 128 278 107 228 107 205 c 256
 107 160 146 137 198 137 c 256
 260 137 290 157 290 195 c 258
 290 216 l 257
 320 216 l 257
 320 195 l 258
 320 160 344 137 404 137 c 256
 477 137 528 193 528 291 c 257
 546 282 562 260 584 252 c 257
 584 107 535 0 418 -0 c 256
 355 0 327 28 306 58 c 257
 277 22 244 0 194 0 c 256
 95 0 45 79 45 158 c 256
 45 207 69 255 122 278 c 257
 15 278 l 257
EndSplineSet
Validated: 5
EndChar

StartChar: si_DdIi
Encoding: 223 -1 71
GlifName: si_D_dI_i
Width: 631
VWidth: 0
GlyphClass: 2
Flags: HW
LayerCount: 2
Fore
SplineSet
406 526 m 256
 406 497 431 474 463 474 c 256
 495 474 521 497 521 526 c 256
 521 555 495 578 463 578 c 256
 431 578 406 555 406 526 c 256
78 549 m 256
 78 637 211 654 309 654 c 256
 442 654 553 625 553 529 c 256
 553 477 506 447 463 447 c 256
 420 447 374 477 374 529 c 256
 374 552 383 565 387 570 c 257
 379 572 343 575 307 575 c 256
 233 575 131 566 131 527 c 256
 131 499 187 496 287 492 c 256
 350 490 446 487 500 448 c 256
 548 413 584 346 584 250 c 257
 528 288 l 257
 528 340 520 374 493 406 c 256
 450 458 387 459 288 465 c 256
 201 470 78 465 78 549 c 256
15 278 m 257
 15 308 l 257
 252 308 l 257
 250 342 225 379 192 379 c 256
 183 379 165 379 150 352 c 256
 140 334 126 327 110 327 c 256
 87 327 71 342 71 364 c 256
 71 403 118 422 159 422 c 256
 236 422 288 375 288 278 c 257
 219 278 l 258
 128 278 107 228 107 205 c 256
 107 160 146 137 198 137 c 256
 260 137 290 157 290 195 c 258
 290 216 l 257
 320 216 l 257
 320 195 l 258
 320 160 344 137 404 137 c 256
 477 137 528 193 528 291 c 257
 546 282 562 260 584 252 c 257
 584 107 535 0 418 -0 c 256
 355 0 327 28 306 58 c 257
 277 22 244 0 194 0 c 256
 95 0 45 79 45 158 c 256
 45 207 69 255 122 278 c 257
 15 278 l 257
EndSplineSet
Validated: 5
EndChar

StartChar: si_DdRI
Encoding: 229 -1 72
GlifName: si_D_dR_I_
Width: 631
VWidth: 0
GlyphClass: 2
Flags: HW
LayerCount: 2
Fore
SplineSet
54 -43 m 257
 83 -43 l 257
 120 -85 185 -112 288 -112 c 256
 428 -112 536 -30 536 62 c 256
 536 77 534 89 529 100 c 257
 542 130 l 257
 560 104 568 73 568 37 c 256
 568 -121 443 -214 302 -214 c 256
 172 -214 90 -150 54 -43 c 257
EndSplineSet
Refer: 70 -1 N 1 0 0 1 0 0 2
Validated: 5
EndChar

StartChar: si_DdRIi
Encoding: 230 -1 73
GlifName: si_D_dR_I_i
Width: 631
VWidth: 0
GlyphClass: 2
Flags: HW
LayerCount: 2
Fore
SplineSet
54 -43 m 257
 83 -43 l 257
 120 -85 185 -112 288 -112 c 256
 428 -112 536 -30 536 62 c 256
 536 77 534 89 529 100 c 257
 542 130 l 257
 560 104 568 73 568 37 c 256
 568 -121 443 -214 302 -214 c 256
 172 -214 90 -150 54 -43 c 257
EndSplineSet
Refer: 71 -1 N 1 0 0 1 0 0 2
Validated: 5
EndChar

StartChar: si_DdRa
Encoding: 228 -1 74
GlifName: si_D_dR_a
Width: 631
VWidth: 0
GlyphClass: 2
Flags: HW
LayerCount: 2
Fore
SplineSet
54 -43 m 261
 83 -43 l 261
 120 -85 185 -112 288 -112 c 260
 428 -112 536 -30 536 62 c 260
 536 77 534 89 529 100 c 261
 542 130 l 261
 560 104 568 73 568 37 c 260
 568 -121 443 -214 302 -214 c 260
 172 -214 90 -150 54 -43 c 261
EndSplineSet
Refer: 452 3497 N 1 0 0 1 0 0 2
Validated: 5
EndChar

StartChar: si_DdU
Encoding: 224 -1 75
GlifName: si_D_dU_
Width: 631
VWidth: 0
GlyphClass: 2
Flags: HW
LayerCount: 2
Fore
SplineSet
50 -139 m 256
 50 -88 95 -49 149 -49 c 256
 190 -49 227 -72 241 -107 c 257
 209 -119 l 257
 202 -102 181 -80 149 -80 c 256
 113 -80 85 -107 85 -139 c 256
 85 -167 106 -188 174 -188 c 258
 537 -188 l 257
 537 125 l 257
 572 214 l 257
 572 -229 l 257
 153 -229 l 258
 75 -229 50 -182 50 -139 c 256
EndSplineSet
Refer: 452 3497 N 1 0 0 1 0 0 2
Validated: 5
EndChar

StartChar: si_DdUu
Encoding: 225 -1 76
GlifName: si_D_dU_u
Width: 631
VWidth: 0
GlyphClass: 2
Flags: HW
LayerCount: 2
Fore
SplineSet
50 -135 m 256
 50 -78 97 -39 149 -39 c 256
 190 -39 222 -54 244 -89 c 257
 212 -100 l 257
 201 -83 182 -68 154 -68 c 256
 116 -68 92 -93 92 -117 c 256
 92 -148 120 -163 153 -163 c 256
 227 -163 312 -112 417 -112 c 256
 467 -112 512 -131 538 -162 c 257
 538 148 l 257
 572 207 l 257
 572 -226 l 257
 547 -226 l 257
 532 -191 488 -143 427 -143 c 256
 338 -143 254 -231 158 -231 c 256
 104 -231 50 -201 50 -135 c 256
EndSplineSet
Refer: 452 3497 N 1 0 0 1 0 0 2
Validated: 5
EndChar

StartChar: si_Dda.reph
Encoding: 226 -1 77
GlifName: si_D_da.reph
Width: 631
VWidth: 0
GlyphClass: 2
Flags: HW
LayerCount: 2
Fore
SplineSet
272 607 m 256
 272 587 290 572 311 572 c 256
 332 572 350 587 350 607 c 256
 350 627 332 643 311 643 c 256
 290 643 272 627 272 607 c 256
171 626 m 256
 171 688 228 725 308 725 c 256
 383 725 446 682 446 613 c 256
 446 590 437 569 421 550 c 257
 386 550 l 257
 399 562 414 585 414 612 c 256
 414 665 367 697 307 697 c 256
 255 697 203 675 203 626 c 256
 203 588 245 571 262 569 c 257
 254 575 244 587 244 608 c 256
 244 642 275 667 310 667 c 256
 350 667 377 640 377 606 c 256
 377 568 343 543 286 543 c 256
 228 543 171 571 171 626 c 256
EndSplineSet
Refer: 452 3497 N 1 0 0 1 0 0 2
Validated: 5
EndChar

StartChar: si_Ddh.halant
Encoding: 231 -1 78
GlifName: si_D_dh.halant
Width: 631
VWidth: 0
GlyphClass: 2
Flags: HW
LayerCount: 2
Fore
SplineSet
466 508 m 257
 472 505 487 501 498 501 c 256
 523 501 542 519 542 549 c 256
 542 600 485 621 466 638 c 257
 466 508 l 257
439 472 m 257
 439 681 l 257
 492 639 586 637 586 544 c 256
 586 505 555 473 507 473 c 256
 488 473 473 478 466 482 c 257
 466 442 l 257
 439 472 l 257
323 469 m 256
 323 418 340 377 391 377 c 256
 415 377 445 388 461 426 c 257
 434 465 379 516 343 543 c 257
 333 528 323 503 323 469 c 256
15 278 m 257
 15 308 l 257
 252 308 l 257
 249 347 223 378 196 378 c 256
 179 378 164 375 150 351 c 256
 139 332 126 327 113 327 c 256
 90 327 71 342 71 365 c 256
 71 404 117 422 158 422 c 256
 240 422 284 374 285 278 c 257
 215 278 l 258
 141 278 106 238 106 200 c 256
 106 167 140 136 204 136 c 256
 246 136 290 154 290 192 c 258
 290 216 l 257
 320 216 l 257
 320 192 l 258
 320 157 361 137 405 137 c 256
 487 137 519 218 519 275 c 256
 519 335 493 375 480 397 c 257
 460 362 431 344 391 344 c 256
 329 344 292 397 292 459 c 256
 292 510 309 546 334 579 c 257
 394 547 465 475 506 418 c 256
 548 359 583 285 583 212 c 256
 583 125 540 0 416 0 c 256
 355 0 327 28 306 58 c 257
 277 22 244 0 194 0 c 256
 95 0 45 79 45 158 c 256
 45 206 69 255 122 278 c 257
 15 278 l 257
EndSplineSet
Validated: 5
LCarets2: 1 170
EndChar

StartChar: si_DdhI
Encoding: 232 -1 79
GlifName: si_D_dhI_
Width: 631
VWidth: 0
GlyphClass: 2
Flags: HW
LayerCount: 2
Fore
SplineSet
334 460 m 256
 334 408 370 383 404 383 c 256
 435 383 459 404 472 425 c 257
 424 490 364 532 354 540 c 257
 343 522 334 491 334 460 c 256
15 278 m 257
 15 308 l 257
 251 308 l 257
 248 348 220 379 193 379 c 256
 177 379 163 375 149 351 c 256
 137 332 122 327 107 327 c 256
 87 327 71 342 71 365 c 256
 71 404 117 422 158 422 c 256
 243 422 286 364 287 278 c 257
 215 278 l 258
 141 278 107 239 107 201 c 256
 107 168 139 136 200 136 c 256
 249 136 290 154 290 194 c 258
 290 216 l 257
 320 216 l 257
 320 194 l 258
 320 153 353 138 407 138 c 256
 489 138 522 216 522 270 c 256
 522 330 502 371 490 393 c 257
 470 361 441 344 401 344 c 256
 339 344 302 390 302 465 c 256
 302 504 319 548 344 579 c 257
 394 550 482 478 520 418 c 256
 557 359 583 312 583 212 c 256
 583 125 540 0 416 0 c 256
 355 0 327 28 306 58 c 257
 277 22 244 0 194 0 c 256
 95 0 45 79 45 158 c 256
 45 206 69 255 122 278 c 257
 15 278 l 257
109 561 m 256
 109 651 221 684 327 684 c 256
 427 684 543 649 543 560 c 256
 543 514 507 487 453 487 c 257
 448 492 441 502 437 509 c 257
 449 510 494 513 494 544 c 256
 494 588 402 598 329 598 c 256
 213 598 156 580 156 544 c 256
 156 517 190 504 223 504 c 256
 267 504 299 516 316 524 c 257
 315 518 316 507 312 492 c 257
 288 484 263 476 221 476 c 256
 162 476 109 504 109 561 c 256
EndSplineSet
Validated: 5
EndChar

StartChar: si_DdhIi
Encoding: 233 -1 80
GlifName: si_D_dhI_i
Width: 631
VWidth: 0
GlyphClass: 2
Flags: HW
LayerCount: 2
Fore
SplineSet
334 460 m 256
 334 408 370 383 404 383 c 256
 435 383 459 404 472 425 c 257
 424 490 364 532 354 540 c 257
 343 522 334 491 334 460 c 256
15 278 m 257
 15 308 l 257
 251 308 l 257
 248 348 220 379 193 379 c 256
 177 379 163 375 149 351 c 256
 137 332 122 327 107 327 c 256
 87 327 71 342 71 365 c 256
 71 404 117 422 158 422 c 256
 243 422 286 364 287 278 c 257
 215 278 l 258
 141 278 107 239 107 201 c 256
 107 168 139 136 200 136 c 256
 249 136 290 154 290 194 c 258
 290 216 l 257
 320 216 l 257
 320 194 l 258
 320 153 353 138 407 138 c 256
 489 138 522 216 522 270 c 256
 522 330 502 371 490 393 c 257
 470 361 441 344 401 344 c 256
 339 344 302 390 302 465 c 256
 302 504 319 548 344 579 c 257
 394 550 482 478 520 418 c 256
 557 359 583 312 583 212 c 256
 583 125 540 0 416 0 c 256
 355 0 327 28 306 58 c 257
 277 22 244 0 194 0 c 256
 95 0 45 79 45 158 c 256
 45 206 69 255 122 278 c 257
 15 278 l 257
435 541 m 256
 435 514 456 493 483 493 c 256
 510 493 531 514 531 541 c 256
 531 568 510 589 483 589 c 256
 456 589 435 568 435 541 c 256
109 561 m 256
 109 651 221 683 327 683 c 256
 490 683 566 632 566 552 c 256
 566 500 532 462 483 462 c 256
 436 462 405 501 405 540 c 256
 405 554 409 580 428 595 c 257
 412 598 384 602 336 602 c 256
 224 602 161 583 161 545 c 256
 161 517 190 504 223 504 c 256
 267 504 299 516 316 524 c 257
 315 518 316 506 312 491 c 257
 288 483 263 476 221 476 c 256
 162 476 109 504 109 561 c 256
EndSplineSet
Validated: 5
EndChar

StartChar: si_DdhU
Encoding: 234 -1 81
GlifName: si_D_dhU_
Width: 631
VWidth: 0
GlyphClass: 2
Flags: HW
LayerCount: 2
Fore
SplineSet
50 -139 m 256
 50 -88 95 -49 149 -49 c 256
 190 -49 227 -72 241 -107 c 257
 209 -119 l 257
 202 -102 181 -80 149 -80 c 256
 113 -80 85 -107 85 -139 c 256
 85 -167 106 -188 174 -188 c 258
 537 -188 l 257
 537 125 l 257
 572 214 l 257
 572 -229 l 257
 153 -229 l 258
 75 -229 50 -182 50 -139 c 256
EndSplineSet
Refer: 453 3498 N 1 0 0 1 0 0 2
Validated: 5
EndChar

StartChar: si_DdhUu
Encoding: 235 -1 82
GlifName: si_D_dhU_u
Width: 631
VWidth: 0
GlyphClass: 2
Flags: HW
LayerCount: 2
Fore
SplineSet
50 -135 m 256
 50 -78 97 -39 149 -39 c 256
 190 -39 222 -54 244 -89 c 257
 212 -100 l 257
 201 -83 182 -68 154 -68 c 256
 116 -68 92 -93 92 -117 c 256
 92 -148 120 -163 153 -163 c 256
 227 -163 312 -112 417 -112 c 256
 467 -112 512 -131 538 -162 c 257
 538 148 l 257
 572 207 l 257
 572 -226 l 257
 547 -226 l 257
 532 -191 488 -143 427 -143 c 256
 338 -143 254 -231 158 -231 c 256
 104 -231 50 -201 50 -135 c 256
EndSplineSet
Refer: 453 3498 N 1 0 0 1 0 0 2
Validated: 5
EndChar

StartChar: si_Dh.halant
Encoding: 284 -1 83
GlifName: si_D_h.halant
Width: 623
VWidth: 0
GlyphClass: 2
Flags: HW
LayerCount: 2
Fore
SplineSet
141 523 m 256
 141 514 159 514 159 503 c 256
 159 501 158 498 156 496 c 257
 188 502 227 507 272 507 c 256
 376 507 459 480 516 414 c 257
 482 525 390 561 277 561 c 256
 212 561 141 546 141 523 c 256
32 190 m 256
 32 281 84 355 148 378 c 256
 168 385 191 389 216 389 c 257
 216 362 l 258
 213 362 209 363 206 363 c 256
 129 363 86 305 86 229 c 256
 86 193 112 137 184 137 c 256
 236 137 281 156 281 218 c 258
 281 243 l 257
 312 243 l 257
 312 218 l 258
 312 156 357 138 403 138 c 256
 484 138 513 213 513 289 c 256
 513 403 432 480 275 480 c 256
 201 480 120 467 41 430 c 257
 41 462 l 257
 72 474 121 487 121 496 c 256
 121 508 93 509 93 532 c 256
 93 569 159 614 271 614 c 256
 474 614 547 479 559 348 c 257
 568 324 575 282 575 241 c 256
 575 138 535 0 412 0 c 256
 364 0 325 20 296 58 c 257
 266 20 230 0 186 0 c 256
 86 0 32 93 32 190 c 256
EndSplineSet
Validated: 1
EndChar

StartChar: si_DhI
Encoding: 285 -1 84
GlifName: si_D_hI_
Width: 623
VWidth: 0
GlyphClass: 2
Flags: HW
LayerCount: 2
Fore
SplineSet
32 190 m 256
 32 281 84 355 148 378 c 256
 168 385 191 389 216 389 c 257
 216 363 l 258
 213 363 209 363 206 363 c 256
 129 363 86 300 86 236 c 256
 86 182 116 137 188 137 c 256
 238 137 282 158 282 220 c 258
 282 243 l 257
 312 243 l 257
 312 220 l 258
 312 158 354 137 402 137 c 256
 494 137 514 238 514 285 c 256
 514 325 508 370 482 404 c 256
 441 458 377 459 278 465 c 256
 191 470 73 465 73 549 c 256
 73 637 201 654 299 654 c 256
 432 654 539 624 539 541 c 256
 539 493 491 471 458 464 c 257
 468 460 478 454 486 448 c 256
 534 413 575 336 575 251 c 257
 574 133 533 0 412 0 c 256
 364 0 325 20 296 58 c 257
 266 20 230 0 186 0 c 256
 86 0 32 93 32 190 c 256
131 525 m 256
 131 499 177 496 277 492 c 256
 316 490 367 489 412 479 c 257
 443 482 466 495 466 515 c 256
 466 551 404 567 299 567 c 256
 225 567 131 559 131 525 c 256
EndSplineSet
Validated: 1
EndChar

StartChar: si_DhIi
Encoding: 286 -1 85
GlifName: si_D_hI_i
Width: 623
VWidth: 0
GlyphClass: 2
Flags: HW
LayerCount: 2
Fore
SplineSet
32 190 m 256
 32 281 84 355 148 378 c 256
 168 385 191 389 216 389 c 257
 216 363 l 258
 213 363 209 363 206 363 c 256
 129 363 86 300 86 236 c 256
 86 182 116 137 188 137 c 256
 238 137 282 158 282 220 c 258
 282 243 l 257
 312 243 l 257
 312 220 l 258
 312 158 354 137 402 137 c 256
 495 137 514 243 514 290 c 256
 514 340 506 374 479 406 c 256
 436 458 377 459 278 465 c 256
 191 470 73 465 73 549 c 256
 73 637 201 654 299 654 c 256
 432 654 539 625 539 529 c 256
 539 490 512 463 480 452 c 257
 482 451 484 449 486 448 c 256
 532 414 575 342 575 250 c 257
 575 133 533 0 412 0 c 256
 364 0 325 20 296 58 c 257
 266 20 230 0 186 0 c 256
 86 0 32 93 32 190 c 256
392 526 m 256
 392 497 417 474 449 474 c 256
 481 474 507 497 507 526 c 256
 507 555 481 578 449 578 c 256
 417 578 392 555 392 526 c 256
372 486 m 257
 364 498 359 512 359 529 c 256
 359 552 369 565 373 570 c 257
 365 572 333 575 297 575 c 256
 223 575 127 566 127 527 c 256
 127 499 177 496 277 492 c 256
 305 491 339 490 372 486 c 257
EndSplineSet
Validated: 1
EndChar

StartChar: si_DhRI
Encoding: 292 -1 86
GlifName: si_D_hR_I_
Width: 623
VWidth: 0
GlyphClass: 2
Flags: HW
LayerCount: 2
Fore
SplineSet
54 -43 m 257
 83 -43 l 257
 120 -85 185 -112 288 -112 c 256
 428 -112 536 -30 536 62 c 256
 536 77 534 89 529 100 c 257
 542 130 l 257
 560 104 568 73 568 37 c 256
 568 -121 443 -214 302 -214 c 256
 172 -214 90 -150 54 -43 c 257
EndSplineSet
Refer: 84 -1 N 1 0 0 1 0 0 2
Validated: 5
EndChar

StartChar: si_DhRIi
Encoding: 293 -1 87
GlifName: si_D_hR_I_i
Width: 623
VWidth: 0
GlyphClass: 2
Flags: HW
LayerCount: 2
Fore
SplineSet
54 -43 m 257
 83 -43 l 257
 120 -85 185 -112 288 -112 c 256
 428 -112 536 -30 536 62 c 256
 536 77 534 89 529 100 c 257
 542 130 l 257
 560 104 568 73 568 37 c 256
 568 -121 443 -214 302 -214 c 256
 172 -214 90 -150 54 -43 c 257
EndSplineSet
Refer: 85 -1 N 1 0 0 1 0 0 2
Validated: 5
EndChar

StartChar: si_DhRa
Encoding: 291 -1 88
GlifName: si_D_hR_a
Width: 623
VWidth: 0
GlyphClass: 2
Flags: HW
LayerCount: 2
Fore
SplineSet
54 -43 m 261
 83 -43 l 261
 120 -85 185 -112 288 -112 c 260
 428 -112 536 -30 536 62 c 260
 536 77 534 89 529 100 c 261
 542 130 l 261
 560 104 568 73 568 37 c 260
 568 -121 443 -214 302 -214 c 260
 172 -214 90 -150 54 -43 c 261
EndSplineSet
Refer: 459 3504 N 1 0 0 1 0 0 2
Validated: 5
EndChar

StartChar: si_DhU
Encoding: 287 -1 89
GlifName: si_D_hU_
Width: 623
VWidth: 0
GlyphClass: 2
Flags: HW
LayerCount: 2
Fore
SplineSet
50 -139 m 256
 50 -88 95 -49 149 -49 c 256
 190 -49 227 -72 241 -107 c 257
 209 -119 l 257
 202 -102 181 -80 149 -80 c 256
 113 -80 85 -107 85 -139 c 256
 85 -167 106 -188 174 -188 c 258
 527 -188 l 257
 527 125 l 257
 562 214 l 257
 562 -229 l 257
 153 -229 l 258
 75 -229 50 -182 50 -139 c 256
EndSplineSet
Refer: 459 3504 N 1 0 0 1 0 0 2
Validated: 5
EndChar

StartChar: si_DhUu
Encoding: 288 -1 90
GlifName: si_D_hU_u
Width: 623
VWidth: 0
GlyphClass: 2
Flags: HW
LayerCount: 2
Fore
SplineSet
50 -135 m 256
 50 -78 97 -39 149 -39 c 256
 190 -39 222 -54 244 -89 c 257
 212 -100 l 257
 201 -83 182 -68 154 -68 c 256
 116 -68 92 -93 92 -117 c 256
 92 -148 120 -163 153 -163 c 256
 227 -163 301 -112 406 -112 c 256
 456 -112 501 -131 527 -162 c 257
 527 148 l 257
 562 207 l 257
 562 -226 l 257
 537 -226 l 257
 522 -191 477 -143 416 -143 c 256
 327 -143 254 -231 158 -231 c 256
 104 -231 50 -201 50 -135 c 256
EndSplineSet
Refer: 459 3504 N 1 0 0 1 0 0 2
Validated: 5
EndChar

StartChar: si_Dha.reph
Encoding: 289 -1 91
GlifName: si_D_ha.reph
Width: 623
VWidth: 0
GlyphClass: 2
Flags: HW
LayerCount: 2
Fore
SplineSet
268 607 m 260
 268 587 286 572 307 572 c 260
 328 572 346 587 346 607 c 260
 346 627 328 643 307 643 c 260
 286 643 268 627 268 607 c 260
167 626 m 260
 167 688 224 725 304 725 c 260
 379 725 442 682 442 613 c 260
 442 590 433 569 417 550 c 261
 383 550 l 261
 396 562 411 585 411 612 c 260
 411 665 363 697 303 697 c 260
 251 697 199 675 199 626 c 260
 199 588 242 571 259 569 c 261
 251 575 241 587 241 608 c 260
 241 642 271 667 306 667 c 260
 346 667 374 640 374 606 c 260
 374 568 340 543 283 543 c 260
 225 543 167 571 167 626 c 260
EndSplineSet
Refer: 459 3504 S 1 0 0 1 0 0 2
Validated: 5
EndChar

StartChar: si_DvocR
Encoding: 271 -1 92
GlifName: si_D_vocR_
Width: 686
VWidth: 0
GlyphClass: 2
Flags: HW
LayerCount: 2
Fore
SplineSet
413 243 m 256
 413 321 447 384 525 384 c 256
 610 384 645 306 645 198 c 256
 645 140 628 51 628 22 c 256
 628 15 628 9 629 3 c 257
 556 3 l 257
 553 12 549 17 542 17 c 256
 530 17 522 -1 494 -1 c 256
 436 -1 413 65 413 104 c 256
 413 150 434 184 477 202 c 256
 499 211 524 215 531 215 c 257
 531 303 522 332 494 332 c 256
 461 332 438 301 438 240 c 256
 438 238 438 238 438 236 c 257
 413 236 l 257
 413 239 413 240 413 243 c 256
443 104 m 256
 443 74 457 29 496 29 c 256
 516 29 521 35 529 39 c 256
 532 40 535 41 538 41 c 257
 530 46 530 74 530 111 c 256
 530 142 531 161 531 179 c 256
 531 182 531 186 531 188 c 257
 528 188 509 183 501 181 c 256
 466 170 443 147 443 104 c 256
EndSplineSet
Refer: 458 3503 N 1 0 0 1 0 0 2
Validated: 1
EndChar

StartChar: si_DvocRr
Encoding: 272 -1 93
GlifName: si_D_vocR_r
Width: 939
VWidth: 0
GlyphClass: 2
Flags: HW
LayerCount: 2
Fore
SplineSet
662 243 m 256
 662 321 697 384 775 384 c 256
 860 384 895 306 895 198 c 256
 895 140 878 51 878 22 c 256
 878 15 878 9 879 3 c 257
 806 3 l 257
 803 12 799 17 792 17 c 256
 780 17 771 -1 743 -1 c 256
 685 -1 663 65 663 104 c 256
 663 150 684 184 727 202 c 256
 749 211 773 215 780 215 c 257
 780 303 772 332 744 332 c 256
 711 332 688 301 688 240 c 256
 688 238 688 238 688 236 c 257
 663 236 l 257
 663 239 662 240 662 243 c 256
693 104 m 256
 693 74 706 29 745 29 c 256
 764 29 771 34 778 38 c 256
 781 39 784 41 788 41 c 257
 780 46 779 74 779 111 c 256
 779 142 780 161 780 179 c 256
 780 182 780 186 780 188 c 257
 777 188 758 183 750 181 c 256
 715 170 693 147 693 104 c 256
413 243 m 256
 413 321 447 384 525 384 c 256
 610 384 645 306 645 198 c 256
 645 140 628 51 628 22 c 256
 628 15 628 9 629 3 c 257
 556 3 l 257
 553 12 549 17 542 17 c 256
 530 17 522 -1 494 -1 c 256
 436 -1 413 65 413 104 c 256
 413 150 434 184 477 202 c 256
 499 211 524 215 531 215 c 257
 531 303 522 332 494 332 c 256
 461 332 438 301 438 240 c 256
 438 238 438 238 438 236 c 257
 413 236 l 257
 413 239 413 240 413 243 c 256
443 104 m 256
 443 74 457 29 496 29 c 256
 515 29 521 34 528 38 c 256
 531 39 534 41 538 41 c 257
 530 46 530 74 530 111 c 256
 530 142 531 161 531 179 c 256
 531 182 531 186 531 188 c 257
 528 188 509 183 501 181 c 256
 466 170 443 147 443 104 c 256
EndSplineSet
Refer: 458 3503 N 1 0 0 1 0 0 2
Validated: 1
EndChar

StartChar: si_F.halant
Encoding: 441 -1 94
GlifName: si_F_.halant
Width: 592
VWidth: 0
GlyphClass: 2
Flags: HW
LayerCount: 2
Fore
SplineSet
394 413 m 257
 394 665 l 257
 447 624 542 619 542 529 c 256
 542 486 508 457 466 457 c 256
 452 457 437 460 422 467 c 257
 422 400 l 257
 394 413 l 257
422 492 m 257
 430 488 441 486 454 486 c 256
 485 486 498 510 498 533 c 256
 498 573 467 592 422 622 c 257
 422 492 l 257
EndSplineSet
Refer: 477 3526 N 1 0 0 1 0 0 2
Validated: 5
EndChar

StartChar: si_FI
Encoding: 442 -1 95
GlifName: si_F_I_
Width: 592
VWidth: 0
GlyphClass: 2
Flags: HW
LayerCount: 2
Fore
SplineSet
62 506 m 256
 62 612 172 655 289 655 c 256
 406 655 516 612 516 506 c 256
 516 433 451 399 376 396 c 257
 398 418 l 257
 435 426 452 437 452 468 c 256
 452 509 373 523 289 523 c 256
 202 523 122 510 122 468 c 256
 122 440 144 423 183 417 c 257
 202 396 l 257
 127 399 62 433 62 506 c 256
EndSplineSet
Refer: 477 3526 N 1 0 0 1 0 0 2
Validated: 5
EndChar

StartChar: si_FIi
Encoding: 443 -1 96
GlifName: si_F_I_i
Width: 592
VWidth: 0
GlyphClass: 2
Flags: HW
LayerCount: 2
Fore
SplineSet
378 502 m 256
 378 472 407 448 441 448 c 256
 475 448 504 472 504 502 c 256
 504 532 475 556 441 556 c 256
 407 556 378 532 378 502 c 256
47 500 m 256
 47 609 168 655 292 655 c 256
 406 655 539 613 539 512 c 256
 539 458 496 419 441 419 c 256
 384 419 345 459 345 503 c 256
 345 513 348 536 361 549 c 257
 352 550 313 552 281 552 c 256
 189 552 93 530 93 471 c 256
 93 449 107 427 149 416 c 257
 135 396 l 257
 84 403 47 445 47 500 c 256
EndSplineSet
Refer: 477 3526 N 1 0 0 1 0 0 2
Validated: 5
EndChar

StartChar: si_FRI
Encoding: 449 -1 97
GlifName: si_F_R_I_
Width: 592
VWidth: 0
GlyphClass: 2
Flags: HW
LayerCount: 2
Fore
SplineSet
62 506 m 256
 62 612 172 655 289 655 c 256
 406 655 516 612 516 506 c 256
 516 433 451 399 376 396 c 257
 398 418 l 257
 435 426 452 437 452 468 c 256
 452 509 373 523 289 523 c 256
 202 523 122 510 122 468 c 256
 122 440 144 423 183 417 c 257
 202 396 l 257
 127 399 62 433 62 506 c 256
58 -43 m 257
 87 -43 l 257
 124 -85 168 -112 271 -112 c 256
 411 -112 505 -30 505 62 c 256
 505 77 500 97 490 107 c 257
 505 137 l 257
 526 113 537 73 537 37 c 256
 537 -121 427 -214 286 -214 c 256
 168 -214 94 -150 58 -43 c 257
EndSplineSet
Refer: 477 3526 N 1 0 0 1 0 0 2
Validated: 5
EndChar

StartChar: si_FRIi
Encoding: 450 -1 98
GlifName: si_F_R_I_i
Width: 592
VWidth: 0
GlyphClass: 2
Flags: HW
LayerCount: 2
Fore
SplineSet
378 502 m 256
 378 472 407 448 441 448 c 256
 475 448 504 472 504 502 c 256
 504 532 475 556 441 556 c 256
 407 556 378 532 378 502 c 256
47 500 m 256
 47 609 168 655 292 655 c 256
 406 655 539 613 539 512 c 256
 539 458 496 419 441 419 c 256
 384 419 345 459 345 503 c 256
 345 513 348 536 361 549 c 257
 352 550 313 552 281 552 c 256
 189 552 93 530 93 471 c 256
 93 449 107 427 149 416 c 257
 135 396 l 257
 84 403 47 445 47 500 c 256
58 -43 m 257
 87 -43 l 257
 124 -85 168 -112 271 -112 c 256
 411 -112 505 -30 505 62 c 256
 505 77 500 97 490 107 c 257
 505 137 l 257
 526 113 537 73 537 37 c 256
 537 -121 427 -214 286 -214 c 256
 168 -214 94 -150 58 -43 c 257
EndSplineSet
Refer: 477 3526 N 1 0 0 1 0 0 2
Validated: 5
EndChar

StartChar: si_FRa
Encoding: 448 -1 99
GlifName: si_F_R_a
Width: 592
VWidth: 0
GlyphClass: 2
Flags: HW
LayerCount: 2
Fore
SplineSet
58 -43 m 261
 87 -43 l 261
 124 -85 168 -112 271 -112 c 260
 411 -112 505 -30 505 62 c 260
 505 77 500 97 490 107 c 261
 505 137 l 261
 526 113 537 73 537 37 c 260
 537 -121 427 -214 286 -214 c 260
 168 -214 94 -150 58 -43 c 261
EndSplineSet
Refer: 477 3526 N 1 0 0 1 0 0 2
Validated: 5
EndChar

StartChar: si_FU
Encoding: 444 -1 100
GlifName: si_F_U_
Width: 592
VWidth: 0
GlyphClass: 2
Flags: HW
LayerCount: 2
Fore
SplineSet
52 -139 m 256
 52 -88 97 -49 151 -49 c 256
 192 -49 229 -72 243 -107 c 257
 211 -119 l 257
 204 -102 183 -80 151 -80 c 256
 115 -80 87 -107 87 -139 c 256
 87 -167 108 -188 176 -188 c 258
 499 -188 l 257
 499 125 l 257
 533 214 l 257
 533 -229 l 257
 155 -229 l 258
 77 -229 52 -182 52 -139 c 256
EndSplineSet
Refer: 477 3526 N 1 0 0 1 0 0 2
Validated: 5
EndChar

StartChar: si_FUu
Encoding: 445 -1 101
GlifName: si_F_U_u
Width: 592
VWidth: 0
GlyphClass: 2
Flags: HW
LayerCount: 2
Fore
SplineSet
52 -135 m 256
 52 -78 99 -39 151 -39 c 256
 192 -39 213 -54 235 -89 c 257
 214 -100 l 257
 203 -83 184 -68 156 -68 c 256
 118 -68 94 -93 94 -117 c 256
 94 -148 122 -163 155 -163 c 256
 229 -163 286 -112 383 -112 c 256
 426 -112 473 -131 499 -162 c 257
 499 148 l 257
 533 207 l 257
 533 -226 l 257
 508 -226 l 257
 493 -191 453 -143 392 -143 c 256
 303 -143 256 -231 160 -231 c 256
 106 -231 52 -201 52 -135 c 256
EndSplineSet
Refer: 477 3526 N 1 0 0 1 0 0 2
Validated: 5
EndChar

StartChar: si_Fa.reph
Encoding: 446 -1 102
GlifName: si_F_a.reph
Width: 592
VWidth: 0
GlyphClass: 2
Flags: HW
LayerCount: 2
Fore
SplineSet
253 499 m 256
 253 479 271 463 292 463 c 256
 313 463 332 479 332 499 c 256
 332 519 313 535 292 535 c 256
 271 535 253 519 253 499 c 256
153 518 m 256
 153 580 210 616 290 616 c 256
 365 616 427 574 427 505 c 256
 427 482 419 460 403 441 c 257
 368 441 l 257
 381 453 396 477 396 504 c 256
 396 557 349 588 289 588 c 256
 237 588 185 567 185 518 c 256
 185 480 227 462 244 460 c 257
 236 466 226 479 226 500 c 256
 226 534 257 559 292 559 c 256
 332 559 359 532 359 498 c 256
 359 460 325 435 268 435 c 256
 210 435 153 463 153 518 c 256
EndSplineSet
Refer: 477 3526 N 1 0 0 1 0 0 2
Validated: 1
EndChar

StartChar: si_G.halant
Encoding: 108 -1 103
GlifName: si_G_.halant
Width: 621
VWidth: 0
GlyphClass: 2
Flags: HW
LayerCount: 2
Fore
SplineSet
424 340 m 257
 424 665 l 257
 477 624 572 619 572 529 c 256
 572 486 538 457 496 457 c 256
 482 457 467 460 452 467 c 257
 452 323 l 257
 424 340 l 257
452 492 m 257
 460 488 471 486 484 486 c 256
 515 486 528 510 528 533 c 256
 528 573 497 592 452 622 c 257
 452 492 l 257
EndSplineSet
Refer: 439 3484 N 1 0 0 1 0 0 2
Validated: 5
EndChar

StartChar: si_GDha
Encoding: 459 -1 104
GlifName: si_G_D_ha
Width: 919
VWidth: 0
GlyphClass: 2
Flags: HW
LayerCount: 2
Fore
SplineSet
33 202 m 256
 33 322 107 421 215 421 c 256
 219 421 224 421 228 421 c 257
 228 396 l 257
 225 396 220 396 217 396 c 256
 135 396 86 321 86 252 c 256
 86 182 139 137 206 137 c 256
 264 137 287 161 287 187 c 256
 287 211 270 215 263 215 c 256
 252 215 245 212 240 209 c 257
 239 203 238 192 238 189 c 257
 210 189 l 257
 220 311 281 421 400 421 c 256
 455 421 480 411 515 389 c 257
 502 382 478 386 466 383 c 257
 445 391 422 393 405 393 c 256
 303 393 260 308 245 236 c 257
 249 238 259 240 264 240 c 256
 313 240 344 197 344 133 c 256
 344 55 288 -2 203 -2 c 256
 95 -2 33 94 33 202 c 256
EndSplineSet
Refer: 459 3504 N 1 0 0 1 299 0 2
Validated: 5
EndChar

StartChar: si_GI
Encoding: 109 -1 105
GlifName: si_G_I_
Width: 621
VWidth: 0
GlyphClass: 2
Flags: HW
LayerCount: 2
Fore
SplineSet
146 524 m 256
 146 613 243 651 343 651 c 256
 446 651 546 604 546 511 c 256
 546 450 508 405 429 399 c 257
 411 421 l 257
 414 421 416 421 419 421 c 256
 476 421 505 455 505 486 c 256
 505 539 428 553 350 553 c 256
 270 553 216 525 216 491 c 256
 216 443 317 421 401 421 c 256
 402 421 402 421 403 421 c 257
 388 398 l 257
 232 401 146 451 146 524 c 256
33 202 m 256
 33 322 110 421 198 421 c 256
 202 421 203 421 207 421 c 257
 207 396 l 257
 204 396 203 396 200 396 c 256
 132 396 86 327 86 252 c 256
 86 182 139 137 206 137 c 256
 264 137 287 161 287 187 c 256
 287 211 270 215 263 215 c 256
 252 215 245 212 240 209 c 257
 239 203 238 192 238 189 c 257
 211 189 l 257
 220 313 281 421 400 421 c 256
 509 421 572 324 572 212 c 256
 572 93 488 -1 360 -1 c 256
 350 -1 340 0 330 1 c 257
 330 28 l 257
 338 27 346 26 354 26 c 256
 456 26 486 108 486 171 c 256
 486 249 450 312 354 312 c 256
 285 312 251 270 244 235 c 257
 250 238 257 240 264 240 c 256
 313 240 344 197 344 133 c 256
 344 55 288 -2 203 -2 c 256
 95 -2 33 94 33 202 c 256
EndSplineSet
Validated: 5
EndChar

StartChar: si_GIi
Encoding: 110 -1 106
GlifName: si_G_I_i
Width: 621
VWidth: 0
GlyphClass: 2
Flags: HW
LayerCount: 2
Fore
SplineSet
33 202 m 256
 33 322 110 421 198 421 c 256
 202 421 203 421 207 421 c 257
 207 396 l 258
 204 396 203 396 200 396 c 256
 132 396 86 327 86 252 c 256
 86 182 139 137 206 137 c 256
 264 137 287 161 287 187 c 256
 287 211 270 215 263 215 c 256
 252 215 245 212 240 209 c 257
 239 203 238 192 238 189 c 258
 211 189 l 257
 218 281 253 365 320 402 c 257
 207 417 146 462 146 524 c 256
 146 613 243 651 343 651 c 256
 446 651 546 604 546 513 c 256
 546 446 490 421 449 421 c 256
 404 421 353 453 353 508 c 256
 353 527 359 542 366 553 c 257
 360 553 356 553 350 553 c 256
 270 553 216 525 216 491 c 256
 216 443 316 421 400 421 c 256
 510 420 572 325 572 212 c 256
 572 93 488 -1 360 -1 c 256
 350 -1 340 0 330 1 c 257
 330 28 l 257
 338 27 346 26 354 26 c 256
 456 26 486 108 486 171 c 256
 486 249 450 312 354 312 c 256
 285 312 251 270 244 235 c 257
 250 238 257 240 264 240 c 256
 313 240 344 197 344 133 c 256
 344 55 288 -2 203 -2 c 256
 95 -2 33 94 33 202 c 256
384 508 m 256
 384 476 413 449 449 449 c 256
 485 449 514 476 514 508 c 256
 514 540 485 566 449 566 c 256
 413 566 384 540 384 508 c 256
EndSplineSet
Validated: 1
EndChar

StartChar: si_GR.halant
Encoding: 115 -1 107
GlifName: si_G_R_.halant
Width: 621
VWidth: 0
GlyphClass: 2
Flags: HW
LayerCount: 2
Fore
SplineSet
54 -43 m 257
 83 -43 l 257
 116 -91 171 -111 282 -111 c 256
 430 -111 539 -30 539 62 c 256
 539 77 536 89 529 100 c 257
 542 130 l 257
 560 104 568 73 568 37 c 256
 568 -121 452 -214 304 -214 c 256
 167 -214 90 -150 54 -43 c 257
EndSplineSet
Refer: 103 -1 N 1 0 0 1 0 0 2
Validated: 5
EndChar

StartChar: si_GRI
Encoding: 116 -1 108
GlifName: si_G_R_I_
Width: 621
VWidth: 0
GlyphClass: 2
Flags: HW
LayerCount: 2
Fore
SplineSet
54 -43 m 257
 83 -43 l 257
 116 -91 171 -111 282 -111 c 256
 430 -111 539 -30 539 62 c 256
 539 77 536 89 529 100 c 257
 542 130 l 257
 560 104 568 73 568 37 c 256
 568 -121 452 -214 304 -214 c 256
 167 -214 90 -150 54 -43 c 257
EndSplineSet
Refer: 105 -1 N 1 0 0 1 0 0 2
Validated: 5
EndChar

StartChar: si_GRIi
Encoding: 117 -1 109
GlifName: si_G_R_I_i
Width: 621
VWidth: 0
GlyphClass: 2
Flags: HW
LayerCount: 2
Fore
SplineSet
54 -43 m 257
 83 -43 l 257
 116 -91 171 -111 282 -111 c 256
 430 -111 539 -30 539 62 c 256
 539 77 536 89 529 100 c 257
 542 130 l 257
 560 104 568 73 568 37 c 256
 568 -121 452 -214 304 -214 c 256
 167 -214 90 -150 54 -43 c 257
EndSplineSet
Refer: 106 -1 N 1 0 0 1 0 0 2
Validated: 5
EndChar

StartChar: si_GRa
Encoding: 114 -1 110
GlifName: si_G_R_a
Width: 621
VWidth: 0
GlyphClass: 2
Flags: HW
LayerCount: 2
Fore
SplineSet
54 -43 m 257
 83 -43 l 257
 116 -91 171 -111 282 -111 c 256
 430 -111 539 -30 539 62 c 256
 539 77 536 89 529 100 c 257
 542 130 l 257
 560 104 568 73 568 37 c 256
 568 -121 452 -214 304 -214 c 256
 167 -214 90 -150 54 -43 c 257
EndSplineSet
Refer: 439 3484 N 1 0 0 1 0 0 2
Validated: 5
EndChar

StartChar: si_GU
Encoding: 111 -1 111
GlifName: si_G_U_
Width: 621
VWidth: 0
GlyphClass: 2
Flags: HW
LayerCount: 2
Fore
SplineSet
299 -78 m 256
 299 -24 324 6 363 22 c 257
 372 -5 l 257
 357 -11 343 -25 343 -47 c 256
 343 -83 385 -103 435 -103 c 256
 495 -103 541 -81 541 -44 c 256
 541 -41 540 -38 540 -35 c 257
 569 -35 l 257
 571 -44 572 -59 572 -68 c 256
 572 -119 529 -187 431 -187 c 256
 365 -187 299 -146 299 -78 c 256
33 202 m 256
 33 322 107 421 215 421 c 256
 219 421 224 421 228 421 c 257
 228 396 l 257
 225 396 220 396 217 396 c 256
 135 396 86 321 86 252 c 256
 86 182 139 137 206 137 c 256
 264 137 287 161 287 187 c 256
 287 211 270 215 263 215 c 256
 252 215 245 212 240 209 c 257
 239 203 238 192 238 189 c 257
 211 189 l 257
 220 313 281 421 400 421 c 256
 509 421 572 324 572 212 c 256
 572 93 496 -1 407 -1 c 256
 387 -1 376 -4 368 -7 c 257
 360 21 l 257
 366 24 382 28 395 28 c 256
 455 28 486 108 486 171 c 256
 486 249 450 312 354 312 c 256
 285 312 251 270 244 235 c 257
 250 238 257 240 264 240 c 256
 313 240 344 197 344 133 c 256
 344 55 288 -2 203 -2 c 256
 95 -2 33 94 33 202 c 256
EndSplineSet
Validated: 5
EndChar

StartChar: si_GUu
Encoding: 112 -1 112
GlifName: si_G_U_u
Width: 621
VWidth: 0
GlyphClass: 2
Flags: HW
LayerCount: 2
Fore
SplineSet
328 -126 m 256
 328 -91 355 -70 391 -65 c 257
 337 -38 l 257
 420 -14 l 257
 331 1 l 257
 384 14 l 257
 503 -6 l 257
 398 -42 l 257
 457 -74 l 257
 430 -81 377 -81 377 -102 c 256
 377 -118 408 -126 449 -126 c 256
 502 -126 545 -110 545 -80 c 256
 545 -75 544 -66 539 -58 c 257
 573 -58 l 257
 577 -70 577 -81 577 -92 c 256
 577 -157 527 -200 447 -200 c 256
 390 -200 328 -183 328 -126 c 256
EndSplineSet
Refer: 439 3484 N 1 0 0 1 0 0 2
Validated: 5
EndChar

StartChar: si_Gh.halant
Encoding: 118 -1 114
GlifName: si_G_h.halant
Width: 661
VWidth: 0
GlyphClass: 2
Flags: HW
LayerCount: 2
Fore
SplineSet
465 396 m 257
 465 665 l 257
 518 624 613 619 613 529 c 256
 613 486 579 457 537 457 c 256
 523 457 508 460 493 467 c 257
 493 380 l 257
 465 396 l 257
493 492 m 257
 501 488 512 486 525 486 c 256
 556 486 569 510 569 533 c 256
 569 573 538 592 493 622 c 257
 493 492 l 257
EndSplineSet
Refer: 440 3485 N 1 0 0 1 0 0 2
Validated: 5
EndChar

StartChar: si_GhI
Encoding: 119 -1 115
GlifName: si_G_hI_
Width: 661
VWidth: 0
GlyphClass: 2
Flags: HW
LayerCount: 2
Fore
SplineSet
100 505 m 256
 100 611 210 654 327 654 c 256
 444 654 553 611 553 505 c 256
 553 432 489 398 414 395 c 257
 441 420 l 257
 465 423 503 440 503 477 c 256
 503 528 414 546 327 546 c 256
 240 546 151 528 151 477 c 256
 151 444 186 424 211 419 c 257
 240 395 l 257
 165 398 100 432 100 505 c 256
EndSplineSet
Refer: 440 3485 N 1 0 0 1 0 0 2
Validated: 5
EndChar

StartChar: si_GhIi
Encoding: 120 -1 116
GlifName: si_G_hI_i
Width: 661
VWidth: 0
GlyphClass: 2
Flags: HW
LayerCount: 2
Fore
SplineSet
414 480 m 256
 414 450 443 427 477 427 c 256
 511 427 540 450 540 480 c 256
 540 510 511 534 477 534 c 256
 443 534 414 510 414 480 c 256
83 505 m 256
 83 610 205 655 329 655 c 256
 443 655 576 614 576 490 c 256
 576 436 532 397 477 397 c 256
 420 397 381 437 381 481 c 256
 381 516 400 538 416 547 c 257
 405 549 360 553 330 553 c 256
 238 553 131 530 131 471 c 256
 131 449 144 427 180 417 c 257
 171 396 l 257
 119 401 83 445 83 505 c 256
EndSplineSet
Refer: 440 3485 N 1 0 0 1 0 0 2
Validated: 5
EndChar

StartChar: si_GhRI
Encoding: 125 -1 117
GlifName: si_G_hR_I_
Width: 661
VWidth: 0
GlyphClass: 2
Flags: HW
LayerCount: 2
Fore
SplineSet
62 -43 m 261
 91 -43 l 261
 126 -85 192 -113 303 -113 c 260
 451 -113 583 -30 583 62 c 260
 583 77 581 89 574 100 c 261
 586 130 l 261
 604 104 613 73 613 37 c 260
 613 -121 473 -214 325 -214 c 260
 188 -214 98 -150 62 -43 c 261
EndSplineSet
Refer: 115 -1 N 1 0 0 1 0 0 2
Validated: 5
EndChar

StartChar: si_GhRIi
Encoding: 126 -1 118
GlifName: si_G_hR_I_i
Width: 661
VWidth: 0
GlyphClass: 2
Flags: HW
LayerCount: 2
Fore
SplineSet
62 -43 m 257
 91 -43 l 257
 126 -85 192 -113 303 -113 c 256
 451 -113 583 -30 583 62 c 256
 583 77 581 89 574 100 c 257
 586 130 l 257
 604 104 613 73 613 37 c 256
 613 -121 473 -214 325 -214 c 256
 188 -214 98 -150 62 -43 c 257
EndSplineSet
Refer: 116 -1 N 1 0 0 1 0 0 2
Validated: 5
EndChar

StartChar: si_GhRa
Encoding: 127 -1 119
GlifName: si_G_hR_a
Width: 661
VWidth: 0
GlyphClass: 2
Flags: HW
LayerCount: 2
Fore
SplineSet
62 -43 m 257
 91 -43 l 257
 126 -85 192 -113 303 -113 c 256
 451 -113 583 -30 583 62 c 256
 583 77 581 89 574 100 c 257
 586 130 l 257
 604 104 613 73 613 37 c 256
 613 -121 473 -214 325 -214 c 256
 188 -214 98 -150 62 -43 c 257
EndSplineSet
Refer: 440 3485 N 1 0 0 1 0 0 2
Validated: 5
EndChar

StartChar: si_GhU
Encoding: 121 -1 120
GlifName: si_G_hU_
Width: 661
VWidth: 0
GlyphClass: 2
Flags: HW
LayerCount: 2
Fore
SplineSet
65 -139 m 256
 65 -88 110 -49 164 -49 c 256
 205 -49 242 -72 256 -107 c 257
 224 -119 l 257
 217 -102 196 -80 164 -80 c 256
 128 -80 100 -107 100 -139 c 256
 100 -167 121 -188 189 -188 c 258
 567 -188 l 257
 567 125 l 257
 602 214 l 257
 602 -229 l 257
 168 -229 l 258
 90 -229 65 -182 65 -139 c 256
EndSplineSet
Refer: 440 3485 N 1 0 0 1 0 0 2
Validated: 5
EndChar

StartChar: si_GhUu
Encoding: 122 -1 121
GlifName: si_G_hU_u
Width: 661
VWidth: 0
GlyphClass: 2
Flags: HW
LayerCount: 2
Fore
SplineSet
66 -135 m 256
 66 -78 114 -39 166 -39 c 256
 207 -39 238 -54 260 -89 c 257
 228 -100 l 257
 217 -83 198 -68 170 -68 c 256
 132 -68 108 -93 108 -117 c 256
 108 -148 142 -163 175 -163 c 256
 287 -163 342 -112 447 -112 c 256
 497 -112 542 -131 568 -162 c 257
 568 148 l 257
 602 207 l 257
 602 -226 l 257
 577 -226 l 257
 562 -191 518 -143 457 -143 c 256
 368 -143 299 -231 180 -231 c 256
 126 -231 66 -201 66 -135 c 256
EndSplineSet
Refer: 440 3485 N 1 0 0 1 0 0 2
Validated: 5
EndChar

StartChar: si_Gha.reph
Encoding: 123 -1 122
GlifName: si_G_ha.reph
Width: 661
VWidth: 0
GlyphClass: 2
Flags: HW
LayerCount: 2
Fore
SplineSet
290 499 m 256
 290 479 308 463 329 463 c 256
 350 463 368 479 368 499 c 256
 368 519 350 535 329 535 c 256
 308 535 290 519 290 499 c 256
189 518 m 256
 189 580 246 616 326 616 c 256
 401 616 464 574 464 505 c 256
 464 482 455 460 439 441 c 257
 405 441 l 257
 418 453 433 477 433 504 c 256
 433 557 385 588 325 588 c 256
 273 588 221 567 221 518 c 256
 221 480 264 462 281 460 c 257
 273 466 263 479 263 500 c 256
 263 534 293 559 328 559 c 256
 368 559 396 532 396 498 c 256
 396 460 362 435 305 435 c 256
 247 435 189 463 189 518 c 256
EndSplineSet
Refer: 440 3485 N 1 0 0 1 0 0 2
Validated: 5
EndChar

StartChar: si_H.halant
Encoding: 426 -1 123
GlifName: si_H_.halant
Width: 637
VWidth: 0
GlyphClass: 2
Flags: HW
LayerCount: 2
Fore
SplineSet
441 403 m 257
 441 665 l 257
 494 624 589 619 589 529 c 256
 589 486 555 457 513 457 c 256
 499 457 484 460 469 467 c 257
 469 397 l 257
 441 403 l 257
469 492 m 257
 477 488 487 486 500 486 c 256
 531 486 545 510 545 533 c 256
 545 573 514 592 469 622 c 257
 469 492 l 257
EndSplineSet
Refer: 475 3524 N 1 0 0 1 0 0 2
Validated: 5
EndChar

StartChar: si_HI
Encoding: 427 -1 124
GlifName: si_H_I_
Width: 637
VWidth: 0
GlyphClass: 2
Flags: HW
LayerCount: 2
Fore
SplineSet
146 524 m 256
 146 613 243 651 343 651 c 256
 446 651 546 604 546 511 c 256
 546 450 508 403 429 397 c 257
 407 421 l 257
 410 421 416 421 419 421 c 256
 476 421 505 455 505 486 c 256
 505 539 428 553 350 553 c 256
 270 553 216 525 216 491 c 256
 216 443 317 421 401 421 c 256
 402 421 402 421 403 421 c 257
 388 398 l 257
 232 401 146 451 146 524 c 256
EndSplineSet
Refer: 475 3524 N 1 0 0 1 0 0 2
Validated: 5
EndChar

StartChar: si_HIi
Encoding: 428 -1 125
GlifName: si_H_I_i
Width: 637
VWidth: 0
GlyphClass: 2
Flags: HW
LayerCount: 2
Fore
SplineSet
384 508 m 256
 384 476 413 449 449 449 c 256
 485 449 514 476 514 508 c 256
 514 540 485 566 449 566 c 256
 413 566 384 540 384 508 c 256
146 524 m 256
 146 613 243 651 343 651 c 256
 446 651 546 604 546 513 c 256
 546 446 490 421 449 421 c 256
 404 421 353 453 353 508 c 256
 353 527 359 542 366 553 c 257
 360 553 356 553 350 553 c 256
 270 553 216 525 216 491 c 256
 216 443 317 421 401 421 c 256
 402 421 402 421 403 421 c 257
 388 400 l 257
 232 403 146 451 146 524 c 256
EndSplineSet
Refer: 475 3524 N 1 0 0 1 0 0 2
Validated: 5
EndChar

StartChar: si_HRIi
Encoding: 435 -1 126
GlifName: si_H_R_I_i
Width: 637
VWidth: 0
GlyphClass: 2
Flags: HW
LayerCount: 2
Fore
SplineSet
384 508 m 256
 384 476 413 449 449 449 c 256
 485 449 514 476 514 508 c 256
 514 540 485 566 449 566 c 256
 413 566 384 540 384 508 c 256
146 524 m 256
 146 613 243 651 343 651 c 256
 446 651 546 604 546 513 c 256
 546 446 490 421 449 421 c 256
 404 421 353 453 353 508 c 256
 353 527 359 542 366 553 c 257
 360 553 356 553 350 553 c 256
 270 553 216 525 216 491 c 256
 216 443 317 421 401 421 c 256
 402 421 402 421 403 421 c 257
 388 400 l 257
 232 403 146 451 146 524 c 256
60 -43 m 257
 89 -43 l 257
 122 -91 180 -111 291 -111 c 256
 439 -111 559 -30 559 62 c 256
 559 77 556 89 549 100 c 257
 562 130 l 257
 580 104 588 73 588 37 c 256
 588 -121 460 -214 312 -214 c 256
 175 -214 96 -150 60 -43 c 257
EndSplineSet
Refer: 475 3524 N 1 0 0 1 0 0 2
Validated: 5
EndChar

StartChar: si_HRa
Encoding: 433 -1 127
GlifName: si_H_R_a
Width: 637
VWidth: 0
GlyphClass: 2
Flags: HW
LayerCount: 2
Fore
SplineSet
60 -43 m 261
 89 -43 l 261
 122 -91 180 -111 291 -111 c 260
 439 -111 559 -30 559 62 c 260
 559 77 556 89 549 100 c 261
 562 130 l 261
 580 104 588 73 588 37 c 260
 588 -121 460 -214 312 -214 c 260
 175 -214 96 -150 60 -43 c 261
EndSplineSet
Refer: 475 3524 N 1 0 0 1 0 0 2
Validated: 5
EndChar

StartChar: si_HU
Encoding: 429 -1 128
GlifName: si_H_U_
Width: 637
VWidth: 0
GlyphClass: 2
Flags: HW
LayerCount: 2
Fore
SplineSet
44 -139 m 256
 44 -88 89 -49 143 -49 c 256
 184 -49 221 -72 235 -107 c 257
 203 -119 l 257
 196 -102 175 -80 143 -80 c 256
 107 -80 79 -107 79 -139 c 256
 79 -167 100 -188 168 -188 c 258
 550 -188 l 257
 550 125 l 257
 584 214 l 257
 584 -229 l 257
 147 -229 l 258
 69 -229 44 -182 44 -139 c 256
EndSplineSet
Refer: 475 3524 N 1 0 0 1 0 0 2
Validated: 5
EndChar

StartChar: si_HUu
Encoding: 430 -1 129
GlifName: si_H_U_u
Width: 637
VWidth: 0
GlyphClass: 2
Flags: HW
LayerCount: 2
Fore
SplineSet
44 -135 m 256
 44 -78 92 -39 144 -39 c 256
 185 -39 216 -54 238 -89 c 257
 206 -100 l 257
 195 -83 176 -68 148 -68 c 256
 110 -68 86 -93 86 -117 c 256
 86 -148 114 -163 147 -163 c 256
 221 -163 324 -112 429 -112 c 256
 479 -112 524 -131 550 -162 c 257
 550 148 l 257
 584 207 l 257
 584 -226 l 257
 559 -226 l 257
 544 -191 499 -143 438 -143 c 256
 349 -143 248 -231 152 -231 c 256
 98 -231 44 -201 44 -135 c 256
EndSplineSet
Refer: 475 3524 N 1 0 0 1 0 0 2
Validated: 5
EndChar

StartChar: si_Ha.reph
Encoding: 431 -1 130
GlifName: si_H_a.reph
Width: 637
VWidth: 0
GlyphClass: 2
Flags: HW
LayerCount: 2
Fore
SplineSet
265 499 m 256
 265 479 283 463 304 463 c 256
 325 463 343 479 343 499 c 256
 343 519 325 535 304 535 c 256
 283 535 265 519 265 499 c 256
164 518 m 256
 164 580 221 616 301 616 c 256
 376 616 439 574 439 505 c 256
 439 482 430 460 414 441 c 257
 379 441 l 257
 392 453 407 477 407 504 c 256
 407 557 360 588 300 588 c 256
 248 588 196 567 196 518 c 256
 196 480 239 462 256 460 c 257
 248 466 238 479 238 500 c 256
 238 534 268 559 303 559 c 256
 343 559 370 532 370 498 c 256
 370 460 337 435 280 435 c 256
 222 435 164 463 164 518 c 256
EndSplineSet
Refer: 475 3524 N 1 0 0 1 0 0 2
Validated: 1
EndChar

StartChar: si_J.halant
Encoding: 151 -1 131
GlifName: si_J_.halant
Width: 583
VWidth: 0
GlyphClass: 2
Flags: HW
LayerCount: 2
Fore
SplineSet
287 328 m 257
 287 739 l 257
 340 698 435 693 435 603 c 256
 435 560 401 531 359 531 c 256
 345 531 330 534 315 541 c 257
 315 391 l 257
 287 328 l 257
315 566 m 257
 323 562 334 559 347 559 c 256
 378 559 391 583 391 606 c 256
 391 646 360 665 315 695 c 257
 315 566 l 257
EndSplineSet
Refer: 445 3490 N 1 0 0 1 0 0 2
Validated: 5
EndChar

StartChar: si_JI
Encoding: 152 -1 132
GlifName: si_J_I_
Width: 583
VWidth: 0
GlyphClass: 2
Flags: HW
LayerCount: 2
Fore
SplineSet
228 478 m 256
 228 563 296 642 373 642 c 256
 419 642 450 611 450 569 c 256
 450 565 449 563 449 559 c 257
 420 531 l 257
 422 536 425 551 425 562 c 256
 425 585 413 595 396 595 c 256
 340 595 288 534 288 471 c 256
 288 440 302 421 332 421 c 256
 341 421 349 421 365 426 c 257
 361 415 l 257
 348 407 321 398 319 397 c 257
 318 397 316 397 315 397 c 256
 254 397 228 429 228 478 c 256
EndSplineSet
Refer: 445 3490 N 1 0 0 1 0 0 2
Validated: 5
EndChar

StartChar: si_JIi
Encoding: 153 -1 133
GlifName: si_J_I_i
Width: 583
VWidth: 0
GlyphClass: 2
Flags: HW
LayerCount: 2
Fore
SplineSet
331 565 m 256
 331 539 351 519 377 519 c 256
 403 519 424 539 424 565 c 256
 424 591 403 612 377 612 c 256
 351 612 331 591 331 565 c 256
228 478 m 256
 228 563 296 641 378 641 c 256
 422 641 453 605 453 565 c 256
 453 527 424 490 378 490 c 256
 331 490 307 530 307 545 c 256
 307 545 307 546 307 547 c 257
 296 528 288 504 288 477 c 256
 288 442 310 419 335 419 c 256
 344 419 356 421 364 426 c 257
 361 415 l 257
 348 407 321 398 319 397 c 257
 318 397 316 397 315 397 c 256
 254 397 228 429 228 478 c 256
EndSplineSet
Refer: 445 3490 N 1 0 0 1 0 0 2
Validated: 5
EndChar

StartChar: si_JRI
Encoding: 159 -1 134
GlifName: si_J_R_I_
Width: 583
VWidth: 0
GlyphClass: 2
Flags: HW
LayerCount: 2
Fore
SplineSet
40 -43 m 257
 68 -43 l 257
 105 -85 166 -112 269 -112 c 256
 409 -112 506 -30 506 62 c 256
 506 77 504 89 499 100 c 257
 512 130 l 257
 530 104 538 73 538 37 c 256
 538 -121 423 -214 282 -214 c 256
 152 -214 76 -150 40 -43 c 257
228 478 m 256
 228 563 296 642 373 642 c 256
 419 642 450 611 450 569 c 256
 450 565 449 563 449 559 c 257
 420 531 l 257
 422 536 425 551 425 562 c 256
 425 585 413 595 396 595 c 256
 340 595 288 534 288 471 c 256
 288 440 302 421 332 421 c 256
 341 421 349 421 365 426 c 257
 361 415 l 257
 319 397 l 257
 318 397 316 397 315 397 c 256
 254 397 228 429 228 478 c 256
EndSplineSet
Refer: 445 3490 N 1 0 0 1 0 0 2
Validated: 5
EndChar

StartChar: si_JRIi
Encoding: 160 -1 135
GlifName: si_J_R_I_i
Width: 583
VWidth: 0
GlyphClass: 2
Flags: HW
LayerCount: 2
Fore
SplineSet
40 -43 m 257
 68 -43 l 257
 105 -85 166 -112 269 -112 c 256
 409 -112 506 -30 506 62 c 256
 506 77 504 89 499 100 c 257
 512 130 l 257
 530 104 538 73 538 37 c 256
 538 -121 423 -214 282 -214 c 256
 152 -214 76 -150 40 -43 c 257
331 565 m 256
 331 539 351 519 377 519 c 256
 403 519 424 539 424 565 c 256
 424 591 403 612 377 612 c 256
 351 612 331 591 331 565 c 256
228 478 m 256
 228 563 296 641 378 641 c 256
 422 641 453 605 453 565 c 256
 453 527 424 490 378 490 c 256
 331 490 307 530 307 545 c 256
 307 545 307 546 307 547 c 257
 296 528 288 504 288 477 c 256
 288 442 310 419 335 419 c 256
 344 419 356 421 364 426 c 257
 361 415 l 257
 319 397 l 257
 318 397 316 397 315 397 c 256
 254 397 228 429 228 478 c 256
EndSplineSet
Refer: 445 3490 N 1 0 0 1 0 0 2
Validated: 5
EndChar

StartChar: si_JRa
Encoding: 158 -1 136
GlifName: si_J_R_a
Width: 583
VWidth: 0
GlyphClass: 2
Flags: HW
LayerCount: 2
Fore
SplineSet
40 -43 m 261
 68 -43 l 261
 105 -85 166 -112 269 -112 c 260
 409 -112 506 -30 506 62 c 260
 506 77 504 89 499 100 c 261
 512 130 l 261
 530 104 538 73 538 37 c 260
 538 -121 423 -214 282 -214 c 260
 152 -214 76 -150 40 -43 c 261
EndSplineSet
Refer: 445 3490 N 1 0 0 1 0 0 2
Validated: 5
EndChar

StartChar: si_JU
Encoding: 154 -1 137
GlifName: si_J_U_
Width: 583
VWidth: 0
GlyphClass: 2
Flags: HW
LayerCount: 2
Fore
SplineSet
38 -139 m 256
 38 -88 83 -49 137 -49 c 256
 178 -49 215 -72 229 -107 c 257
 197 -119 l 257
 190 -102 169 -80 137 -80 c 256
 101 -80 73 -107 73 -139 c 256
 73 -167 94 -188 162 -188 c 258
 493 -188 l 257
 493 125 l 257
 528 214 l 257
 528 -229 l 257
 141 -229 l 258
 63 -229 38 -182 38 -139 c 256
EndSplineSet
Refer: 445 3490 N 1 0 0 1 0 0 2
Validated: 5
EndChar

StartChar: si_JUu
Encoding: 155 -1 138
GlifName: si_J_U_u
Width: 583
VWidth: 0
GlyphClass: 2
Flags: HW
LayerCount: 2
Fore
SplineSet
38 -135 m 256
 38 -78 86 -39 138 -39 c 256
 179 -39 210 -54 232 -89 c 257
 200 -100 l 257
 189 -83 171 -68 143 -68 c 256
 105 -68 80 -93 80 -117 c 256
 80 -148 109 -163 142 -163 c 256
 216 -163 270 -112 375 -112 c 256
 425 -112 468 -131 494 -162 c 257
 494 148 l 257
 528 207 l 257
 528 -226 l 257
 503 -226 l 257
 488 -191 446 -143 385 -143 c 256
 296 -143 242 -231 146 -231 c 256
 92 -231 38 -201 38 -135 c 256
EndSplineSet
Refer: 445 3490 N 1 0 0 1 0 0 2
Validated: 5
EndChar

StartChar: si_Ja.reph
Encoding: 156 -1 139
GlifName: si_J_a.reph
Width: 583
VWidth: 0
GlyphClass: 2
Flags: HW
LayerCount: 2
Fore
SplineSet
198 499 m 256
 198 479 217 463 238 463 c 256
 259 463 277 479 277 499 c 256
 277 519 259 535 238 535 c 256
 217 535 198 519 198 499 c 256
98 518 m 256
 98 580 155 616 235 616 c 256
 310 616 372 574 372 505 c 256
 372 482 364 460 348 441 c 257
 313 441 l 257
 326 453 341 477 341 504 c 256
 341 557 294 588 234 588 c 256
 182 588 130 567 130 518 c 256
 130 480 172 462 189 460 c 257
 181 466 171 479 171 500 c 256
 171 534 202 559 237 559 c 256
 277 559 304 532 304 498 c 256
 304 460 270 435 213 435 c 256
 155 435 98 463 98 518 c 256
EndSplineSet
Refer: 445 3490 N 1 0 0 1 0 0 2
Validated: 5
EndChar

StartChar: si_Jh.halant
Encoding: 161 -1 140
GlifName: si_J_h.halant
Width: 1061
VWidth: 0
GlyphClass: 2
Flags: HW
LayerCount: 2
Fore
SplineSet
89 140 m 257
 101 150 112 156 126 156 c 256
 157 156 168 137 207 137 c 256
 252 137 273 153 273 209 c 256
 273 211 273 209 273 211 c 257
 301 211 l 257
 301 210 301 211 301 210 c 256
 301 150 324 137 368 137 c 256
 408 137 433 165 433 199 c 256
 433 240 393 280 294 280 c 256
 239 280 200 274 176 262 c 257
 159 248 143 229 128 207 c 256
 102 168 99 160 89 140 c 257
21 21 m 257
 29 89 72 180 106 227 c 256
 131 262 145 274 167 297 c 257
 176 307 187 323 187 344 c 256
 187 363 177 377 154 377 c 256
 140 377 125 369 121 354 c 256
 115 333 119 334 110 315 c 256
 102 298 85 290 70 290 c 256
 34 290 28 320 28 332 c 256
 28 385 78 423 133 423 c 256
 184 423 215 390 215 350 c 256
 215 344 215 341 214 333 c 257
 272 387 368 421 453 421 c 256
 556 421 634 395 655 389 c 257
 648 388 601 376 589 375 c 257
 550 385 504 393 460 393 c 256
 324 393 246 327 211 297 c 257
 240 305 271 307 298 307 c 256
 415 307 503 244 503 123 c 256
 503 66 471 -1 388 -1 c 256
 343 -1 310 20 289 62 c 257
 272 22 240 -1 199 -1 c 256
 114 -1 117 71 85 71 c 256
 63 71 51 50 48 11 c 257
 21 21 l 257
580 523 m 256
 580 514 599 514 599 503 c 256
 599 501 598 498 596 496 c 257
 628 502 667 507 712 507 c 256
 816 507 898 480 955 414 c 257
 921 525 830 561 717 561 c 256
 652 561 580 546 580 523 c 256
472 190 m 256
 472 281 524 355 588 378 c 256
 608 385 630 389 655 389 c 257
 655 362 l 258
 652 362 649 363 646 363 c 256
 569 363 525 305 525 229 c 256
 525 193 551 137 623 137 c 256
 675 137 721 156 721 218 c 258
 721 243 l 257
 751 243 l 257
 751 218 l 258
 751 156 797 138 843 138 c 256
 924 138 953 213 953 289 c 256
 953 403 872 480 715 480 c 256
 641 480 558 464 480 438 c 257
 480 472 l 257
 511 478 561 490 561 496 c 256
 561 508 532 509 532 532 c 256
 532 569 599 614 711 614 c 256
 914 614 986 479 998 348 c 257
 1007 324 1014 282 1014 241 c 256
 1014 138 975 0 852 0 c 256
 804 0 764 20 735 58 c 257
 705 20 669 0 625 0 c 256
 525 0 472 93 472 190 c 256
EndSplineSet
Validated: 5
EndChar

StartChar: si_JhI
Encoding: 162 -1 141
GlifName: si_J_hI_
Width: 1061
VWidth: 0
GlyphClass: 2
Flags: HW
LayerCount: 2
Fore
SplineSet
89 140 m 257
 101 150 112 156 126 156 c 256
 157 156 168 137 207 137 c 256
 252 137 273 153 273 209 c 256
 273 211 273 209 273 211 c 257
 301 211 l 257
 301 210 301 211 301 210 c 256
 301 150 324 137 368 137 c 256
 408 137 433 165 433 199 c 256
 433 240 393 280 294 280 c 256
 239 280 200 274 176 262 c 257
 159 248 143 229 128 207 c 256
 102 168 99 160 89 140 c 257
21 21 m 257
 29 89 72 180 106 227 c 256
 131 262 145 274 167 297 c 257
 176 307 187 323 187 344 c 256
 187 363 177 377 154 377 c 256
 140 377 125 369 121 354 c 256
 115 333 119 334 110 315 c 256
 102 298 85 290 70 290 c 256
 34 290 28 320 28 332 c 256
 28 385 78 423 133 423 c 256
 184 423 215 390 215 350 c 256
 215 344 215 341 214 333 c 257
 272 387 368 421 453 421 c 256
 556 421 634 395 655 389 c 257
 648 388 601 376 589 375 c 257
 550 385 504 393 460 393 c 256
 324 393 246 327 211 297 c 257
 240 305 271 307 298 307 c 256
 415 307 503 244 503 123 c 256
 503 66 471 -1 388 -1 c 256
 343 -1 310 20 289 62 c 257
 272 22 240 -1 199 -1 c 256
 114 -1 117 71 85 71 c 256
 63 71 51 50 48 11 c 257
 21 21 l 257
EndSplineSet
Refer: 84 -1 N 1 0 0 1 439 0 2
Validated: 5
EndChar

StartChar: si_JhIi
Encoding: 163 -1 142
GlifName: si_J_hI_i
Width: 1061
VWidth: 0
GlyphClass: 2
Flags: HW
LayerCount: 2
Fore
SplineSet
89 140 m 257
 101 150 112 156 126 156 c 256
 157 156 168 137 207 137 c 256
 252 137 273 153 273 209 c 256
 273 211 273 209 273 211 c 257
 301 211 l 257
 301 210 301 211 301 210 c 256
 301 150 324 137 368 137 c 256
 408 137 433 165 433 199 c 256
 433 240 393 280 294 280 c 256
 239 280 200 274 176 262 c 257
 159 248 143 229 128 207 c 256
 102 168 99 160 89 140 c 257
21 21 m 257
 29 89 72 180 106 227 c 256
 131 262 145 274 167 297 c 257
 176 307 187 323 187 344 c 256
 187 363 177 377 154 377 c 256
 140 377 125 369 121 354 c 256
 115 333 119 334 110 315 c 256
 102 298 85 290 70 290 c 256
 34 290 28 320 28 332 c 256
 28 385 78 423 133 423 c 256
 184 423 215 390 215 350 c 256
 215 344 215 341 214 333 c 257
 272 387 368 421 453 421 c 256
 556 421 634 395 655 389 c 257
 648 388 601 376 589 375 c 257
 550 385 504 393 460 393 c 256
 324 393 246 327 211 297 c 257
 240 305 271 307 298 307 c 256
 415 307 503 244 503 123 c 256
 503 66 471 -1 388 -1 c 256
 343 -1 310 20 289 62 c 257
 272 22 240 -1 199 -1 c 256
 114 -1 117 71 85 71 c 256
 63 71 51 50 48 11 c 257
 21 21 l 257
EndSplineSet
Refer: 85 -1 N 1 0 0 1 439 0 2
Validated: 5
EndChar

StartChar: si_JhRI
Encoding: 171 -1 143
GlifName: si_J_hR_I_
Width: 1061
VWidth: 0
GlyphClass: 2
Flags: HW
LayerCount: 2
Fore
SplineSet
494 -43 m 257
 523 -43 l 257
 560 -85 625 -112 728 -112 c 256
 868 -112 976 -30 976 62 c 256
 976 77 974 89 969 100 c 257
 981 130 l 257
 999 104 1008 73 1008 37 c 256
 1008 -121 883 -214 742 -214 c 256
 612 -214 530 -150 494 -43 c 257
EndSplineSet
Refer: 141 -1 N 1 0 0 1 0 0 2
Validated: 5
EndChar

StartChar: si_JhRIi
Encoding: 172 -1 144
GlifName: si_J_hR_I_i
Width: 1061
VWidth: 0
GlyphClass: 2
Flags: HW
LayerCount: 2
Fore
SplineSet
494 -43 m 257
 523 -43 l 257
 560 -85 625 -112 728 -112 c 256
 868 -112 976 -30 976 62 c 256
 976 77 974 89 969 100 c 257
 981 130 l 257
 999 104 1008 73 1008 37 c 256
 1008 -121 883 -214 742 -214 c 256
 612 -214 530 -150 494 -43 c 257
EndSplineSet
Refer: 142 -1 N 1 0 0 1 0 0 2
Validated: 5
EndChar

StartChar: si_JhRa
Encoding: 170 -1 145
GlifName: si_J_hR_a
Width: 1061
VWidth: 0
GlyphClass: 2
Flags: HW
LayerCount: 2
Fore
SplineSet
494 -43 m 261
 523 -43 l 261
 560 -85 625 -112 728 -112 c 260
 868 -112 976 -30 976 62 c 260
 976 77 974 89 969 100 c 261
 981 130 l 261
 999 104 1008 73 1008 37 c 260
 1008 -121 883 -214 742 -214 c 260
 612 -214 530 -150 494 -43 c 261
EndSplineSet
Refer: 446 3491 N 1 0 0 1 0 0 2
Validated: 5
EndChar

StartChar: si_JhU
Encoding: 164 -1 146
GlifName: si_J_hU_
Width: 1061
VWidth: 0
GlyphClass: 2
Flags: HW
LayerCount: 2
Fore
SplineSet
490 -139 m 256
 490 -88 535 -49 589 -49 c 256
 630 -49 667 -72 681 -107 c 257
 649 -119 l 257
 642 -102 621 -80 589 -80 c 256
 553 -80 524 -107 524 -139 c 256
 524 -167 546 -188 614 -188 c 258
 967 -188 l 257
 967 125 l 257
 1001 214 l 257
 1001 -229 l 257
 593 -229 l 258
 515 -229 490 -182 490 -139 c 256
EndSplineSet
Refer: 446 3491 N 1 0 0 1 0 0 2
Validated: 5
EndChar

StartChar: si_JhU.reph
Encoding: 167 -1 147
GlifName: si_J_hU_.reph
Width: 1061
VWidth: 0
GlyphClass: 2
Flags: HW
LayerCount: 2
Fore
SplineSet
707 607 m 256
 707 587 726 572 747 572 c 256
 768 572 786 587 786 607 c 256
 786 627 768 643 747 643 c 256
 726 643 707 627 707 607 c 256
607 626 m 256
 607 688 664 725 744 725 c 256
 819 725 881 682 881 613 c 256
 881 590 873 569 857 550 c 257
 822 550 l 257
 835 562 850 585 850 612 c 256
 850 665 803 697 743 697 c 256
 691 697 639 675 639 626 c 256
 639 588 681 571 698 569 c 257
 690 575 680 587 680 608 c 256
 680 642 711 667 746 667 c 256
 786 667 813 640 813 606 c 256
 813 568 779 543 722 543 c 256
 664 543 607 571 607 626 c 256
EndSplineSet
Refer: 146 -1 N 1 0 0 1 0 0 2
Validated: 5
EndChar

StartChar: si_JhUu
Encoding: 165 -1 148
GlifName: si_J_hU_u
Width: 1061
VWidth: 0
GlyphClass: 2
Flags: HW
LayerCount: 2
Fore
SplineSet
489 -135 m 256
 489 -78 537 -39 589 -39 c 256
 630 -39 662 -54 684 -89 c 257
 651 -100 l 257
 640 -83 622 -68 594 -68 c 256
 556 -68 531 -93 531 -117 c 256
 531 -148 560 -163 593 -163 c 256
 667 -163 741 -112 846 -112 c 256
 896 -112 941 -131 967 -162 c 257
 967 148 l 257
 1001 207 l 257
 1001 -226 l 257
 976 -226 l 257
 961 -191 916 -143 855 -143 c 256
 766 -143 694 -231 598 -231 c 256
 544 -231 489 -201 489 -135 c 256
EndSplineSet
Refer: 446 3491 N 1 0 0 1 0 0 2
Validated: 5
EndChar

StartChar: si_JhUu.reph
Encoding: 168 -1 149
GlifName: si_J_hU_u.reph
Width: 1061
VWidth: 0
GlyphClass: 2
Flags: HW
LayerCount: 2
Fore
SplineSet
707 607 m 256
 707 587 726 572 747 572 c 256
 768 572 786 587 786 607 c 256
 786 627 768 643 747 643 c 256
 726 643 707 627 707 607 c 256
607 626 m 256
 607 688 664 725 744 725 c 256
 819 725 881 682 881 613 c 256
 881 590 873 569 857 550 c 257
 822 550 l 257
 835 562 850 585 850 612 c 256
 850 665 803 697 743 697 c 256
 691 697 639 675 639 626 c 256
 639 588 681 571 698 569 c 257
 690 575 680 587 680 608 c 256
 680 642 711 667 746 667 c 256
 786 667 813 640 813 606 c 256
 813 568 779 543 722 543 c 256
 664 543 607 571 607 626 c 256
489 -135 m 256
 489 -78 537 -39 589 -39 c 256
 630 -39 662 -54 684 -89 c 257
 651 -100 l 257
 640 -83 622 -68 594 -68 c 256
 556 -68 531 -93 531 -117 c 256
 531 -148 560 -163 593 -163 c 256
 667 -163 741 -112 846 -112 c 256
 896 -112 941 -131 967 -162 c 257
 967 148 l 257
 1001 207 l 257
 1001 -226 l 257
 976 -226 l 257
 961 -191 916 -143 855 -143 c 256
 766 -143 694 -231 598 -231 c 256
 544 -231 489 -201 489 -135 c 256
EndSplineSet
Refer: 446 3491 N 1 0 0 1 0 0 2
Validated: 5
EndChar

StartChar: si_Jha.reph
Encoding: 166 -1 150
GlifName: si_J_ha.reph
Width: 1061
VWidth: 0
GlyphClass: 2
Flags: HW
LayerCount: 2
Fore
SplineSet
707 607 m 256
 707 587 726 572 747 572 c 256
 768 572 786 587 786 607 c 256
 786 627 768 643 747 643 c 256
 726 643 707 627 707 607 c 256
607 626 m 256
 607 688 664 725 744 725 c 256
 819 725 881 682 881 613 c 256
 881 590 873 569 857 550 c 257
 822 550 l 257
 835 562 850 585 850 612 c 256
 850 665 803 697 743 697 c 256
 691 697 639 675 639 626 c 256
 639 588 681 571 698 569 c 257
 690 575 680 587 680 608 c 256
 680 642 711 667 746 667 c 256
 786 667 813 640 813 606 c 256
 813 568 779 543 722 543 c 256
 664 543 607 571 607 626 c 256
EndSplineSet
Refer: 446 3491 N 1 0 0 1 0 0 2
Validated: 5
EndChar

StartChar: si_Jny.halant
Encoding: 186 -1 151
GlifName: si_J_ny.halant
Width: 822
VWidth: 0
GlyphClass: 2
Flags: HW
LayerCount: 2
Fore
SplineSet
639 392 m 261
 639 665 l 261
 692 624 787 619 787 529 c 260
 787 486 753 457 711 457 c 260
 697 457 682 460 667 467 c 261
 667 386 l 261
 639 392 l 261
667 492 m 261
 675 488 686 486 699 486 c 260
 730 486 743 510 743 533 c 260
 743 573 712 592 667 622 c 261
 667 492 l 261
EndSplineSet
Refer: 448 3493 N 1 0 0 1 0 0 2
Validated: 5
EndChar

StartChar: si_JnyAa
Encoding: 187 -1 152
GlifName: si_J_nyA_a
Width: 822
VWidth: 0
GlyphClass: 2
Flags: HW
LayerCount: 2
Fore
SplineSet
411 165 m 256
 411 268 483 310 599 310 c 258
 713 310 l 257
 704 355 675 381 643 381 c 256
 624 381 610 370 602 353 c 256
 592 332 575 325 556 325 c 256
 532 325 514 341 514 362 c 256
 514 397 554 423 608 423 c 256
 692 423 734 379 751 284 c 257
 691 284 l 258
 605 284 561 251 561 169 c 256
 561 87 612 43 660 43 c 256
 690 43 714 47 753 92 c 257
 784 73 l 257
 764 57 748 40 733 32 c 257
 736 33 735 33 739 33 c 256
 786 33 818 -17 818 -85 c 256
 818 -171 781 -208 715 -208 c 256
 667 -208 650 -183 650 -162 c 257
 683 -162 l 257
 683 -169 690 -172 698 -172 c 256
 722 -172 733 -148 733 -88 c 256
 733 -44 719 -17 701 -17 c 256
 684 -17 678 -29 678 -44 c 257
 646 -44 l 257
 646 -29 653 -8 664 2 c 257
 653 1 637 -1 610 -1 c 256
 482 -1 411 67 411 165 c 256
131 202 m 256
 131 322 204 421 312 421 c 256
 316 421 321 421 325 421 c 257
 325 396 l 257
 322 396 317 396 314 396 c 256
 230 396 183 320 183 252 c 256
 183 198 222 137 301 137 c 256
 359 137 385 157 385 186 c 256
 385 197 379 215 358 215 c 256
 351 215 343 212 338 208 c 257
 337 202 335 192 335 189 c 257
 307 189 l 257
 320 346 397 428 547 428 c 256
 577 428 626 426 658 416 c 257
 540 399 l 257
 535 399 533 399 527 399 c 256
 432 399 363 339 342 235 c 257
 350 239 354 240 361 240 c 256
 408 240 441 197 441 133 c 256
 441 55 386 -2 301 -2 c 256
 193 -2 131 94 131 202 c 256
26 216 m 256
 26 345 97 423 233 423 c 256
 242 423 292 422 318 421 c 257
 297 410 248 404 233 396 c 257
 133 396 58 339 58 213 c 256
 58 134 84 76 132 33 c 257
 132 0 l 257
 67 32 26 117 26 216 c 256
EndSplineSet
Validated: 5
EndChar

StartChar: si_JnyI
Encoding: 191 -1 153
GlifName: si_J_nyI_
Width: 822
VWidth: 0
GlyphClass: 2
Flags: HW
LayerCount: 2
Fore
SplineSet
415 506 m 256
 415 604 504 655 598 655 c 256
 692 655 782 603 782 506 c 256
 782 433 720 397 669 396 c 257
 633 418 l 257
 652 417 l 257
 707 417 726 448 726 477 c 256
 726 523 668 541 598 541 c 256
 528 541 469 525 469 477 c 256
 469 455 485 428 541 428 c 257
 488 414 l 257
 473 417 415 441 415 506 c 256
EndSplineSet
Refer: 448 3493 N 1 0 0 1 0 0 2
Validated: 5
EndChar

StartChar: si_JnyIi
Encoding: 192 -1 154
GlifName: si_J_nyI_i
Width: 822
VWidth: 0
GlyphClass: 2
Flags: HW
LayerCount: 2
Fore
SplineSet
624 481 m 256
 624 452 652 428 686 428 c 256
 720 428 748 452 748 481 c 256
 748 510 720 533 686 533 c 256
 652 533 624 510 624 481 c 256
415 510 m 256
 415 600 504 655 598 655 c 256
 692 655 783 605 783 499 c 256
 783 430 736 398 686 398 c 256
 628 398 590 438 590 482 c 256
 590 523 622 543 629 547 c 257
 622 548 614 548 599 548 c 256
 542 548 461 534 461 479 c 256
 461 452 489 427 537 427 c 257
 486 413 l 257
 462 419 415 452 415 510 c 256
EndSplineSet
Refer: 448 3493 N 1 0 0 1 0 0 2
Validated: 5
EndChar

StartChar: si_JnyRI
Encoding: 197 -1 155
GlifName: si_J_nyR_I_
Width: 822
VWidth: 0
GlyphClass: 2
Flags: HW
LayerCount: 2
Fore
SplineSet
411 165 m 256
 411 268 483 310 599 310 c 258
 713 310 l 257
 704 355 675 381 643 381 c 256
 624 381 610 370 602 353 c 256
 592 332 574 325 555 325 c 256
 531 325 514 341 514 362 c 256
 514 397 553 423 607 423 c 256
 691 423 734 379 751 284 c 257
 691 284 l 258
 605 284 561 251 561 169 c 256
 561 87 612 43 660 43 c 256
 690 43 714 47 753 92 c 257
 778 77 l 257
 738 29 696 -1 609 -1 c 256
 481 -1 411 67 411 165 c 256
415 506 m 256
 415 604 504 655 598 655 c 256
 692 655 782 603 782 506 c 256
 782 433 720 397 669 396 c 257
 631 417 l 257
 652 417 l 257
 707 417 726 448 726 477 c 256
 726 523 668 541 598 541 c 256
 528 541 469 525 469 477 c 256
 469 455 485 428 541 428 c 257
 488 414 l 257
 473 417 415 441 415 506 c 256
414 -42 m 257
 440 -42 l 257
 467 -82 505 -101 580 -101 c 256
 668 -101 752 -37 752 50 c 256
 752 71 751 64 750 72 c 257
 778 77 l 257
 778 57 779 74 779 38 c 256
 779 -106 694 -199 591 -199 c 256
 488 -199 433 -141 414 -42 c 257
26 216 m 256
 26 345 97 423 233 423 c 256
 242 423 292 422 318 421 c 257
 297 410 248 404 233 396 c 257
 133 396 58 339 58 213 c 256
 58 134 84 76 132 33 c 257
 132 0 l 257
 67 32 26 117 26 216 c 256
131 202 m 256
 131 322 204 421 312 421 c 256
 316 421 321 421 325 421 c 257
 325 396 l 257
 322 396 317 396 314 396 c 256
 230 396 183 320 183 252 c 256
 183 198 222 137 301 137 c 256
 359 137 385 157 385 186 c 256
 385 197 379 215 358 215 c 256
 351 215 343 212 338 208 c 257
 337 202 335 192 335 189 c 257
 307 189 l 257
 320 346 397 428 547 428 c 256
 577 428 626 426 658 416 c 257
 540 399 l 257
 535 399 533 399 527 399 c 256
 432 399 363 339 342 235 c 257
 350 239 354 240 361 240 c 256
 408 240 441 197 441 133 c 256
 441 55 386 -2 301 -2 c 256
 193 -2 131 94 131 202 c 256
EndSplineSet
Validated: 5
EndChar

StartChar: si_JnyRIi
Encoding: 198 -1 156
GlifName: si_J_nyR_I_i
Width: 822
VWidth: 0
GlyphClass: 2
Flags: HW
LayerCount: 2
Fore
SplineSet
624 481 m 256
 624 452 652 428 686 428 c 256
 720 428 748 452 748 481 c 256
 748 510 720 533 686 533 c 256
 652 533 624 510 624 481 c 256
415 506 m 256
 415 604 505 655 599 655 c 256
 693 655 783 605 783 499 c 256
 783 430 736 398 686 398 c 256
 628 398 591 438 591 482 c 256
 591 523 622 543 629 547 c 257
 622 548 615 548 600 548 c 256
 543 548 467 535 467 480 c 256
 467 453 492 421 552 421 c 257
 533 402 l 257
 469 411 415 441 415 506 c 256
414 -42 m 257
 440 -42 l 257
 467 -82 505 -101 580 -101 c 256
 668 -101 752 -37 752 50 c 256
 752 71 751 64 750 72 c 257
 778 77 l 257
 778 57 779 74 779 38 c 256
 779 -106 694 -199 591 -199 c 256
 488 -199 433 -141 414 -42 c 257
411 165 m 256
 411 268 483 310 599 310 c 258
 713 310 l 257
 704 355 675 381 643 381 c 256
 624 381 610 370 602 353 c 256
 592 332 574 325 555 325 c 256
 531 325 514 341 514 362 c 256
 514 397 553 423 607 423 c 256
 691 423 734 379 751 284 c 257
 691 284 l 258
 605 284 561 251 561 169 c 256
 561 87 612 43 660 43 c 256
 690 43 714 47 753 92 c 257
 778 77 l 257
 738 29 696 -1 609 -1 c 256
 481 -1 411 67 411 165 c 256
131 202 m 256
 131 322 204 421 312 421 c 256
 316 421 321 421 325 421 c 257
 325 396 l 257
 322 396 317 396 314 396 c 256
 230 396 183 320 183 252 c 256
 183 198 222 137 301 137 c 256
 359 137 385 157 385 186 c 256
 385 197 379 215 358 215 c 256
 351 215 343 212 338 208 c 257
 337 202 335 192 335 189 c 257
 307 189 l 257
 320 346 397 428 547 428 c 256
 577 428 626 426 658 416 c 257
 540 399 l 257
 535 399 533 399 527 399 c 256
 432 399 363 339 342 235 c 257
 350 239 354 240 361 240 c 256
 408 240 441 197 441 133 c 256
 441 55 386 -2 301 -2 c 256
 193 -2 131 94 131 202 c 256
26 216 m 256
 26 345 97 423 233 423 c 256
 242 423 292 422 318 421 c 257
 297 410 248 404 233 396 c 257
 133 396 58 339 58 213 c 256
 58 134 84 76 132 33 c 257
 132 0 l 257
 67 32 26 117 26 216 c 256
EndSplineSet
Validated: 5
EndChar

StartChar: si_JnyRa
Encoding: 196 -1 157
GlifName: si_J_nyR_a
Width: 822
VWidth: 0
GlyphClass: 2
Flags: HW
LayerCount: 2
Fore
SplineSet
414 -42 m 257
 440 -42 l 257
 467 -82 505 -101 580 -101 c 256
 668 -101 752 -37 752 50 c 256
 752 71 751 64 750 72 c 257
 778 77 l 257
 778 57 779 74 779 38 c 256
 779 -106 694 -199 591 -199 c 256
 488 -199 433 -141 414 -42 c 257
411 165 m 256
 411 268 483 310 599 310 c 258
 713 310 l 257
 704 355 675 381 643 381 c 256
 624 381 610 370 602 353 c 256
 592 332 574 325 555 325 c 256
 531 325 514 341 514 362 c 256
 514 397 553 423 607 423 c 256
 691 423 734 379 751 284 c 257
 691 284 l 258
 605 284 561 251 561 169 c 256
 561 87 612 43 660 43 c 256
 690 43 714 47 753 92 c 257
 778 77 l 257
 738 29 696 -1 609 -1 c 256
 481 -1 411 67 411 165 c 256
26 216 m 256
 26 345 97 423 233 423 c 256
 242 423 292 422 318 421 c 257
 297 410 248 404 233 396 c 257
 133 396 58 339 58 213 c 256
 58 134 84 76 132 33 c 257
 132 0 l 257
 67 32 26 117 26 216 c 256
131 202 m 256
 131 322 204 421 312 421 c 256
 316 421 321 421 325 421 c 257
 325 396 l 257
 322 396 317 396 314 396 c 256
 230 396 183 320 183 252 c 256
 183 198 222 137 301 137 c 256
 359 137 385 157 385 186 c 256
 385 197 379 215 358 215 c 256
 351 215 343 212 338 208 c 257
 337 202 335 192 335 189 c 257
 307 189 l 257
 320 346 397 428 547 428 c 256
 577 428 626 426 658 416 c 257
 540 399 l 257
 535 399 533 399 527 399 c 256
 432 399 363 339 342 235 c 257
 350 239 354 240 361 240 c 256
 408 240 441 197 441 133 c 256
 441 55 386 -2 301 -2 c 256
 193 -2 131 94 131 202 c 256
EndSplineSet
Validated: 5
EndChar

StartChar: si_JnyU
Encoding: 193 -1 158
GlifName: si_J_nyU_
Width: 822
VWidth: 0
GlyphClass: 2
Flags: HW
LayerCount: 2
Fore
SplineSet
413 -139 m 256
 413 -88 458 -49 512 -49 c 256
 553 -49 590 -72 604 -107 c 257
 572 -119 l 257
 565 -102 544 -80 512 -80 c 256
 476 -80 448 -107 448 -139 c 256
 448 -167 469 -188 537 -188 c 258
 744 -188 l 257
 744 69 l 257
 778 77 l 257
 778 -229 l 257
 516 -229 l 258
 438 -229 413 -182 413 -139 c 256
411 165 m 256
 411 268 483 310 599 310 c 258
 713 310 l 257
 704 355 675 381 643 381 c 256
 624 381 610 370 602 353 c 256
 592 332 574 325 555 325 c 256
 531 325 514 341 514 362 c 256
 514 397 553 423 607 423 c 256
 691 423 734 379 751 284 c 257
 691 284 l 258
 605 284 561 251 561 169 c 256
 561 87 612 43 660 43 c 256
 690 43 714 47 753 92 c 257
 778 77 l 257
 742 31 696 -1 609 -1 c 256
 481 -1 411 67 411 165 c 256
26 216 m 256
 26 345 97 423 233 423 c 256
 242 423 292 422 318 421 c 257
 297 410 248 404 233 396 c 257
 133 396 58 339 58 213 c 256
 58 134 84 76 132 33 c 257
 132 0 l 257
 67 32 26 117 26 216 c 256
131 202 m 256
 131 322 204 421 312 421 c 256
 316 421 321 421 325 421 c 257
 325 396 l 257
 322 396 317 396 314 396 c 256
 230 396 183 320 183 252 c 256
 183 198 222 137 301 137 c 256
 359 137 385 157 385 186 c 256
 385 197 379 215 358 215 c 256
 351 215 343 212 338 208 c 257
 337 202 335 192 335 189 c 257
 307 189 l 257
 320 346 397 428 547 428 c 256
 577 428 626 426 658 416 c 257
 540 399 l 257
 535 399 533 399 527 399 c 256
 432 399 363 339 342 235 c 257
 350 239 354 240 361 240 c 256
 408 240 441 197 441 133 c 256
 441 55 386 -2 301 -2 c 256
 193 -2 131 94 131 202 c 256
EndSplineSet
Validated: 5
EndChar

StartChar: si_JnyUu
Encoding: 194 -1 159
GlifName: si_J_nyU_u
Width: 822
VWidth: 0
GlyphClass: 2
Flags: HW
LayerCount: 2
Fore
SplineSet
413 -135 m 256
 413 -78 461 -39 513 -39 c 256
 554 -39 585 -54 607 -89 c 257
 575 -100 l 257
 564 -83 546 -68 518 -68 c 256
 480 -68 455 -93 455 -117 c 256
 455 -148 484 -163 517 -163 c 256
 582 -163 602 -125 669 -125 c 256
 696 -125 724 -136 744 -154 c 257
 744 67 l 257
 778 77 l 257
 778 -228 l 257
 753 -226 l 257
 738 -191 713 -156 670 -156 c 256
 617 -156 597 -231 512 -231 c 256
 458 -231 413 -201 413 -135 c 256
411 165 m 256
 411 268 483 310 599 310 c 258
 713 310 l 257
 704 355 675 381 643 381 c 256
 624 381 610 370 602 353 c 256
 592 332 574 325 555 325 c 256
 531 325 514 341 514 362 c 256
 514 397 553 423 607 423 c 256
 691 423 734 379 751 284 c 257
 691 284 l 258
 605 284 561 251 561 169 c 256
 561 87 612 43 660 43 c 256
 690 43 714 47 753 92 c 257
 778 77 l 257
 738 29 696 -1 609 -1 c 256
 481 -1 411 67 411 165 c 256
26 216 m 256
 26 345 97 423 233 423 c 256
 242 423 292 422 318 421 c 257
 297 410 248 404 233 396 c 257
 133 396 58 339 58 213 c 256
 58 134 84 76 132 33 c 257
 132 0 l 257
 67 32 26 117 26 216 c 256
131 202 m 256
 131 322 204 421 312 421 c 256
 316 421 321 421 325 421 c 257
 325 396 l 257
 322 396 317 396 314 396 c 256
 230 396 183 320 183 252 c 256
 183 198 222 137 301 137 c 256
 359 137 385 157 385 186 c 256
 385 197 379 215 358 215 c 256
 351 215 343 212 338 208 c 257
 337 202 335 192 335 189 c 257
 307 189 l 257
 320 346 397 428 547 428 c 256
 577 428 626 426 658 416 c 257
 540 399 l 257
 535 399 533 399 527 399 c 256
 432 399 363 339 342 235 c 257
 350 239 354 240 361 240 c 256
 408 240 441 197 441 133 c 256
 441 55 386 -2 301 -2 c 256
 193 -2 131 94 131 202 c 256
EndSplineSet
Validated: 5
EndChar

StartChar: si_K.halant
Encoding: 89 -1 160
GlifName: si_K_.halant
Width: 728
VWidth: 0
GlyphClass: 2
Flags: HW
LayerCount: 2
Fore
SplineSet
537 340 m 257
 537 665 l 257
 590 624 685 619 685 529 c 256
 685 486 650 457 608 457 c 256
 594 457 579 460 564 467 c 257
 564 323 l 257
 537 340 l 257
565 492 m 257
 573 488 583 486 596 486 c 256
 627 486 641 510 641 533 c 256
 641 573 610 592 565 622 c 257
 565 492 l 257
EndSplineSet
Refer: 437 3482 N 1 0 0 1 0 0 2
Validated: 5
EndChar

StartChar: si_KI
Encoding: 90 -1 161
GlifName: si_K_I_
Width: 728
VWidth: 0
GlyphClass: 2
Flags: HW
LayerCount: 2
Fore
SplineSet
213 411 m 256
 213 576 322 655 462 655 c 256
 589 655 672 596 672 493 c 256
 672 433 643 393 596 374 c 257
 565 394 l 257
 598 398 618 416 618 445 c 256
 618 502 542 537 462 537 c 256
 328 537 241 463 241 387 c 256
 241 378 241 366 244 357 c 257
 220 335 l 257
 216 352 213 381 213 411 c 256
EndSplineSet
Refer: 437 3482 N 1 0 0 1 0 0 2
Validated: 5
EndChar

StartChar: si_KIi
Encoding: 91 -1 162
GlifName: si_K_I_i
Width: 728
VWidth: 0
GlyphClass: 2
Flags: HW
LayerCount: 2
Fore
SplineSet
520 465 m 256
 520 434 546 409 577 409 c 256
 608 409 634 434 634 465 c 256
 634 496 608 521 577 521 c 256
 546 521 520 496 520 465 c 256
213 411 m 256
 213 576 322 655 462 655 c 256
 589 655 673 586 673 483 c 256
 673 433 636 379 579 379 c 256
 522 379 488 423 488 466 c 256
 488 497 502 516 519 531 c 257
 506 535 480 537 463 537 c 256
 316 537 240 454 240 389 c 256
 240 375 242 367 244 356 c 257
 220 335 l 257
 216 352 213 381 213 411 c 256
EndSplineSet
Refer: 437 3482 N 1 0 0 1 0 0 2
Validated: 5
EndChar

StartChar: si_KRI
Encoding: 97 -1 163
GlifName: si_K_R_I_
Width: 728
VWidth: 0
GlyphClass: 2
Flags: HW
LayerCount: 2
Fore
SplineSet
111 -43 m 257
 140 -43 l 257
 173 -91 241 -110 352 -110 c 256
 500 -110 640 -30 640 62 c 256
 640 77 638 89 631 100 c 257
 644 130 l 257
 662 104 670 73 670 37 c 256
 670 -121 524 -214 376 -214 c 256
 239 -214 147 -150 111 -43 c 257
EndSplineSet
Refer: 161 -1 N 1 0 0 1 0 0 2
Validated: 5
EndChar

StartChar: si_KRIi
Encoding: 98 -1 164
GlifName: si_K_R_I_i
Width: 728
VWidth: 0
GlyphClass: 2
Flags: HW
LayerCount: 2
Fore
SplineSet
111 -43 m 257
 140 -43 l 257
 173 -91 241 -110 352 -110 c 256
 500 -110 640 -30 640 62 c 256
 640 77 638 89 631 100 c 257
 644 130 l 257
 662 104 670 73 670 37 c 256
 670 -121 524 -214 376 -214 c 256
 239 -214 147 -150 111 -43 c 257
EndSplineSet
Refer: 162 -1 N 1 0 0 1 0 0 2
Validated: 5
EndChar

StartChar: si_KRa
Encoding: 96 -1 165
GlifName: si_K_R_a
Width: 728
VWidth: 0
GlyphClass: 2
Flags: HW
LayerCount: 2
Fore
SplineSet
111 -43 m 257
 140 -43 l 257
 173 -91 241 -110 352 -110 c 256
 500 -110 640 -30 640 62 c 256
 640 77 638 89 631 100 c 257
 644 130 l 257
 662 104 670 73 670 37 c 256
 670 -121 524 -214 376 -214 c 256
 239 -214 147 -150 111 -43 c 257
EndSplineSet
Refer: 437 3482 N 1 0 0 1 0 0 2
Validated: 5
EndChar

StartChar: si_KSs.halant
Encoding: 462 -1 166
GlifName: si_K_S_s.halant
Width: 1043
VWidth: 0
GlyphClass: 2
Flags: HW
LayerCount: 2
Fore
SplineSet
848 413 m 257
 848 665 l 257
 901 624 996 619 996 529 c 256
 996 486 962 457 920 457 c 256
 906 457 891 460 876 467 c 257
 876 400 l 257
 848 413 l 257
876 492 m 257
 884 488 895 486 908 486 c 256
 939 486 952 510 952 533 c 256
 952 573 921 592 876 622 c 257
 876 492 l 257
EndSplineSet
Refer: 171 -1 N 1 0 0 1 0 0 2
Validated: 5
EndChar

StartChar: si_KSsI
Encoding: 463 -1 167
GlifName: si_K_S_sI_
Width: 1043
VWidth: 0
GlyphClass: 2
Flags: HW
LayerCount: 2
Fore
SplineSet
503 506 m 256
 503 612 613 655 730 655 c 256
 847 655 956 612 956 506 c 256
 956 433 892 399 817 396 c 257
 819 416 l 257
 871 419 893 437 893 468 c 256
 893 509 814 523 730 523 c 256
 643 523 562 510 562 468 c 256
 562 440 588 419 640 416 c 257
 643 396 l 257
 568 399 503 433 503 506 c 256
EndSplineSet
Refer: 171 -1 N 1 0 0 1 0 0 2
Validated: 5
EndChar

StartChar: si_KSsIi
Encoding: 464 -1 168
GlifName: si_K_S_sI_i
Width: 1043
VWidth: 0
GlyphClass: 2
Flags: HW
LayerCount: 2
Fore
SplineSet
815 502 m 256
 815 472 844 448 878 448 c 256
 912 448 941 472 941 502 c 256
 941 532 912 556 878 556 c 256
 844 556 815 532 815 502 c 256
484 505 m 256
 484 610 605 655 729 655 c 256
 843 655 976 613 976 512 c 256
 976 458 933 419 878 419 c 256
 821 419 782 459 782 503 c 256
 782 513 785 536 798 549 c 257
 789 550 750 552 718 552 c 256
 626 552 530 530 530 471 c 256
 530 449 541 427 576 418 c 257
 572 396 l 257
 520 401 484 445 484 505 c 256
EndSplineSet
Refer: 171 -1 N 1 0 0 1 0 0 2
Validated: 5
EndChar

StartChar: si_KSsU
Encoding: 465 -1 169
GlifName: si_K_S_sU_
Width: 1043
VWidth: 0
GlyphClass: 2
Flags: HW
LayerCount: 2
Fore
SplineSet
481 -139 m 256
 481 -88 526 -49 580 -49 c 256
 621 -49 658 -72 672 -107 c 257
 640 -119 l 257
 633 -102 612 -80 580 -80 c 256
 544 -80 516 -107 516 -139 c 256
 516 -167 537 -188 605 -188 c 258
 957 -188 l 257
 957 125 l 257
 991 214 l 257
 991 -229 l 257
 584 -229 l 258
 506 -229 481 -182 481 -139 c 256
EndSplineSet
Refer: 171 -1 N 1 0 0 1 0 0 2
Validated: 5
EndChar

StartChar: si_KSsUu
Encoding: 466 -1 170
GlifName: si_K_S_sU_u
Width: 1043
VWidth: 0
GlyphClass: 2
Flags: HW
LayerCount: 2
Fore
SplineSet
479 -135 m 256
 479 -78 527 -39 579 -39 c 256
 620 -39 652 -54 674 -89 c 257
 642 -100 l 257
 631 -83 612 -68 584 -68 c 256
 546 -68 521 -93 521 -117 c 256
 521 -148 555 -163 588 -163 c 256
 700 -163 734 -112 839 -112 c 256
 889 -112 931 -131 957 -162 c 257
 957 148 l 257
 991 207 l 257
 991 -226 l 257
 966 -226 l 257
 951 -191 910 -143 849 -143 c 256
 760 -143 712 -231 593 -231 c 256
 539 -231 479 -201 479 -135 c 256
EndSplineSet
Refer: 171 -1 N 1 0 0 1 0 0 2
Validated: 5
EndChar

StartChar: si_KSsa
Encoding: 451 -1 171
GlifName: si_K_S_sa
Width: 1043
VWidth: 0
GlyphClass: 2
Flags: HW
LayerCount: 2
Fore
SplineSet
89 140 m 257
 101 150 112 156 126 156 c 256
 157 156 168 137 207 137 c 256
 252 137 273 153 273 209 c 256
 273 211 273 209 273 211 c 257
 301 211 l 257
 301 210 301 211 301 210 c 256
 301 150 324 137 368 137 c 256
 408 137 433 165 433 199 c 256
 433 240 393 280 294 280 c 256
 239 280 200 274 176 262 c 257
 159 248 143 229 128 207 c 256
 102 168 99 160 89 140 c 257
21 21 m 257
 29 89 72 180 106 227 c 256
 131 262 145 274 167 297 c 257
 176 307 187 323 187 344 c 256
 187 363 177 377 154 377 c 256
 140 377 125 369 121 354 c 256
 115 333 119 334 110 315 c 256
 102 298 85 290 70 290 c 256
 34 290 28 320 28 332 c 256
 28 385 78 423 133 423 c 256
 184 423 215 390 215 350 c 256
 215 344 215 341 214 333 c 257
 285 383 395 425 531 425 c 256
 585 425 609 422 609 422 c 257
 602 421 532 395 530 394 c 257
 530 394 527 395 523 395 c 256
 352 395 246 327 211 297 c 257
 240 305 271 307 298 307 c 256
 415 307 503 244 503 123 c 256
 503 66 471 -1 388 -1 c 256
 343 -1 310 20 289 62 c 257
 272 22 240 -1 199 -1 c 256
 114 -1 117 71 85 71 c 256
 63 71 51 50 48 11 c 257
 21 21 l 257
467 179 m 256
 467 268 534 321 639 321 c 256
 652 321 662 320 674 319 c 257
 674 323 674 325 674 328 c 256
 674 366 648 383 623 383 c 256
 592 383 584 366 579 348 c 256
 575 334 561 318 533 318 c 256
 507 318 490 333 490 357 c 256
 490 398 537 423 591 423 c 256
 662 423 705 391 705 326 c 256
 705 315 704 304 701 291 c 257
 684 293 650 295 649 295 c 256
 574 295 529 272 529 223 c 256
 529 158 626 128 737 128 c 256
 841 128 939 156 939 223 c 256
 939 271 898 296 822 296 c 256
 799 296 775 294 753 290 c 257
 751 301 750 310 750 320 c 256
 750 387 794 423 865 423 c 256
 930 423 965 384 965 346 c 256
 965 285 875 263 826 253 c 257
 845 245 859 232 859 215 c 256
 859 171 803 158 726 158 c 256
 672 158 605 168 605 216 c 256
 605 240 624 267 718 267 c 256
 740 267 787 269 817 274 c 256
 866 283 927 299 927 343 c 256
 927 371 901 393 859 393 c 256
 817 393 783 368 783 328 c 256
 783 324 783 323 784 319 c 257
 801 321 815 322 830 322 c 256
 919 322 997 286 997 182 c 256
 997 54 874 0 737 0 c 256
 592 0 467 45 467 179 c 256
636 216 m 256
 636 194 667 184 729 184 c 256
 794 184 827 194 827 215 c 256
 827 239 795 245 728 245 c 256
 666 245 636 237 636 216 c 256
EndSplineSet
Validated: 5
EndChar

StartChar: si_KU
Encoding: 92 -1 172
GlifName: si_K_U_
Width: 728
VWidth: 0
GlyphClass: 2
Flags: HW
LayerCount: 2
Fore
SplineSet
434 -78 m 256
 434 -28 460 4 501 22 c 257
 510 -5 l 257
 494 -11 478 -25 478 -47 c 256
 478 -83 521 -103 573 -103 c 256
 631 -103 676 -81 676 -44 c 256
 676 -41 675 -38 675 -35 c 257
 704 -35 l 257
 706 -44 707 -59 707 -68 c 256
 707 -119 664 -187 568 -187 c 256
 500 -187 434 -146 434 -78 c 256
21 21 m 257
 29 89 72 180 106 227 c 256
 131 262 145 274 167 297 c 257
 176 307 187 323 187 344 c 256
 187 363 177 377 154 377 c 256
 140 377 125 369 121 354 c 256
 115 333 119 334 110 315 c 256
 102 298 85 290 70 290 c 256
 34 290 28 320 28 332 c 256
 28 385 78 423 133 423 c 256
 184 423 215 390 215 350 c 256
 215 344 215 341 214 333 c 257
 272 387 357 424 442 424 c 256
 588 424 685 319 685 189 c 256
 685 79 624 -1 542 -1 c 256
 522 -1 515 -4 507 -7 c 257
 498 21 l 257
 504 24 521 28 534 28 c 256
 569 28 583 75 583 120 c 256
 583 281 458 340 350 340 c 256
 288 340 238 322 209 297 c 257
 238 305 271 307 298 307 c 256
 415 307 503 244 503 123 c 256
 503 66 471 -1 388 -1 c 256
 343 -1 310 20 289 62 c 257
 272 22 240 -1 199 -1 c 256
 114 -1 117 71 85 71 c 256
 63 71 51 50 48 11 c 257
 21 21 l 257
89 140 m 257
 101 150 112 156 126 156 c 256
 157 156 168 137 207 137 c 256
 252 137 273 153 273 209 c 256
 273 211 273 209 273 211 c 257
 301 211 l 257
 301 210 301 211 301 210 c 256
 301 150 324 137 368 137 c 256
 408 137 433 165 433 199 c 256
 433 240 393 280 294 280 c 256
 239 280 200 274 176 262 c 257
 159 248 143 229 128 207 c 256
 102 168 99 160 89 140 c 257
EndSplineSet
Validated: 5
EndChar

StartChar: si_KUu
Encoding: 93 -1 174
GlifName: si_K_U_u
Width: 728
VWidth: 0
GlyphClass: 2
Flags: HW
LayerCount: 2
Fore
SplineSet
435 -126 m 256
 435 -91 464 -70 498 -65 c 257
 444 -38 l 257
 528 -14 l 257
 492 -0 l 257
 492 21 l 257
 588 -15 l 257
 506 -42 l 257
 564 -74 l 257
 537 -81 484 -81 484 -102 c 256
 484 -118 516 -126 557 -126 c 256
 610 -126 653 -110 653 -80 c 256
 653 -75 652 -66 647 -58 c 257
 681 -58 l 257
 685 -70 685 -81 685 -92 c 256
 685 -157 635 -200 555 -200 c 256
 498 -200 435 -183 435 -126 c 256
EndSplineSet
Refer: 437 3482 N 1 0 0 1 0 0 2
Validated: 5
EndChar

StartChar: si_KV.halant
Encoding: 467 -1 175
GlifName: si_K_V_.halant
Width: 1036
VWidth: 0
GlyphClass: 2
Flags: HW
LayerCount: 2
Fore
SplineSet
21 21 m 257
 29 89 72 180 106 227 c 256
 131 262 145 274 167 297 c 257
 176 307 187 323 187 344 c 256
 187 363 177 377 154 377 c 256
 140 377 125 369 121 354 c 256
 115 333 119 334 110 315 c 256
 102 298 85 290 70 290 c 256
 34 290 28 320 28 332 c 256
 28 385 78 423 133 423 c 256
 184 423 215 390 215 350 c 256
 215 344 215 341 214 333 c 257
 249 358 295 382 358 401 c 256
 423 422 496 426 538 426 c 256
 605 426 640 419 657 415 c 257
 652 414 592 396 583 395 c 257
 568 396 548 396 536 396 c 256
 479 396 430 388 402 382 c 256
 317 364 256 327 215 299 c 257
 243 305 271 307 298 307 c 256
 415 307 503 244 503 123 c 256
 503 66 471 -1 388 -1 c 256
 343 -1 310 20 289 62 c 257
 272 22 240 -1 199 -1 c 256
 114 -1 117 71 85 71 c 256
 63 71 51 50 48 11 c 257
 21 21 l 257
89 140 m 257
 101 150 112 156 126 156 c 256
 157 156 168 137 207 137 c 256
 252 137 273 153 273 209 c 256
 273 211 273 209 273 211 c 257
 301 211 l 257
 301 210 301 211 301 210 c 256
 301 150 324 137 368 137 c 256
 408 137 433 165 433 199 c 256
 433 240 393 280 294 280 c 256
 239 280 200 274 176 262 c 257
 159 248 143 229 128 207 c 256
 102 168 99 160 89 140 c 257
485 161 m 256
 485 244 548 297 647 297 c 258
 703 297 l 258
 703 299 703 299 703 301 c 256
 703 350 672 378 640 378 c 256
 607 378 595 363 590 347 c 256
 584 328 572 312 547 312 c 256
 525 312 508 326 508 351 c 256
 508 397 556 421 610 421 c 256
 696 421 738 367 738 283 c 256
 738 280 738 274 738 271 c 258
 659 271 l 258
 587 271 552 244 552 208 c 256
 552 147 645 137 717 137 c 256
 865 137 927 206 926 308 c 256
 925 417 850 480 706 480 c 256
 632 480 570 463 491 440 c 257
 491 473 l 257
 522 481 571 487 571 496 c 256
 571 508 544 508 544 533 c 256
 544 569 608 614 712 614 c 256
 910 614 969 479 981 348 c 256
 987 321 988 299 988 268 c 256
 988 112 892 0 714 0 c 256
 596 0 485 45 485 161 c 256
591 525 m 256
 591 513 610 514 610 503 c 256
 610 501 609 498 607 496 c 257
 638 503 664 507 709 507 c 256
 814 507 883 477 937 415 c 257
 905 523 827 561 714 561 c 256
 644 561 591 544 591 525 c 256
EndSplineSet
Validated: 37
EndChar

StartChar: si_KVI
Encoding: 468 -1 176
GlifName: si_K_V_I_
Width: 1036
VWidth: 0
GlyphClass: 2
Flags: HW
LayerCount: 2
Fore
SplineSet
21 21 m 257
 29 89 72 180 106 227 c 256
 131 262 145 274 167 297 c 257
 176 307 187 323 187 344 c 256
 187 363 177 377 154 377 c 256
 140 377 125 369 121 354 c 256
 115 333 119 334 110 315 c 256
 102 298 85 290 70 290 c 256
 34 290 28 320 28 332 c 256
 28 385 78 423 133 423 c 256
 184 423 215 390 215 350 c 256
 215 344 215 341 214 333 c 257
 249 358 295 382 358 401 c 256
 423 422 496 426 538 426 c 256
 605 426 640 419 657 415 c 257
 652 414 592 396 583 395 c 257
 568 396 548 396 536 396 c 256
 479 396 430 388 402 382 c 256
 317 364 256 327 215 299 c 257
 243 305 271 307 298 307 c 256
 415 307 503 244 503 123 c 256
 503 66 471 -1 388 -1 c 256
 343 -1 310 20 289 62 c 257
 272 22 240 -1 199 -1 c 256
 114 -1 117 71 85 71 c 256
 63 71 51 50 48 11 c 257
 21 21 l 257
89 140 m 257
 101 150 112 156 126 156 c 256
 157 156 168 137 207 137 c 256
 252 137 273 153 273 209 c 256
 273 211 273 209 273 211 c 257
 301 211 l 257
 301 210 301 211 301 210 c 256
 301 150 324 137 368 137 c 256
 408 137 433 165 433 199 c 256
 433 240 393 280 294 280 c 256
 239 280 200 274 176 262 c 257
 159 248 143 229 128 207 c 256
 102 168 99 160 89 140 c 257
EndSplineSet
Refer: 395 -1 N 1 0 0 1 454 0 2
Validated: 5
EndChar

StartChar: si_KVIi
Encoding: 469 -1 177
GlifName: si_K_V_I_i
Width: 1036
VWidth: 0
GlyphClass: 2
Flags: HW
LayerCount: 2
Fore
SplineSet
21 21 m 257
 29 89 72 180 106 227 c 256
 131 262 145 274 167 297 c 257
 176 307 187 323 187 344 c 256
 187 363 177 377 154 377 c 256
 140 377 125 369 121 354 c 256
 115 333 119 334 110 315 c 256
 102 298 85 290 70 290 c 256
 34 290 28 320 28 332 c 256
 28 385 78 423 133 423 c 256
 184 423 215 390 215 350 c 256
 215 344 215 341 214 333 c 257
 249 358 295 382 358 401 c 256
 423 422 496 426 538 426 c 256
 605 426 640 419 657 415 c 257
 652 414 592 396 583 395 c 257
 568 396 548 396 536 396 c 256
 479 396 430 388 402 382 c 256
 317 364 256 327 215 299 c 257
 243 305 271 307 298 307 c 256
 415 307 503 244 503 123 c 256
 503 66 471 -1 388 -1 c 256
 343 -1 310 20 289 62 c 257
 272 22 240 -1 199 -1 c 256
 114 -1 117 71 85 71 c 256
 63 71 51 50 48 11 c 257
 21 21 l 257
89 140 m 257
 101 150 112 156 126 156 c 256
 157 156 168 137 207 137 c 256
 252 137 273 153 273 209 c 256
 273 211 273 209 273 211 c 257
 301 211 l 257
 301 210 301 211 301 210 c 256
 301 150 324 137 368 137 c 256
 408 137 433 165 433 199 c 256
 433 240 393 280 294 280 c 256
 239 280 200 274 176 262 c 257
 159 248 143 229 128 207 c 256
 102 168 99 160 89 140 c 257
EndSplineSet
Refer: 396 -1 N 1 0 0 1 454 0 2
Validated: 5
EndChar

StartChar: si_KVU
Encoding: 470 -1 178
GlifName: si_K_V_U_
Width: 1036
VWidth: 0
GlyphClass: 2
Flags: HW
LayerCount: 2
Fore
SplineSet
497 -139 m 256
 497 -88 542 -49 596 -49 c 256
 637 -49 674 -72 688 -107 c 257
 656 -119 l 257
 649 -102 628 -80 596 -80 c 256
 560 -80 532 -107 532 -139 c 256
 532 -167 553 -188 621 -188 c 258
 945 -188 l 257
 945 125 l 257
 979 214 l 257
 979 -229 l 257
 600 -229 l 258
 522 -229 497 -182 497 -139 c 256
EndSplineSet
Refer: 180 -1 N 1 0 0 1 0 0 2
Validated: 5
EndChar

StartChar: si_KVUu
Encoding: 471 -1 179
GlifName: si_K_V_U_u
Width: 1036
VWidth: 0
GlyphClass: 2
Flags: HW
LayerCount: 2
Fore
SplineSet
499 -135 m 256
 499 -78 546 -39 598 -39 c 256
 639 -39 671 -54 693 -89 c 257
 661 -100 l 257
 650 -83 631 -68 603 -68 c 256
 565 -68 541 -93 541 -117 c 256
 541 -148 569 -163 602 -163 c 256
 676 -163 731 -112 829 -112 c 256
 874 -112 919 -131 945 -162 c 257
 945 148 l 257
 979 207 l 257
 979 -226 l 257
 954 -226 l 257
 939 -191 900 -143 839 -143 c 256
 750 -143 703 -231 607 -231 c 256
 553 -231 499 -201 499 -135 c 256
EndSplineSet
Refer: 180 -1 N 1 0 0 1 0 0 2
Validated: 5
EndChar

StartChar: si_KVa
Encoding: 452 -1 180
GlifName: si_K_V_a
Width: 1036
VWidth: 0
GlyphClass: 2
Flags: HW
LayerCount: 2
Fore
SplineSet
21 21 m 257
 29 89 72 180 106 227 c 256
 131 262 145 274 167 297 c 257
 176 307 187 323 187 344 c 256
 187 363 177 377 154 377 c 256
 140 377 125 369 121 354 c 256
 115 333 119 334 110 315 c 256
 102 298 85 290 70 290 c 256
 34 290 28 320 28 332 c 256
 28 385 78 423 133 423 c 256
 184 423 215 390 215 350 c 256
 215 344 215 341 214 333 c 257
 249 358 295 382 358 401 c 256
 423 422 496 426 538 426 c 256
 605 426 640 419 657 415 c 257
 652 414 592 396 583 395 c 257
 568 396 548 396 536 396 c 256
 479 396 430 388 402 382 c 256
 317 364 256 327 215 299 c 257
 243 305 271 307 298 307 c 256
 415 307 503 244 503 123 c 256
 503 66 471 -1 388 -1 c 256
 343 -1 310 20 289 62 c 257
 272 22 240 -1 199 -1 c 256
 114 -1 117 71 85 71 c 256
 63 71 51 50 48 11 c 257
 21 21 l 257
486 161 m 256
 486 244 549 297 648 297 c 258
 704 297 l 257
 704 299 704 299 704 301 c 256
 704 350 672 378 640 378 c 256
 607 378 596 363 591 347 c 256
 585 328 573 312 548 312 c 256
 526 312 509 326 509 351 c 256
 509 397 557 421 611 421 c 256
 697 421 739 367 739 283 c 256
 739 280 739 274 739 271 c 257
 660 271 l 258
 588 271 552 244 552 208 c 256
 552 147 646 137 718 137 c 256
 867 137 933 206 933 310 c 256
 933 426 854 538 723 538 c 256
 646 538 587 510 544 459 c 257
 510 459 l 257
 558 527 627 563 723 563 c 256
 879 563 989 433 989 268 c 256
 989 112 894 0 715 0 c 256
 597 0 486 45 486 161 c 256
89 140 m 257
 101 150 112 156 126 156 c 256
 157 156 168 137 207 137 c 256
 252 137 273 153 273 209 c 256
 273 211 273 209 273 211 c 257
 301 211 l 257
 301 210 301 211 301 210 c 256
 301 150 324 137 368 137 c 256
 408 137 433 165 433 199 c 256
 433 240 393 280 294 280 c 256
 239 280 200 274 176 262 c 257
 159 248 143 229 128 207 c 256
 102 168 99 160 89 140 c 257
EndSplineSet
Validated: 5
EndChar

StartChar: si_Kh.halant
Encoding: 99 -1 182
GlifName: si_K_h.halant
Width: 615
VWidth: 0
GlyphClass: 2
Flags: HW
LayerCount: 2
Fore
SplineSet
141 525 m 256
 141 513 159 514 159 503 c 256
 159 501 158 498 156 496 c 257
 188 502 227 507 272 507 c 256
 377 507 458 477 512 415 c 257
 480 523 390 561 277 561 c 256
 207 561 141 544 141 525 c 256
41 430 m 257
 41 462 l 257
 72 474 121 487 121 496 c 256
 121 508 93 508 93 533 c 256
 93 569 159 614 271 614 c 256
 474 614 544 479 556 348 c 257
 564 325 568 286 568 260 c 257
 517 286 l 257
 517 393 443 480 270 480 c 256
 196 480 120 467 41 430 c 257
91 71 m 256
 91 48 111 29 134 29 c 256
 157 29 176 48 176 71 c 256
 176 94 157 114 134 114 c 256
 111 114 91 94 91 71 c 256
31 179 m 256
 31 315 121 387 234 387 c 256
 325 387 403 335 403 252 c 256
 403 196 379 168 372 157 c 257
 375 158 378 158 381 158 c 256
 409 158 401 133 434 133 c 256
 493 133 517 226 517 288 c 257
 568 261 l 257
 568 150 511 0 406 0 c 256
 344 0 339 53 313 53 c 256
 300 53 277 33 236 -21 c 257
 197 -18 l 257
 210 -5 238 33 279 82 c 256
 330 143 339 175 339 195 c 256
 339 229 320 269 230 269 c 256
 145 269 68 220 68 137 c 256
 68 125 68 116 71 104 c 257
 80 129 105 145 134 145 c 256
 175 145 207 117 207 72 c 256
 207 36 178 -1 138 -1 c 256
 55 -1 31 106 31 179 c 256
EndSplineSet
Validated: 5
EndChar

StartChar: si_KhI
Encoding: 100 -1 183
GlifName: si_K_hI_
Width: 615
VWidth: 0
GlyphClass: 2
Flags: HW
LayerCount: 2
Fore
SplineSet
73 549 m 256
 73 637 201 654 299 654 c 256
 432 654 539 624 539 541 c 256
 539 490 486 469 453 463 c 257
 404 479 l 257
 439 480 466 493 466 515 c 256
 466 551 404 567 299 567 c 256
 225 567 131 559 131 525 c 256
 131 499 177 496 277 492 c 256
 340 490 432 487 486 448 c 256
 534 413 570 348 570 268 c 257
 519 296 l 257
 519 322 513 374 484 407 c 256
 439 457 377 459 278 465 c 256
 191 470 73 465 73 549 c 256
91 71 m 256
 91 48 111 29 134 29 c 256
 157 29 176 48 176 71 c 256
 176 94 157 114 134 114 c 256
 111 114 91 94 91 71 c 256
31 179 m 256
 31 315 121 387 234 387 c 256
 325 387 403 335 403 252 c 256
 403 196 379 168 372 157 c 257
 375 158 378 158 381 158 c 256
 409 158 401 133 434 133 c 256
 493 133 519 214 519 299 c 257
 539 293 554 281 570 271 c 257
 570 148 511 0 406 0 c 256
 344 0 339 53 313 53 c 256
 300 53 277 33 236 -21 c 257
 197 -18 l 257
 210 -5 238 33 279 82 c 256
 330 143 339 175 339 195 c 256
 339 229 320 269 230 269 c 256
 145 269 68 220 68 137 c 256
 68 125 68 116 71 104 c 257
 80 129 105 145 134 145 c 256
 175 145 207 117 207 72 c 256
 207 36 178 -1 138 -1 c 256
 55 -1 31 106 31 179 c 256
EndSplineSet
Validated: 5
EndChar

StartChar: si_KhIi
Encoding: 101 -1 184
GlifName: si_K_hI_i
Width: 615
VWidth: 0
GlyphClass: 2
Flags: HW
LayerCount: 2
Fore
SplineSet
392 526 m 256
 392 497 417 474 449 474 c 256
 481 474 507 497 507 526 c 256
 507 555 481 578 449 578 c 256
 417 578 392 555 392 526 c 256
73 549 m 256
 73 637 201 654 299 654 c 256
 432 654 539 625 539 529 c 256
 539 477 492 447 449 447 c 256
 406 447 359 477 359 529 c 256
 359 552 369 565 373 570 c 257
 365 572 333 575 297 575 c 256
 223 575 127 566 127 527 c 256
 127 499 177 496 277 492 c 256
 340 490 432 487 486 448 c 256
 534 413 570 348 570 268 c 257
 519 296 l 257
 519 322 513 374 484 407 c 256
 439 457 377 459 278 465 c 256
 191 470 73 465 73 549 c 256
91 71 m 256
 91 48 111 29 134 29 c 256
 157 29 176 48 176 71 c 256
 176 94 157 114 134 114 c 256
 111 114 91 94 91 71 c 256
31 179 m 256
 31 315 121 387 234 387 c 256
 325 387 403 335 403 252 c 256
 403 196 379 168 372 157 c 257
 375 158 378 158 381 158 c 256
 409 158 401 133 434 133 c 256
 493 133 519 214 519 299 c 257
 539 293 554 281 570 271 c 257
 570 148 511 0 406 0 c 256
 344 0 339 53 313 53 c 256
 300 53 277 33 236 -21 c 257
 197 -18 l 257
 210 -5 238 33 279 82 c 256
 330 143 339 175 339 195 c 256
 339 229 320 269 230 269 c 256
 145 269 68 220 68 137 c 256
 68 125 68 116 71 104 c 257
 80 129 105 145 134 145 c 256
 175 145 207 117 207 72 c 256
 207 36 178 -1 138 -1 c 256
 55 -1 31 106 31 179 c 256
EndSplineSet
Validated: 5
EndChar

StartChar: si_KhR.halant
Encoding: 105 -1 185
GlifName: si_K_hR_.halant
Width: 615
VWidth: 0
GlyphClass: 2
Flags: HW
LayerCount: 2
Fore
SplineSet
141 525 m 256
 141 513 159 514 159 503 c 256
 159 501 158 498 156 496 c 257
 188 502 227 507 272 507 c 256
 377 507 458 477 512 415 c 257
 480 523 390 561 277 561 c 256
 207 561 141 544 141 525 c 256
41 430 m 257
 41 462 l 257
 72 474 121 487 121 496 c 256
 121 508 93 508 93 533 c 256
 93 569 159 614 271 614 c 256
 474 614 544 479 556 348 c 257
 564 325 568 286 568 260 c 257
 517 286 l 257
 517 294 517 290 517 294 c 256
 517 398 435 480 270 480 c 256
 196 480 120 467 41 430 c 257
91 71 m 256
 91 48 111 29 134 29 c 256
 157 29 176 48 176 71 c 256
 176 94 157 114 134 114 c 256
 111 114 91 94 91 71 c 256
31 179 m 256
 31 315 121 387 234 387 c 256
 325 387 403 335 403 252 c 256
 403 196 379 168 372 157 c 257
 375 158 378 158 381 158 c 256
 409 158 401 133 434 133 c 256
 493 133 517 226 517 288 c 257
 533 275 550 280 568 261 c 257
 568 150 511 0 406 0 c 256
 344 0 339 53 313 53 c 256
 300 53 277 33 236 -21 c 257
 197 -18 l 257
 210 -5 238 33 279 82 c 256
 330 143 339 175 339 195 c 256
 339 229 320 269 230 269 c 256
 145 269 68 220 68 137 c 256
 68 125 68 116 71 104 c 257
 80 129 105 145 134 145 c 256
 175 145 207 117 207 72 c 256
 207 36 178 -1 138 -1 c 256
 55 -1 31 106 31 179 c 256
54 -43 m 257
 83 -43 l 257
 120 -85 176 -112 279 -112 c 256
 419 -112 536 -30 536 62 c 256
 536 77 534 89 529 100 c 257
 542 130 l 257
 560 104 568 73 568 37 c 256
 568 -121 443 -214 302 -214 c 256
 172 -214 90 -150 54 -43 c 257
EndSplineSet
Validated: 5
EndChar

StartChar: si_KhRI
Encoding: 106 -1 186
GlifName: si_K_hR_I_
Width: 615
VWidth: 0
GlyphClass: 2
Flags: HW
LayerCount: 2
Fore
SplineSet
54 -43 m 257
 83 -43 l 257
 120 -85 176 -112 279 -112 c 256
 419 -112 536 -30 536 62 c 256
 536 77 534 89 529 100 c 257
 542 130 l 257
 560 104 568 73 568 37 c 256
 568 -121 443 -214 302 -214 c 256
 172 -214 90 -150 54 -43 c 257
73 549 m 256
 73 637 201 654 299 654 c 256
 432 654 539 624 539 541 c 256
 539 490 486 469 453 463 c 257
 404 479 l 257
 439 480 466 493 466 515 c 256
 466 551 404 567 299 567 c 256
 225 567 131 559 131 525 c 256
 131 499 177 496 277 492 c 256
 340 490 432 487 486 448 c 256
 534 413 570 348 570 268 c 257
 519 296 l 257
 519 322 513 374 484 407 c 256
 439 457 377 459 278 465 c 256
 191 470 73 465 73 549 c 256
91 71 m 256
 91 48 111 29 134 29 c 256
 157 29 176 48 176 71 c 256
 176 94 157 114 134 114 c 256
 111 114 91 94 91 71 c 256
31 179 m 256
 31 315 121 387 234 387 c 256
 325 387 403 335 403 252 c 256
 403 196 379 168 372 157 c 257
 375 158 378 158 381 158 c 256
 409 158 401 133 434 133 c 256
 493 133 519 214 519 299 c 257
 539 293 554 281 570 271 c 257
 570 148 511 0 406 0 c 256
 344 0 339 53 313 53 c 256
 300 53 277 33 236 -21 c 257
 197 -18 l 257
 210 -5 238 33 279 82 c 256
 330 143 339 175 339 195 c 256
 339 229 320 269 230 269 c 256
 145 269 68 220 68 137 c 256
 68 125 68 116 71 104 c 257
 80 129 105 145 134 145 c 256
 175 145 207 117 207 72 c 256
 207 36 178 -1 138 -1 c 256
 55 -1 31 106 31 179 c 256
EndSplineSet
Validated: 5
EndChar

StartChar: si_KhRIi
Encoding: 107 -1 187
GlifName: si_K_hR_I_i
Width: 615
VWidth: 0
GlyphClass: 2
Flags: HW
LayerCount: 2
Fore
SplineSet
392 526 m 256
 392 497 417 474 449 474 c 256
 481 474 507 497 507 526 c 256
 507 555 481 578 449 578 c 256
 417 578 392 555 392 526 c 256
73 549 m 256
 73 637 201 654 299 654 c 256
 432 654 539 625 539 529 c 256
 539 477 492 447 449 447 c 256
 406 447 359 477 359 529 c 256
 359 552 369 565 373 570 c 257
 365 572 333 575 297 575 c 256
 223 575 127 566 127 527 c 256
 127 499 177 496 277 492 c 256
 340 490 432 487 486 448 c 256
 534 413 570 348 570 268 c 257
 519 296 l 257
 519 322 513 374 484 407 c 256
 439 457 377 459 278 465 c 256
 191 470 73 465 73 549 c 256
91 71 m 256
 91 48 111 29 134 29 c 256
 157 29 176 48 176 71 c 256
 176 94 157 114 134 114 c 256
 111 114 91 94 91 71 c 256
31 179 m 256
 31 315 121 387 234 387 c 256
 325 387 403 335 403 252 c 256
 403 196 379 168 372 157 c 257
 375 158 378 158 381 158 c 256
 409 158 401 133 434 133 c 256
 493 133 519 214 519 299 c 257
 539 293 554 281 570 271 c 257
 570 148 511 0 406 0 c 256
 344 0 339 53 313 53 c 256
 300 53 277 33 236 -21 c 257
 197 -18 l 257
 210 -5 238 33 279 82 c 256
 330 143 339 175 339 195 c 256
 339 229 320 269 230 269 c 256
 145 269 68 220 68 137 c 256
 68 125 68 116 71 104 c 257
 80 129 105 145 134 145 c 256
 175 145 207 117 207 72 c 256
 207 36 178 -1 138 -1 c 256
 55 -1 31 106 31 179 c 256
54 -43 m 257
 83 -43 l 257
 120 -85 176 -112 279 -112 c 256
 419 -112 536 -30 536 62 c 256
 536 77 534 89 529 100 c 257
 542 130 l 257
 560 104 568 73 568 37 c 256
 568 -121 443 -214 302 -214 c 256
 172 -214 90 -150 54 -43 c 257
EndSplineSet
Validated: 5
EndChar

StartChar: si_KhRa
Encoding: 104 -1 188
GlifName: si_K_hR_a
Width: 615
VWidth: 0
GlyphClass: 2
Flags: HW
LayerCount: 2
Fore
SplineSet
54 -43 m 257
 83 -43 l 257
 120 -85 176 -112 279 -112 c 256
 419 -112 536 -30 536 62 c 256
 536 77 534 89 529 100 c 257
 542 130 l 257
 560 104 568 73 568 37 c 256
 568 -121 443 -214 302 -214 c 256
 172 -214 90 -150 54 -43 c 257
EndSplineSet
Refer: 438 3483 N 1 0 0 1 0 0 2
Validated: 5
EndChar

StartChar: si_KhU
Encoding: 102 -1 189
GlifName: si_K_hU_
Width: 615
VWidth: 0
GlyphClass: 2
Flags: HW
LayerCount: 2
Fore
SplineSet
50 -139 m 256
 50 -88 95 -49 149 -49 c 256
 190 -49 227 -72 241 -107 c 257
 209 -119 l 257
 202 -102 181 -80 149 -80 c 256
 113 -80 85 -107 85 -139 c 256
 85 -167 106 -188 174 -188 c 258
 527 -188 l 257
 527 125 l 257
 562 214 l 257
 562 -229 l 257
 153 -229 l 258
 75 -229 50 -182 50 -139 c 256
EndSplineSet
Refer: 438 3483 N 1 0 0 1 0 0 2
Validated: 5
EndChar

StartChar: si_KhUu
Encoding: 103 -1 190
GlifName: si_K_hU_u
Width: 615
VWidth: 0
GlyphClass: 2
Flags: HW
LayerCount: 2
Fore
SplineSet
50 -135 m 256
 50 -78 97 -39 149 -39 c 256
 190 -39 222 -54 244 -89 c 257
 212 -100 l 257
 201 -83 182 -68 154 -68 c 256
 116 -68 92 -93 92 -117 c 256
 92 -148 120 -163 153 -163 c 256
 227 -163 301 -112 406 -112 c 256
 456 -112 501 -131 527 -162 c 257
 527 148 l 257
 562 207 l 257
 562 -226 l 257
 537 -226 l 257
 522 -191 477 -143 416 -143 c 256
 327 -143 254 -231 158 -231 c 256
 104 -231 50 -201 50 -135 c 256
EndSplineSet
Refer: 438 3483 N 1 0 0 1 0 0 2
Validated: 5
EndChar

StartChar: si_L.halant
Encoding: 381 -1 191
GlifName: si_L_.halant
Width: 654
VWidth: 0
GlyphClass: 2
Flags: HW
LayerCount: 2
Fore
SplineSet
459 392 m 257
 459 665 l 257
 512 624 607 619 607 529 c 256
 607 486 573 457 531 457 c 256
 517 457 502 460 487 467 c 257
 487 375 l 257
 459 392 l 257
487 492 m 257
 495 488 506 486 519 486 c 256
 550 486 563 510 563 533 c 256
 563 573 532 592 487 622 c 257
 487 492 l 257
EndSplineSet
Refer: 470 3517 N 1 0 0 1 0 0 2
Validated: 5
EndChar

StartChar: si_LI
Encoding: 382 -1 192
GlifName: si_L_I_
Width: 654
VWidth: 0
GlyphClass: 2
Flags: HW
LayerCount: 2
Fore
SplineSet
118 506 m 256
 118 612 228 655 345 655 c 256
 462 655 572 612 572 506 c 256
 572 433 507 399 432 396 c 257
 420 418 l 257
 472 421 506 437 506 468 c 256
 506 509 429 523 345 523 c 256
 258 523 180 510 180 468 c 256
 180 440 217 418 289 416 c 257
 318 414 l 257
 258 396 l 257
 183 399 118 433 118 506 c 256
EndSplineSet
Refer: 470 3517 N 1 0 0 1 0 0 2
Validated: 5
EndChar

StartChar: si_LIi
Encoding: 383 -1 193
GlifName: si_L_I_i
Width: 654
VWidth: 0
GlyphClass: 2
Flags: HW
LayerCount: 2
Fore
SplineSet
418 502 m 256
 418 473 445 449 479 449 c 256
 513 449 541 473 541 502 c 256
 541 531 513 554 479 554 c 256
 445 554 418 531 418 502 c 256
97 505 m 256
 97 611 210 655 334 655 c 256
 448 655 578 613 578 512 c 256
 578 458 534 419 479 419 c 256
 422 419 384 459 384 503 c 256
 384 532 399 554 414 562 c 257
 395 564 376 564 357 564 c 256
 252 564 170 530 170 477 c 256
 170 441 205 415 268 415 c 256
 277 415 303 417 312 418 c 257
 230 395 l 257
 166 395 97 436 97 505 c 256
EndSplineSet
Refer: 470 3517 N 1 0 0 1 0 0 2
Validated: 5
EndChar

StartChar: si_LU
Encoding: 384 -1 194
GlifName: si_L_U_
Width: 654
VWidth: 0
GlyphClass: 2
Flags: HW
LayerCount: 2
Fore
SplineSet
30 181 m 256
 30 333 165 422 355 422 c 256
 476 422 597 383 597 273 c 256
 597 205 540 159 474 159 c 256
 408 159 357 205 357 273 c 257
 259 273 l 257
 259 301 l 257
 506 301 l 257
 506 273 l 257
 387 273 l 257
 387 272 386 270 386 269 c 256
 386 234 428 211 475 211 c 256
 529 211 560 239 560 287 c 256
 560 366 465 391 385 391 c 256
 239 391 172 289 172 183 c 256
 172 62 260 -6 391 -6 c 256
 510 -6 559 84 559 122 c 257
 589 139 l 257
 589 26 482 -56 337 -56 c 256
 178 -56 30 34 30 181 c 256
35 -139 m 256
 35 -88 80 -49 134 -49 c 256
 175 -49 212 -72 226 -107 c 257
 194 -119 l 257
 187 -102 166 -80 134 -80 c 256
 98 -80 69 -107 69 -139 c 256
 69 -167 91 -188 159 -188 c 258
 554 -188 l 257
 554 93 l 257
 589 135 l 257
 589 -229 l 257
 138 -229 l 258
 60 -229 35 -182 35 -139 c 256
EndSplineSet
Validated: 5
EndChar

StartChar: si_LUu
Encoding: 385 -1 195
GlifName: si_L_U_u
Width: 654
VWidth: 0
GlyphClass: 2
Flags: HW
LayerCount: 2
Fore
SplineSet
41 -135 m 256
 41 -78 88 -39 140 -39 c 256
 181 -39 213 -54 235 -89 c 257
 203 -100 l 257
 192 -83 173 -68 145 -68 c 256
 107 -68 83 -93 83 -117 c 256
 83 -148 111 -163 144 -163 c 256
 218 -163 329 -112 434 -112 c 256
 484 -112 529 -131 555 -162 c 257
 555 82 l 257
 589 136 l 257
 589 -226 l 257
 564 -226 l 257
 549 -191 504 -143 443 -143 c 256
 354 -143 245 -231 149 -231 c 256
 95 -231 41 -201 41 -135 c 256
30 181 m 256
 30 333 165 422 355 422 c 256
 476 422 597 383 597 273 c 256
 597 205 540 159 474 159 c 256
 408 159 357 205 357 273 c 257
 259 273 l 257
 259 301 l 257
 506 301 l 257
 506 273 l 257
 387 273 l 257
 387 272 386 270 386 269 c 256
 386 234 428 211 475 211 c 256
 529 211 560 239 560 287 c 256
 560 366 465 391 385 391 c 256
 239 391 172 289 172 183 c 256
 172 62 260 -6 391 -6 c 256
 510 -6 559 84 559 122 c 257
 589 139 l 257
 589 26 482 -56 337 -56 c 256
 178 -56 30 34 30 181 c 256
EndSplineSet
Validated: 5
EndChar

StartChar: si_Ll.halant
Encoding: 436 -1 196
GlifName: si_L_l.halant
Width: 621
VWidth: 0
GlyphClass: 2
Flags: HW
LayerCount: 2
Fore
SplineSet
426 403 m 257
 426 665 l 257
 479 624 573 619 573 529 c 256
 573 486 539 457 497 457 c 256
 483 457 468 460 453 467 c 257
 453 397 l 257
 426 403 l 257
453 492 m 257
 461 488 472 486 485 486 c 256
 516 486 530 510 530 533 c 256
 530 573 498 592 453 622 c 257
 453 492 l 257
EndSplineSet
Refer: 476 3525 N 1 0 0 1 0 0 2
Validated: 5
EndChar

StartChar: si_LlI
Encoding: 437 -1 197
GlifName: si_L_lI_
Width: 621
VWidth: 0
GlyphClass: 2
Flags: HW
LayerCount: 2
Fore
SplineSet
100 506 m 256
 100 612 210 655 327 655 c 256
 444 655 553 612 553 506 c 256
 553 433 489 399 414 396 c 257
 414 418 l 257
 466 421 488 437 488 468 c 256
 488 509 411 523 327 523 c 256
 240 523 162 510 162 468 c 256
 162 440 188 421 240 418 c 257
 260 416 l 257
 240 396 l 257
 165 399 100 433 100 506 c 256
EndSplineSet
Refer: 476 3525 N 1 0 0 1 0 0 2
Validated: 5
EndChar

StartChar: si_LlIi
Encoding: 438 -1 198
GlifName: si_L_lI_i
Width: 621
VWidth: 0
GlyphClass: 2
Flags: HW
LayerCount: 2
Fore
SplineSet
405 502 m 256
 405 472 434 448 468 448 c 256
 502 448 531 472 531 502 c 256
 531 532 502 556 468 556 c 256
 434 556 405 532 405 502 c 256
85 505 m 256
 85 610 199 655 323 655 c 256
 437 655 566 613 566 512 c 256
 566 458 523 419 468 419 c 256
 411 419 372 459 372 503 c 256
 372 513 375 536 388 549 c 257
 379 550 344 552 312 552 c 256
 220 552 144 526 144 473 c 256
 144 435 197 420 231 418 c 257
 261 414 l 257
 185 399 l 257
 139 408 85 445 85 505 c 256
EndSplineSet
Refer: 476 3525 N 1 0 0 1 0 0 2
Validated: 5
EndChar

StartChar: si_LlU
Encoding: 439 -1 199
GlifName: si_L_lU_
Width: 646
VWidth: 0
GlyphClass: 2
Flags: HW
LayerCount: 2
Fore
SplineSet
112 161 m 256
 112 263 198 302 304 302 c 258
 321 302 l 257
 321 304 321 306 321 308 c 256
 321 347 293 380 258 380 c 256
 230 380 217 360 212 347 c 256
 204 327 193 313 167 313 c 256
 151 313 131 325 131 351 c 256
 131 397 180 421 234 421 c 256
 319 421 354 354 354 288 c 256
 354 285 354 278 354 275 c 257
 295 275 l 258
 223 275 178 253 178 205 c 256
 178 152 266 138 341 138 c 256
 480 138 553 198 553 290 c 256
 553 334 544 374 529 402 c 257
 515 370 485 351 443 351 c 256
 381 351 345 405 345 469 c 256
 345 518 360 553 386 583 c 257
 446 551 515 481 550 420 c 256
 588 355 601 307 601 239 c 256
 601 114 517 0 338 0 c 256
 219 0 112 45 112 161 c 256
378 475 m 256
 378 432 410 396 450 396 c 256
 472 396 497 405 507 431 c 257
 478 474 431 518 395 544 c 257
 386 528 378 507 378 475 c 256
26 243 m 256
 26 372 123 422 225 422 c 256
 233 422 253 422 271 417 c 257
 255 396 l 257
 227 394 201 396 169 387 c 256
 102 369 58 329 58 240 c 256
 58 163 104 93 174 75 c 257
 174 43 l 257
 84 66 26 144 26 243 c 256
EndSplineSet
Validated: 5
EndChar

StartChar: si_LlUu
Encoding: 440 -1 200
GlifName: si_L_lU_u
Width: 907
VWidth: 0
GlyphClass: 2
Flags: HW
LayerCount: 2
Fore
SplineSet
569 305 m 257
 569 331 l 257
 824 331 l 257
 824 310 l 257
 700 218 l 257
 847 218 l 257
 847 196 l 257
 803 162 765 115 765 35 c 256
 765 -28 802 -97 880 -97 c 257
 880 -124 l 257
 847 -138 812 -145 783 -145 c 256
 695 -145 635 -89 635 -16 c 256
 635 91 736 152 803 192 c 257
 651 192 l 257
 651 216 l 257
 774 305 l 257
 569 305 l 257
EndSplineSet
Refer: 199 -1 N 1 0 0 1 0 0 2
Validated: 5
EndChar

StartChar: si_M.halant
Encoding: 346 -1 201
GlifName: si_M_.halant
Width: 620
VWidth: 0
GlyphClass: 2
Flags: HW
LayerCount: 2
Fore
SplineSet
144 525 m 256
 144 513 162 514 162 503 c 256
 162 501 161 498 159 496 c 257
 191 502 230 507 275 507 c 256
 380 507 461 477 515 415 c 257
 483 523 393 561 280 561 c 256
 210 561 144 544 144 525 c 256
44 430 m 257
 44 462 l 257
 75 474 124 487 124 496 c 256
 124 508 96 508 96 533 c 256
 96 569 162 614 274 614 c 256
 477 614 547 479 559 348 c 257
 567 323 571 295 571 269 c 257
 503 307 l 257
 503 315 503 310 503 314 c 256
 503 398 437 480 272 480 c 256
 198 480 123 467 44 430 c 257
259 344 m 256
 259 318 280 297 306 297 c 256
 332 297 353 318 353 344 c 256
 353 370 332 391 306 391 c 256
 280 391 259 370 259 344 c 256
32 244 m 256
 32 331 77 422 152 422 c 256
 200 422 205 391 205 369 c 256
 205 343 199 335 199 303 c 256
 199 255 239 225 293 225 c 256
 352 225 392 254 392 312 c 256
 392 339 383 350 378 357 c 257
 380 347 380 343 380 335 c 256
 380 299 353 265 306 265 c 256
 256 265 228 308 228 343 c 256
 228 388 264 422 311 422 c 256
 378 422 423 378 423 308 c 256
 423 234 366 193 295 193 c 256
 236 193 167 226 167 297 c 256
 167 329 174 350 174 367 c 256
 174 379 171 393 150 393 c 256
 109 393 91 342 91 303 c 256
 91 201 177 131 295 131 c 256
 410 131 503 203 503 311 c 257
 521 293 548 292 571 273 c 257
 571 107 464 0 303 0 c 256
 140 0 32 92 32 244 c 256
EndSplineSet
Validated: 5
EndChar

StartChar: si_MI
Encoding: 347 -1 202
GlifName: si_M_I_
Width: 620
VWidth: 0
GlyphClass: 2
Flags: HW
LayerCount: 2
Fore
SplineSet
66 549 m 256
 66 637 197 654 295 654 c 256
 428 654 541 624 541 541 c 256
 541 490 488 469 455 463 c 257
 406 479 l 257
 441 480 467 493 467 515 c 256
 467 551 400 567 295 567 c 256
 221 567 124 559 124 525 c 256
 124 499 174 496 274 492 c 256
 337 490 434 487 488 448 c 256
 536 413 571 349 571 263 c 257
 503 314 l 257
 503 349 493 393 461 420 c 256
 414 460 374 459 275 465 c 256
 188 470 66 465 66 549 c 256
259 344 m 256
 259 318 280 297 306 297 c 256
 332 297 353 318 353 344 c 256
 353 370 332 391 306 391 c 256
 280 391 259 370 259 344 c 256
32 244 m 256
 32 331 77 422 152 422 c 256
 200 422 205 391 205 369 c 256
 205 343 199 335 199 303 c 256
 199 255 239 225 293 225 c 256
 352 225 392 254 392 312 c 256
 392 339 383 350 378 357 c 257
 380 347 380 343 380 335 c 256
 380 299 353 265 306 265 c 256
 256 265 228 308 228 343 c 256
 228 388 264 422 311 422 c 256
 378 422 423 378 423 308 c 256
 423 234 366 193 295 193 c 256
 236 193 167 226 167 297 c 256
 167 329 174 350 174 367 c 256
 174 379 171 393 150 393 c 256
 109 393 91 342 91 303 c 256
 91 201 177 131 295 131 c 256
 410 131 503 201 503 317 c 257
 521 299 548 286 571 267 c 257
 571 112 464 0 303 0 c 256
 140 0 32 92 32 244 c 256
EndSplineSet
Validated: 5
EndChar

StartChar: si_MIi
Encoding: 348 -1 203
GlifName: si_M_I_i
Width: 620
VWidth: 0
GlyphClass: 2
Flags: HW
LayerCount: 2
Fore
SplineSet
393 526 m 256
 393 497 419 474 451 474 c 256
 483 474 508 497 508 526 c 256
 508 555 483 578 451 578 c 256
 419 578 393 555 393 526 c 256
65 549 m 256
 65 637 196 654 300 654 c 256
 433 654 541 625 541 529 c 256
 541 477 494 447 451 447 c 256
 408 447 361 477 361 529 c 256
 361 552 371 565 375 570 c 257
 367 572 334 575 298 575 c 256
 224 575 119 566 119 527 c 256
 119 499 179 496 279 492 c 256
 342 490 434 487 488 448 c 256
 536 413 571 355 571 264 c 257
 503 317 l 257
 503 341 502 373 479 404 c 256
 440 457 379 459 280 465 c 256
 193 470 65 465 65 549 c 256
259 344 m 256
 259 318 280 297 306 297 c 256
 332 297 353 318 353 344 c 256
 353 370 332 391 306 391 c 256
 280 391 259 370 259 344 c 256
32 244 m 256
 32 331 77 422 152 422 c 256
 200 422 205 391 205 369 c 256
 205 343 199 335 199 303 c 256
 199 255 239 225 293 225 c 256
 352 225 392 254 392 312 c 256
 392 339 383 350 378 357 c 257
 380 347 380 343 380 335 c 256
 380 299 353 265 306 265 c 256
 256 265 228 308 228 343 c 256
 228 388 264 422 311 422 c 256
 378 422 423 378 423 308 c 256
 423 234 366 193 295 193 c 256
 236 193 167 226 167 297 c 256
 167 329 174 350 174 367 c 256
 174 379 171 393 150 393 c 256
 109 393 91 342 91 303 c 256
 91 201 177 131 295 131 c 256
 410 131 503 200 503 321 c 257
 521 303 548 286 571 267 c 257
 571 112 464 0 303 0 c 256
 140 0 32 92 32 244 c 256
EndSplineSet
Validated: 5
EndChar

StartChar: si_MRI
Encoding: 354 -1 204
GlifName: si_M_R_I_
Width: 620
VWidth: 0
GlyphClass: 2
Flags: HW
LayerCount: 2
Fore
SplineSet
66 549 m 256
 66 637 197 654 295 654 c 256
 428 654 541 624 541 541 c 256
 541 490 488 469 455 463 c 257
 406 479 l 257
 441 480 467 493 467 515 c 256
 467 551 400 567 295 567 c 256
 221 567 124 559 124 525 c 256
 124 499 174 496 274 492 c 256
 337 490 434 487 488 448 c 256
 536 413 571 349 571 263 c 257
 503 314 l 257
 503 349 493 393 461 420 c 256
 414 460 374 459 275 465 c 256
 188 470 66 465 66 549 c 256
259 344 m 256
 259 318 280 297 306 297 c 256
 332 297 353 318 353 344 c 256
 353 370 332 391 306 391 c 256
 280 391 259 370 259 344 c 256
32 244 m 256
 32 331 77 422 152 422 c 256
 200 422 205 391 205 369 c 256
 205 343 199 335 199 303 c 256
 199 255 239 225 293 225 c 256
 352 225 392 254 392 312 c 256
 392 339 383 350 378 357 c 257
 380 347 380 343 380 335 c 256
 380 299 353 265 306 265 c 256
 256 265 228 308 228 343 c 256
 228 388 264 422 311 422 c 256
 378 422 423 378 423 308 c 256
 423 234 366 193 295 193 c 256
 236 193 167 226 167 297 c 256
 167 329 174 350 174 367 c 256
 174 379 171 393 150 393 c 256
 109 393 91 342 91 303 c 256
 91 201 177 131 295 131 c 256
 410 131 503 201 503 317 c 257
 521 299 548 286 571 267 c 257
 571 112 464 0 303 0 c 256
 140 0 32 92 32 244 c 256
54 -43 m 257
 83 -43 l 257
 120 -85 176 -112 279 -112 c 256
 419 -112 535 -30 535 62 c 256
 535 77 531 94 521 109 c 257
 537 137 l 257
 559 111 568 73 568 37 c 256
 568 -121 443 -214 302 -214 c 256
 172 -214 90 -150 54 -43 c 257
EndSplineSet
Validated: 5
EndChar

StartChar: si_MRIi
Encoding: 355 -1 205
GlifName: si_M_R_I_i
Width: 620
VWidth: 0
GlyphClass: 2
Flags: HW
LayerCount: 2
Fore
SplineSet
393 526 m 256
 393 497 419 474 451 474 c 256
 483 474 508 497 508 526 c 256
 508 555 483 578 451 578 c 256
 419 578 393 555 393 526 c 256
65 549 m 256
 65 637 196 654 300 654 c 256
 433 654 541 625 541 529 c 256
 541 477 494 447 451 447 c 256
 408 447 361 477 361 529 c 256
 361 552 371 565 375 570 c 257
 367 572 334 575 298 575 c 256
 224 575 119 566 119 527 c 256
 119 499 179 496 279 492 c 256
 342 490 434 487 488 448 c 256
 536 413 571 355 571 264 c 257
 503 317 l 257
 503 341 502 373 479 404 c 256
 440 457 379 459 280 465 c 256
 193 470 65 465 65 549 c 256
259 344 m 256
 259 318 280 297 306 297 c 256
 332 297 353 318 353 344 c 256
 353 370 332 391 306 391 c 256
 280 391 259 370 259 344 c 256
32 244 m 256
 32 331 77 422 152 422 c 256
 200 422 205 391 205 369 c 256
 205 343 199 335 199 303 c 256
 199 255 239 225 293 225 c 256
 352 225 392 254 392 312 c 256
 392 339 383 350 378 357 c 257
 380 347 380 343 380 335 c 256
 380 299 353 265 306 265 c 256
 256 265 228 308 228 343 c 256
 228 388 264 422 311 422 c 256
 378 422 423 378 423 308 c 256
 423 234 366 193 295 193 c 256
 236 193 167 226 167 297 c 256
 167 329 174 350 174 367 c 256
 174 379 171 393 150 393 c 256
 109 393 91 342 91 303 c 256
 91 201 177 131 295 131 c 256
 410 131 503 200 503 321 c 257
 521 303 548 286 571 267 c 257
 571 112 464 0 303 0 c 256
 140 0 32 92 32 244 c 256
54 -43 m 257
 83 -43 l 257
 120 -85 176 -112 279 -112 c 256
 419 -112 535 -30 535 62 c 256
 535 77 531 94 521 109 c 257
 537 137 l 257
 559 111 568 73 568 37 c 256
 568 -121 443 -214 302 -214 c 256
 172 -214 90 -150 54 -43 c 257
EndSplineSet
Validated: 5
EndChar

StartChar: si_MRa
Encoding: 353 -1 206
GlifName: si_M_R_a
Width: 620
VWidth: 0
GlyphClass: 2
Flags: HW
LayerCount: 2
Fore
SplineSet
54 -43 m 261
 83 -43 l 261
 120 -85 176 -112 279 -112 c 260
 419 -112 535 -30 535 62 c 260
 535 77 531 94 521 109 c 261
 537 137 l 261
 559 111 568 73 568 37 c 260
 568 -121 443 -214 302 -214 c 260
 172 -214 90 -150 54 -43 c 261
EndSplineSet
Refer: 466 3512 N 1 0 0 1 0 0 2
Validated: 5
EndChar

StartChar: si_MU
Encoding: 349 -1 207
GlifName: si_M_U_
Width: 620
VWidth: 0
GlyphClass: 2
Flags: HW
LayerCount: 2
Fore
SplineSet
50 -139 m 256
 50 -88 95 -49 149 -49 c 256
 190 -49 227 -72 241 -107 c 257
 209 -119 l 257
 202 -102 181 -80 149 -80 c 256
 113 -80 85 -107 85 -139 c 256
 85 -167 106 -188 174 -188 c 258
 527 -188 l 257
 527 125 l 257
 562 214 l 257
 562 -229 l 257
 153 -229 l 258
 75 -229 50 -182 50 -139 c 256
EndSplineSet
Refer: 466 3512 N 1 0 0 1 0 0 2
Validated: 5
EndChar

StartChar: si_MUu
Encoding: 350 -1 208
GlifName: si_M_U_u
Width: 620
VWidth: 0
GlyphClass: 2
Flags: HW
LayerCount: 2
Fore
SplineSet
50 -135 m 256
 50 -78 97 -39 149 -39 c 256
 190 -39 222 -54 244 -89 c 257
 212 -100 l 257
 201 -83 182 -68 154 -68 c 256
 116 -68 92 -93 92 -117 c 256
 92 -148 120 -163 153 -163 c 256
 227 -163 301 -112 406 -112 c 256
 456 -112 501 -131 527 -162 c 257
 527 148 l 257
 562 207 l 257
 562 -226 l 257
 537 -226 l 257
 522 -191 477 -143 416 -143 c 256
 327 -143 254 -231 158 -231 c 256
 104 -231 50 -201 50 -135 c 256
EndSplineSet
Refer: 466 3512 N 1 0 0 1 0 0 2
Validated: 5
EndChar

StartChar: si_Ma.reph
Encoding: 351 -1 209
GlifName: si_M_a.reph
Width: 620
VWidth: 0
GlyphClass: 2
Flags: HW
LayerCount: 2
Fore
SplineSet
268 613 m 256
 268 593 286 578 307 578 c 256
 328 578 346 593 346 613 c 256
 346 633 328 649 307 649 c 256
 286 649 268 633 268 613 c 256
167 632 m 256
 167 694 224 730 304 730 c 256
 379 730 442 688 442 619 c 256
 442 596 433 575 417 556 c 257
 383 556 l 257
 396 568 411 591 411 618 c 256
 411 671 363 703 303 703 c 256
 251 703 199 681 199 632 c 256
 199 594 242 576 259 574 c 257
 251 580 241 593 241 614 c 256
 241 648 271 673 306 673 c 256
 346 673 374 646 374 612 c 256
 374 574 340 549 283 549 c 256
 225 549 167 577 167 632 c 256
EndSplineSet
Refer: 466 3512 N 1 0 0 1 0 0 2
Validated: 5
EndChar

StartChar: si_MatraU.alt
Encoding: 85 -1 211
GlifName: si_M_atraU_.alt
Width: 1
VWidth: 0
GlyphClass: 2
Flags: HW
LayerCount: 2
Fore
SplineSet
-307 -78 m 256
 -307 -29 -278 5 -239 20 c 257
 -230 2 l 257
 -252 -10 -263 -25 -263 -47 c 256
 -263 -83 -220 -103 -170 -103 c 256
 -110 -103 -65 -81 -65 -44 c 256
 -65 -41 -65 -38 -65 -35 c 257
 -36 -35 l 257
 -34 -44 -34 -59 -34 -68 c 256
 -34 -119 -77 -187 -175 -187 c 256
 -241 -187 -307 -146 -307 -78 c 256
EndSplineSet
Validated: 1
EndChar

StartChar: si_MatraUu.alt
Encoding: 86 -1 212
GlifName: si_M_atraU_u.alt
Width: 728
VWidth: 0
GlyphClass: 2
Flags: HW
LayerCount: 2
Fore
SplineSet
-287 -126 m 256
 -287 -91 -261 -70 -225 -65 c 257
 -278 -38 l 257
 -195 -14 l 257
 -229 -1 l 257
 -228 21 l 257
 -135 -15 l 257
 -217 -42 l 257
 -158 -74 l 257
 -185 -81 -238 -81 -238 -102 c 256
 -238 -118 -207 -126 -166 -126 c 256
 -113 -126 -70 -110 -70 -80 c 256
 -70 -75 -71 -66 -76 -58 c 257
 -42 -58 l 257
 -38 -70 -38 -81 -38 -92 c 256
 -38 -157 -88 -200 -168 -200 c 256
 -225 -200 -287 -183 -287 -126 c 256
EndSplineSet
Validated: 1
EndChar

StartChar: si_Mb.halant
Encoding: 356 -1 213
GlifName: si_M_b.halant
Width: 621
VWidth: 0
GlyphClass: 2
Flags: HW
LayerCount: 2
Fore
SplineSet
29 225 m 256
 29 330 73 421 145 421 c 256
 164 421 171 418 178 413 c 256
 188 406 196 391 196 362 c 256
 196 348 196 350 196 347 c 256
 196 295 227 261 290 261 c 256
 344 261 363 290 366 305 c 256
 366 307 366 309 366 310 c 257
 362 305 351 282 311 282 c 256
 265 282 239 317 239 352 c 256
 239 393 270 424 314 424 c 256
 372 424 398 374 398 329 c 256
 398 273 354 232 285 232 c 256
 213 232 167 276 167 349 c 256
 167 354 167 354 167 363 c 256
 167 374 165 383 160 388 c 256
 156 392 150 394 142 394 c 256
 96 394 72 321 72 272 c 256
 72 193 107 122 176 122 c 256
 193 122 206 126 214 133 c 257
 214 140 215 147 218 156 c 256
 229 194 262 214 303 214 c 256
 344 214 377 194 388 156 c 256
 391 147 392 140 392 133 c 257
 401 126 412 122 430 122 c 256
 488 122 516 215 516 293 c 256
 516 311 514 328 510 344 c 256
 487 426 408 480 270 480 c 256
 196 480 120 467 41 430 c 257
 41 462 l 257
 72 474 121 487 121 496 c 256
 121 508 93 508 93 533 c 256
 93 569 159 614 271 614 c 256
 474 614 547 479 559 348 c 257
 568 326 576 288 576 244 c 257
 575 121 510 0 414 0 c 256
 391 0 381 4 351 12 c 256
 348 16 347 39 347 46 c 256
 347 77 361 91 361 118 c 256
 361 154 346 182 303 182 c 256
 260 182 244 154 244 118 c 256
 244 91 259 77 259 46 c 256
 259 39 258 16 255 12 c 256
 225 4 214 0 191 0 c 256
 83 0 29 117 29 225 c 256
141 525 m 256
 141 513 159 514 159 503 c 256
 159 501 158 498 156 496 c 257
 188 502 227 507 272 507 c 256
 377 507 461 477 515 415 c 257
 483 523 390 561 277 561 c 256
 207 561 141 544 141 525 c 256
268 354 m 256
 268 329 288 310 313 310 c 256
 338 310 358 329 358 354 c 256
 358 379 338 399 313 399 c 256
 288 399 268 379 268 354 c 256
EndSplineSet
Validated: 1
EndChar

StartChar: si_MbI
Encoding: 357 -1 214
GlifName: si_M_bI_
Width: 621
VWidth: 0
GlyphClass: 2
Flags: HW
LayerCount: 2
Fore
SplineSet
71 549 m 256
 71 637 202 654 300 654 c 256
 433 654 545 624 545 541 c 256
 545 490 492 469 459 463 c 257
 410 479 l 257
 445 480 472 493 472 515 c 256
 472 551 405 567 300 567 c 256
 226 567 128 559 128 525 c 256
 128 499 178 496 278 492 c 256
 341 490 438 487 492 448 c 256
 540 413 576 347 576 245 c 257
 517 285 l 257
 517 312 514 372 484 407 c 256
 440 458 378 459 279 465 c 256
 192 470 71 465 71 549 c 256
268 354 m 256
 268 329 288 310 313 310 c 256
 338 310 358 329 358 354 c 256
 358 379 338 399 313 399 c 256
 288 399 268 379 268 354 c 256
29 225 m 256
 29 330 73 421 145 421 c 256
 164 421 171 418 178 413 c 256
 188 406 196 391 196 362 c 256
 196 348 196 350 196 347 c 256
 196 295 227 261 290 261 c 256
 342 261 366 292 366 308 c 256
 366 309 366 308 366 310 c 257
 362 305 351 282 311 282 c 256
 265 282 239 317 239 352 c 256
 239 393 270 424 314 424 c 256
 372 424 398 374 398 329 c 256
 398 273 354 232 285 232 c 256
 213 232 167 276 167 349 c 256
 167 354 167 354 167 363 c 256
 167 383 161 394 142 394 c 256
 96 394 72 321 72 272 c 256
 72 193 107 122 176 122 c 256
 193 122 206 126 214 133 c 257
 214 140 215 147 218 156 c 256
 229 194 262 214 303 214 c 256
 344 214 377 194 388 156 c 256
 391 147 392 140 392 133 c 257
 401 126 412 122 430 122 c 256
 486 122 517 208 517 289 c 257
 576 248 l 257
 576 123 511 0 414 0 c 256
 391 0 381 4 351 12 c 257
 348 16 347 39 347 46 c 256
 347 77 361 91 361 118 c 256
 361 154 346 182 303 182 c 256
 260 182 244 154 244 118 c 256
 244 91 259 77 259 46 c 256
 259 39 258 16 255 12 c 257
 225 4 214 0 191 0 c 256
 83 0 29 117 29 225 c 256
EndSplineSet
Validated: 5
EndChar

StartChar: si_MbIi
Encoding: 358 -1 215
GlifName: si_M_bI_i
Width: 621
VWidth: 0
GlyphClass: 2
Flags: HW
LayerCount: 2
Fore
SplineSet
29 225 m 256
 29 330 73 421 145 421 c 256
 164 421 171 418 178 413 c 256
 188 406 196 391 196 362 c 256
 196 348 196 350 196 347 c 256
 196 295 227 261 290 261 c 256
 342 261 366 292 366 308 c 256
 366 309 366 308 366 310 c 257
 362 305 351 282 311 282 c 256
 265 282 239 317 239 352 c 256
 239 393 270 424 314 424 c 256
 372 424 398 374 398 329 c 256
 398 273 354 232 285 232 c 256
 213 232 167 276 167 349 c 256
 167 354 167 354 167 363 c 256
 167 383 161 394 142 394 c 256
 96 394 72 321 72 272 c 256
 72 193 107 122 176 122 c 256
 193 122 206 126 214 133 c 257
 214 140 215 147 218 156 c 256
 229 194 262 214 303 214 c 256
 344 214 377 194 388 156 c 256
 391 147 392 140 392 133 c 257
 401 126 412 122 430 122 c 256
 486 122 517 208 517 289 c 257
 576 256 l 257
 576 124 511 0 414 0 c 256
 391 0 381 4 351 12 c 257
 348 16 347 39 347 46 c 256
 347 77 361 91 361 118 c 256
 361 154 346 182 303 182 c 256
 260 182 244 154 244 118 c 256
 244 91 259 77 259 46 c 256
 259 39 258 16 255 12 c 257
 225 4 214 0 191 0 c 256
 83 0 29 117 29 225 c 256
268 354 m 260
 268 329 288 310 313 310 c 260
 338 310 358 329 358 354 c 260
 358 379 338 399 313 399 c 260
 288 399 268 379 268 354 c 260
399 526 m 256
 399 497 425 474 457 474 c 256
 489 474 515 497 515 526 c 256
 515 555 489 578 457 578 c 256
 425 578 399 555 399 526 c 256
71 549 m 256
 71 637 209 654 307 654 c 256
 440 654 547 625 547 529 c 256
 547 477 500 447 457 447 c 256
 414 447 367 477 367 529 c 256
 367 552 377 565 381 570 c 257
 373 572 341 575 305 575 c 256
 231 575 125 566 125 527 c 256
 125 499 185 496 285 492 c 256
 348 490 440 487 494 448 c 256
 542 413 576 353 576 252 c 257
 517 285 l 257
 517 326 509 374 480 408 c 256
 436 459 385 459 286 465 c 256
 199 470 71 465 71 549 c 256
EndSplineSet
Validated: 5
EndChar

StartChar: si_MbU
Encoding: 359 -1 216
GlifName: si_M_bU_
Width: 621
VWidth: 0
GlyphClass: 2
Flags: HW
LayerCount: 2
Fore
SplineSet
50 -139 m 256
 50 -88 95 -49 149 -49 c 256
 190 -49 227 -72 241 -107 c 257
 209 -119 l 257
 202 -102 181 -80 149 -80 c 256
 113 -80 85 -107 85 -139 c 256
 85 -167 106 -188 174 -188 c 258
 527 -188 l 257
 527 125 l 257
 562 214 l 257
 562 -229 l 257
 153 -229 l 258
 75 -229 50 -182 50 -139 c 256
EndSplineSet
Refer: 467 3513 N 1 0 0 1 0 0 2
Validated: 5
EndChar

StartChar: si_MbUu
Encoding: 360 -1 217
GlifName: si_M_bU_u
Width: 621
VWidth: 0
GlyphClass: 2
Flags: HW
LayerCount: 2
Fore
SplineSet
50 -135 m 256
 50 -78 97 -39 149 -39 c 256
 190 -39 222 -54 244 -89 c 257
 212 -100 l 257
 201 -83 182 -68 154 -68 c 256
 116 -68 92 -93 92 -117 c 256
 92 -148 120 -163 153 -163 c 256
 227 -163 301 -112 406 -112 c 256
 456 -112 501 -131 527 -162 c 257
 527 148 l 257
 562 207 l 257
 562 -226 l 257
 537 -226 l 257
 522 -191 477 -143 416 -143 c 256
 327 -143 254 -231 158 -231 c 256
 104 -231 50 -201 50 -135 c 256
EndSplineSet
Refer: 467 3513 N 1 0 0 1 0 0 2
Validated: 5
EndChar

StartChar: si_N.halant
Encoding: 294 -1 218
GlifName: si_N_.halant
Width: 787
VWidth: 0
GlyphClass: 2
Flags: HW
LayerCount: 2
Fore
SplineSet
591 340 m 257
 591 665 l 257
 644 624 739 619 739 529 c 256
 739 486 705 457 663 457 c 256
 649 457 634 460 619 467 c 257
 619 323 l 257
 591 340 l 257
619 492 m 257
 627 488 638 486 651 486 c 256
 682 486 695 510 695 533 c 256
 695 573 664 592 619 622 c 257
 619 492 l 257
EndSplineSet
Refer: 460 3505 N 1 0 0 1 0 0 2
Validated: 5
EndChar

StartChar: si_ND.halant
Encoding: 477 -1 219
GlifName: si_N_D_.halant
Width: 873
VWidth: 0
GlyphClass: 2
Flags: HW
LayerCount: 2
Fore
SplineSet
685 413 m 257
 685 665 l 257
 738 624 833 619 833 529 c 256
 833 486 799 457 757 457 c 256
 743 457 728 460 713 467 c 257
 713 400 l 257
 685 413 l 257
713 492 m 257
 721 488 732 486 745 486 c 256
 776 486 789 510 789 533 c 256
 789 573 758 592 713 622 c 257
 713 492 l 257
EndSplineSet
Refer: 230 -1 N 1 0 0 1 0 0 2
Validated: 5
EndChar

StartChar: si_NDAa
Encoding: 478 -1 220
GlifName: si_N_D_A_a
Width: 915
VWidth: 0
GlyphClass: 2
Flags: HW
LayerCount: 2
Fore
SplineSet
23 172 m 257
 31 163 48 156 65 156 c 256
 127 156 128 201 203 272 c 257
 216 285 218 301 218 314 c 256
 218 347 199 371 176 371 c 256
 156 371 142 361 140 337 c 256
 138 316 128 287 97 287 c 256
 80 287 54 297 54 331 c 256
 54 375 87 421 150 421 c 256
 214 421 247 377 247 326 c 256
 247 318 246 312 245 308 c 257
 301 361 392 426 577 426 c 256
 601 426 659 426 693 419 c 257
 674 415 604 397 592 397 c 257
 583 397 580 397 571 397 c 256
 418 397 335 352 266 292 c 257
 291 300 310 301 337 301 c 256
 419 301 486 243 486 165 c 256
 486 52 389 -1 270 -1 c 256
 133 -1 23 64 23 172 c 257
122 144 m 257
 150 135 185 130 242 130 c 256
 351 130 408 173 408 220 c 256
 408 253 381 274 326 274 c 256
 185 274 184 186 122 144 c 257
EndSplineSet
Refer: 40 -1 N 1 0 0 1 428 0 2
Validated: 5
EndChar

StartChar: si_NDAe
Encoding: 480 -1 221
GlifName: si_N_D_A_e
Width: 872
VWidth: 0
GlyphClass: 2
Flags: HW
LayerCount: 2
Fore
SplineSet
23 172 m 257
 31 163 48 156 65 156 c 256
 127 156 128 201 203 272 c 257
 216 285 218 301 218 314 c 256
 218 347 199 371 176 371 c 256
 156 371 142 361 140 337 c 256
 138 316 128 287 97 287 c 256
 80 287 54 297 54 331 c 256
 54 375 87 421 150 421 c 256
 214 421 247 377 247 326 c 256
 247 318 246 312 245 308 c 257
 301 361 392 426 577 426 c 256
 601 426 659 426 693 419 c 257
 674 415 604 397 592 397 c 257
 583 397 580 397 571 397 c 256
 418 397 335 352 266 292 c 257
 291 300 310 301 337 301 c 256
 419 301 486 243 486 165 c 256
 486 52 389 -1 270 -1 c 256
 133 -1 23 64 23 172 c 257
122 144 m 257
 150 135 185 130 242 130 c 256
 351 130 408 173 408 220 c 256
 408 253 381 274 326 274 c 256
 185 274 184 186 122 144 c 257
EndSplineSet
Refer: 43 -1 N 1 0 0 1 429 0 2
Validated: 5
EndChar

StartChar: si_NDAee
Encoding: 481 -1 222
GlifName: si_N_D_A_ee
Width: 881
VWidth: 0
GlyphClass: 2
Flags: HW
LayerCount: 2
Fore
SplineSet
23 172 m 257
 31 163 48 156 65 156 c 256
 127 156 128 201 203 272 c 257
 216 285 218 301 218 314 c 256
 218 347 199 371 176 371 c 256
 156 371 142 361 140 337 c 256
 138 316 128 287 97 287 c 256
 80 287 54 297 54 331 c 256
 54 375 87 421 150 421 c 256
 214 421 247 377 247 326 c 256
 247 318 246 312 245 308 c 257
 301 361 392 426 577 426 c 256
 601 426 659 426 693 419 c 257
 674 415 604 397 592 397 c 257
 583 397 580 397 571 397 c 256
 418 397 335 352 266 292 c 257
 291 300 310 301 337 301 c 256
 419 301 486 243 486 165 c 256
 486 52 389 -1 270 -1 c 256
 133 -1 23 64 23 172 c 257
122 144 m 257
 150 135 185 130 242 130 c 256
 351 130 408 173 408 220 c 256
 408 253 381 274 326 274 c 256
 185 274 184 186 122 144 c 257
EndSplineSet
Refer: 42 -1 N 1 0 0 1 429 0 2
Validated: 5
EndChar

StartChar: si_NDI
Encoding: 482 -1 223
GlifName: si_N_D_I_
Width: 873
VWidth: 0
GlyphClass: 2
Flags: HW
LayerCount: 2
Fore
SplineSet
462 508 m 256
 462 606 552 655 646 655 c 256
 740 655 830 603 830 506 c 256
 830 433 767 397 716 396 c 257
 701 417 l 257
 754 417 777 450 777 475 c 256
 777 523 719 539 649 539 c 256
 579 539 510 524 510 479 c 256
 510 457 527 429 573 426 c 257
 518 421 l 257
 510 421 462 447 462 508 c 256
EndSplineSet
Refer: 230 -1 N 1 0 0 1 0 0 2
Validated: 5
EndChar

StartChar: si_NDIi
Encoding: 483 -1 224
GlifName: si_N_D_I_i
Width: 873
VWidth: 0
GlyphClass: 2
Flags: HW
LayerCount: 2
Fore
SplineSet
672 502 m 256
 672 473 700 449 734 449 c 256
 768 449 796 473 796 502 c 256
 796 531 768 554 734 554 c 256
 700 554 672 531 672 502 c 256
462 506 m 256
 462 604 552 655 646 655 c 256
 740 655 830 599 830 510 c 256
 830 452 783 419 733 419 c 256
 675 419 638 459 638 503 c 256
 638 521 645 547 668 562 c 257
 661 563 649 564 636 564 c 256
 566 564 504 538 504 486 c 256
 504 456 530 426 582 426 c 257
 517 421 l 257
 509 423 462 444 462 506 c 256
EndSplineSet
Refer: 230 -1 N 1 0 0 1 0 0 2
Validated: 5
EndChar

StartChar: si_NDRI
Encoding: 487 -1 225
GlifName: si_N_D_R_I_
Width: 873
VWidth: 0
GlyphClass: 2
Flags: HW
LayerCount: 2
Fore
SplineSet
462 508 m 260
 462 606 552 655 646 655 c 260
 740 655 830 603 830 506 c 260
 830 433 767 397 716 396 c 261
 701 417 l 261
 754 417 777 450 777 475 c 260
 777 523 719 539 649 539 c 260
 579 539 510 524 510 479 c 260
 510 457 527 429 573 426 c 261
 518 421 l 261
 510 421 462 447 462 508 c 260
461 -42 m 257
 488 -42 l 257
 515 -82 552 -101 627 -101 c 256
 715 -101 799 -37 799 50 c 256
 799 71 799 64 798 72 c 257
 826 77 l 257
 826 57 826 74 826 38 c 256
 826 -106 741 -199 638 -199 c 256
 535 -199 480 -141 461 -42 c 257
458 165 m 256
 458 268 530 310 646 310 c 258
 760 310 l 257
 751 355 722 381 690 381 c 256
 671 381 657 370 649 353 c 256
 639 332 622 325 603 325 c 256
 579 325 561 341 561 362 c 256
 561 397 601 423 655 423 c 256
 739 423 781 379 798 284 c 257
 738 284 l 258
 652 284 608 251 608 169 c 256
 608 87 659 43 707 43 c 256
 737 43 761 47 800 92 c 257
 826 77 l 257
 786 29 744 -1 657 -1 c 256
 529 -1 458 67 458 165 c 256
23 172 m 257
 31 163 48 156 65 156 c 256
 127 156 128 201 203 272 c 257
 216 285 218 301 218 314 c 256
 218 347 199 371 176 371 c 256
 156 371 142 361 140 337 c 256
 138 316 128 287 97 287 c 256
 80 287 54 297 54 331 c 256
 54 375 87 421 150 421 c 256
 214 421 247 377 247 326 c 256
 247 318 246 312 245 308 c 257
 301 361 392 426 577 426 c 256
 601 426 659 426 693 419 c 257
 674 415 604 397 592 397 c 257
 583 397 580 397 571 397 c 256
 418 397 335 352 266 292 c 257
 291 300 310 301 337 301 c 256
 419 301 486 243 486 165 c 256
 486 52 389 -1 270 -1 c 256
 133 -1 23 64 23 172 c 257
122 144 m 257
 150 135 185 130 242 130 c 256
 351 130 408 173 408 220 c 256
 408 253 381 274 326 274 c 256
 185 274 184 186 122 144 c 257
EndSplineSet
Validated: 5
EndChar

StartChar: si_NDRIi
Encoding: 488 -1 226
GlifName: si_N_D_R_I_i
Width: 873
VWidth: 0
GlyphClass: 2
Flags: HW
LayerCount: 2
Fore
SplineSet
672 502 m 256
 672 473 700 449 734 449 c 256
 768 449 796 473 796 502 c 256
 796 531 768 554 734 554 c 256
 700 554 672 531 672 502 c 256
462 506 m 256
 462 604 552 655 646 655 c 256
 740 655 830 599 830 510 c 256
 830 452 783 419 733 419 c 256
 675 419 638 459 638 503 c 256
 638 521 645 547 668 562 c 257
 661 563 649 564 636 564 c 256
 566 564 504 538 504 486 c 256
 504 456 530 426 582 426 c 257
 517 421 l 257
 509 423 462 444 462 506 c 256
461 -42 m 257
 488 -42 l 257
 515 -82 552 -101 627 -101 c 256
 715 -101 799 -37 799 50 c 256
 799 71 799 64 798 72 c 257
 826 77 l 257
 826 57 826 74 826 38 c 256
 826 -106 741 -199 638 -199 c 256
 535 -199 480 -141 461 -42 c 257
458 165 m 256
 458 268 530 310 646 310 c 258
 760 310 l 257
 751 355 722 381 690 381 c 256
 671 381 657 370 649 353 c 256
 639 332 622 325 603 325 c 256
 579 325 561 341 561 362 c 256
 561 397 601 423 655 423 c 256
 739 423 781 379 798 284 c 257
 738 284 l 258
 652 284 608 251 608 169 c 256
 608 87 659 43 707 43 c 256
 737 43 761 47 800 92 c 257
 826 77 l 257
 786 29 744 -1 657 -1 c 256
 529 -1 458 67 458 165 c 256
23 172 m 257
 31 163 48 156 65 156 c 256
 127 156 128 201 203 272 c 257
 216 285 218 301 218 314 c 256
 218 347 199 371 176 371 c 256
 156 371 142 361 140 337 c 256
 138 316 128 287 97 287 c 256
 80 287 54 297 54 331 c 256
 54 375 87 421 150 421 c 256
 214 421 247 377 247 326 c 256
 247 318 246 312 245 308 c 257
 301 361 392 426 577 426 c 256
 601 426 659 426 693 419 c 257
 674 415 604 397 592 397 c 257
 583 397 580 397 571 397 c 256
 418 397 335 352 266 292 c 257
 291 300 310 301 337 301 c 256
 419 301 486 243 486 165 c 256
 486 52 389 -1 270 -1 c 256
 133 -1 23 64 23 172 c 257
122 144 m 257
 150 135 185 130 242 130 c 256
 351 130 408 173 408 220 c 256
 408 253 381 274 326 274 c 256
 185 274 184 186 122 144 c 257
EndSplineSet
Validated: 5
EndChar

